<svg xmlns="http://www.w3.org/2000/svg" xmlns:xlink="http://www.w3.org/1999/xlink" width="142" height="26" viewBox="0 0 142 26">
    <defs>
        <path id="j854idlt8a" d="M0 0L25.044 0 25.044 23.683 0 23.683z"/>
        <path id="3x22t5vp4c" d="M0 15.849L3.734 15.857 11.902 0.058 8.603 0z"/>
        <path id="8dn46thgbf" d="M0 0l2.574 3.899 6.784-.024s3.62.024 3.62-3.875H0z"/>
        <path id="ovl0lolvki" d="M7.845.026c-.612 2.137.624 3.868 2.759 3.868h2.447c.423 0 2.291-.085 2.01 1.223l-.596 2.08c-.203.707-1.065 1.33-1.59 1.653.38-.502.678-.682.848-1.274h-3.687c-2.136 0-3.607.974-4.22 3.11h3.687c1.405 0 2.09-.374 3.09-1.494.306.258 1.023.963.789 1.784l-.598 2.08c-.407 1.421-2.288 1.223-2.71 1.223H4.976C2.84 14.279.612 16.01 0 18.147l8.813.026c4.027 0 6.803-.381 8.154-5.092 0 0 1.476-3.89-4.285-3.99l.008-.01c5.813-.103 6.568-3.99 6.568-3.99C20.608.381 16.448 0 13.443 0L7.845.026z"/>
        <path id="b3gxj0l5el" d="M.495 12.863c-1.176 1.939-.167 5.23 2.078 5.23L9.337 5.61C11.023 2.669 9.882 0 7.637 0L.495 12.863z"/>
        <path id="cnr7mgddyo" d="M.886 0C.161 0 .044.7.044.7.014.783 0 .864 0 .944v.007c.006.66.945 1.186.945 1.186l10.048 5.515S9.26 3.163 8.886 1.615C8.51.067 7.379 0 7.379 0H.886"/>
        <path id="c2d1blrxhr" d="M6.24 13.748s.439 1.923.414 2.536c-.044 1.126-.04 3.558-.04 3.558s-.348 1.736.776 1.736h5.077s1.308-.08 1.406-1.824c.115-2.02-.42-4.27-.42-4.27L8.516 4.753 0 0l6.24 13.748z"/>
        <path id="3tbrjazwtu" d="M9.81.013C8.069.042 6.99 2.169 6.99 2.169L.754 12.05c-.299.31-.754 0-.754 0l3.512 7.572.233 1.26c.007-1.453 1.056-3.18 1.056-3.18s8.676-15.27 9.353-16.464C14.83.042 13.938.013 13.938.013S12.878 0 11.654 0c-.611 0-1.264.003-1.844.013"/>
        <linearGradient id="6wike3sg3d" x1="-.004%" x2="99.998%" y1="50.001%" y2="50.001%">
            <stop offset="0%" stop-color="#1434AA"/>
            <stop offset="100%" stop-color="#00A8FF"/>
        </linearGradient>
        <linearGradient id="44x76ca4og" x1=".003%" x2="100.001%" y1="49.994%" y2="49.994%">
            <stop offset="0%" stop-color="#1DC8FF"/>
            <stop offset="100%" stop-color="#2660D4"/>
        </linearGradient>
        <linearGradient id="b7awa56v5j" x1="-.002%" x2="99.999%" y1="49.999%" y2="49.999%">
            <stop offset="0%" stop-color="#1434AA"/>
            <stop offset="100%" stop-color="#00A8FF"/>
        </linearGradient>
        <linearGradient id="1ru86cm5cm" x1=".002%" x2="100%" y1="50.001%" y2="50.001%">
            <stop offset="0%" stop-color="#1434AA"/>
            <stop offset="100%" stop-color="#00A8FF"/>
        </linearGradient>
        <linearGradient id="rd42cjjvvp" x1="9.424%" x2="113.932%" y1="20.894%" y2="62.258%">
            <stop offset="0%" stop-color="#1DC8FF"/>
            <stop offset="100%" stop-color="#2660D4"/>
        </linearGradient>
        <linearGradient id="xfsbn74cls" x1="42.692%" x2="72.872%" y1="53.325%" y2="34.658%">
            <stop offset="0%" stop-color="#1434AA"/>
            <stop offset="100%" stop-color="#00A8FF"/>
        </linearGradient>
        <linearGradient id="tq08i8fejv" x1="-.001%" x2="100%" y1="50%" y2="50%">
            <stop offset="0%" stop-color="#1434AA"/>
            <stop offset="100%" stop-color="#00A8FF"/>
        </linearGradient>
    </defs>
    <g fill="none" fill-rule="evenodd">
        <g>
            <g>
                <g>
                    <path fill="#1980FF" d="M19.058 4.582l.361-1.699H8.07l-.362 1.7h11.351zm-.41 1.93H7.295l-.372 1.751h11.351l.372-1.75zm-14.555 3.81L6.118.799h16.138l-2.025 9.525H10.116c-.507.566-1.065 1.132-1.637 1.647h13.333c-.68 2.832-1.315 5.097-1.92 6.848-.618 1.699-1.26 2.909-1.944 3.578-.683.67-1.635 1.03-2.88 1.082h-3.579l-.156-2.292c1.044.052 2.037.103 3.015.103 1.159 0 2.024-.438 2.57-1.313.558-.926 1.225-2.858 1.963-5.844h-2.007c-3.237 4.814-7.416 8.007-12.532 9.551l-.958-2.033c4.583-1.34 8.26-3.862 10.993-7.518h-2.78c-2.393 2.78-5.715 4.969-10.018 6.565L.414 18.792c3.686-1.235 6.536-2.78 8.558-4.66H5.626c-1.433.928-3.023 1.75-4.747 2.472L0 14.441c3.093-1.106 5.519-2.471 7.284-4.118h-3.19zM48.751 21.598l-2.563 1.159c-.652-2.986-1.473-5.664-2.462-8.032l2.38-1.03c.984 2.394 1.868 5.02 2.645 7.903zM33.375 1.544c.596.103 1.248.18 1.912.206C41.263 1.724 46.23 1.133 50.176 0l.72 2.06c-4.219 1.08-9.57 1.672-16.027 1.775-.83 2.215-1.638 4.197-2.402 5.973h6.718l1.007-4.737h2.472l-1.007 4.737h9.189l-.51 2.394h-9.188l-1.833 8.623c-.394 1.854-1.498 2.807-3.248 2.807h-3.475l-.032-2.394c1.085.103 2.13.154 3.134.154.669 0 1.117-.411 1.28-1.184l1.703-8.006h-9.421c1.729-4.016 3.102-7.568 4.119-10.658zm.743 13.335c-1.922 2.986-3.967 5.586-6.137 7.8l-1.808-1.544c2.157-2.034 4.17-4.48 6.007-7.312l1.938 1.056z" transform="translate(-117.000000, -42.000000) translate(117.000000, 42.000000) translate(60.697196, 2.072854)"/>
                    <g transform="translate(-117.000000, -42.000000) translate(117.000000, 42.000000) translate(60.697196, 2.072854) translate(56.259211, 0.025586)">
                        <mask id="k5eaf2tybb" fill="#fff">
                            <use xlink:href="#j854idlt8a"/>
                        </mask>
                        <path fill="#1980FF" d="M17.089 8.315h3.474l.29-1.365h-3.475l-.29 1.365zm-.635 2.986h3.475l.284-1.339h-3.475l-.284 1.339zm-1.708-2.986l.29-1.365h-3.449l-.29 1.365h3.45zm-.634 2.986l.284-1.339h-3.449l-.285 1.339h3.45zm2.051-9.653l.345-1.623h2.343l-.345 1.623H20.9c-.108-.464-.22-.902-.365-1.313L22.665 0c.097.515.162 1.055.242 1.648h2.137L24.61 3.68h-6.537l-.301 1.416h5.74l-2.025 9.525h-2.265l.361-1.7H16.11l-.328 1.546h-2.342l.328-1.545h-3.45l-.366 1.725H7.687l2.03-9.551h5.713l.301-1.416H9.22l.432-2.033h6.512zm.82 14.312l.223-1.055h2.368l-.223 1.055h3.165l-.449 2.111h-3.166l-.711 3.347c-.317 1.493-1.228 2.265-2.72 2.265h-2.833l-.058-2.265c.879.103 1.717.154 2.515.154.463 0 .75-.256.853-.747l.586-2.754H9.97c1.053.979 1.906 1.932 2.559 2.858l-1.842 1.519c-.61-1.004-1.538-2.085-2.78-3.27l1.368-1.107H5.57l.448-2.111h10.965zM3.742 6.075L5.034 0h2.394L6.137 6.075h2.342l-.504 2.369H5.633l-3.24 15.24H0l3.24-15.24H.716l.504-2.37h2.522z" mask="url(#k5eaf2tybb)"/>
                    </g>
                </g>
                <g transform="translate(-117.000000, -42.000000) translate(117.000000, 42.000000) translate(33.340125, 9.842925)">
                    <mask id="bd57jxsbte" fill="#fff">
                        <use xlink:href="#3x22t5vp4c"/>
                    </mask>
                    <path fill="url(#6wike3sg3d)" d="M0 15.849L3.734 15.857 11.902 0.058 8.603 0z" mask="url(#bd57jxsbte)"/>
                </g>
                <g transform="translate(-117.000000, -42.000000) translate(117.000000, 42.000000) translate(20.662317, 21.823601)">
                    <mask id="6mucbx194h" fill="#fff">
                        <use xlink:href="#8dn46thgbf"/>
                    </mask>
                    <path fill="url(#44x76ca4og)" d="M0 0l2.574 3.899 6.784-.024s3.62.024 3.62-3.875H0z" mask="url(#6mucbx194h)"/>
                </g>
                <g transform="translate(-117.000000, -42.000000) translate(117.000000, 42.000000) translate(33.340125, 7.545039)">
                    <mask id="26ellfh0ik" fill="#fff">
                        <use xlink:href="#ovl0lolvki"/>
                    </mask>
                    <path fill="url(#b7awa56v5j)" d="M7.845.026c-.612 2.137.624 3.868 2.759 3.868h2.447c.423 0 2.291-.085 2.01 1.223l-.596 2.08c-.203.707-1.065 1.33-1.59 1.653.38-.502.678-.682.848-1.274h-3.687c-2.136 0-3.607.974-4.22 3.11h3.687c1.405 0 2.09-.374 3.09-1.494.306.258 1.023.963.789 1.784l-.598 2.08c-.407 1.421-2.288 1.223-2.71 1.223H4.976C2.84 14.279.612 16.01 0 18.147l8.813.026c4.027 0 6.803-.381 8.154-5.092 0 0 1.476-3.89-4.285-3.99l.008-.01c5.813-.103 6.568-3.99 6.568-3.99C20.608.381 16.448 0 13.443 0L7.845.026z" mask="url(#26ellfh0ik)"/>
                </g>
                <g transform="translate(-117.000000, -42.000000) translate(117.000000, 42.000000) translate(20.662572, 7.628719)">
                    <mask id="hvfdkajvwn" fill="#fff">
                        <use xlink:href="#b3gxj0l5el"/>
                    </mask>
                    <path fill="url(#1ru86cm5cm)" d="M.495 12.863c-1.176 1.939-.167 5.23 2.078 5.23L9.337 5.61C11.023 2.669 9.882 0 7.637 0L.495 12.863z" mask="url(#hvfdkajvwn)"/>
                </g>
                <g transform="translate(-117.000000, -42.000000) translate(117.000000, 42.000000) translate(0.000000, 1.240148)">
                    <mask id="kxz1wx88tq" fill="#fff">
                        <use xlink:href="#cnr7mgddyo"/>
                    </mask>
                    <path fill="url(#rd42cjjvvp)" d="M.886 0C.161 0 .044.7.044.7.014.783 0 .864 0 .944v.007c.006.66.945 1.186.945 1.186l10.048 5.515S9.26 3.163 8.886 1.615C8.51.067 7.379 0 7.379 0H.886" mask="url(#kxz1wx88tq)"/>
                </g>
                <g transform="translate(-117.000000, -42.000000) translate(117.000000, 42.000000) translate(2.478491, 4.138243)">
                    <mask id="yep9pekgst" fill="#fff">
                        <use xlink:href="#c2d1blrxhr"/>
                    </mask>
                    <path fill="url(#xfsbn74cls)" d="M6.24 13.748s.439 1.923.414 2.536c-.044 1.126-.04 3.558-.04 3.558s-.348 1.736.776 1.736h5.077s1.308-.08 1.406-1.824c.115-2.02-.42-4.27-.42-4.27L8.516 4.753 0 0l6.24 13.748z" mask="url(#yep9pekgst)"/>
                </g>
                <g transform="translate(-117.000000, -42.000000) translate(117.000000, 42.000000) translate(12.420146, 0.000000)">
                    <mask id="048xke0ziw" fill="#fff">
                        <use xlink:href="#3tbrjazwtu"/>
                    </mask>
                    <path fill="url(#tq08i8fejv)" d="M9.81.013C8.069.042 6.99 2.169 6.99 2.169L.754 12.05c-.299.31-.754 0-.754 0l3.512 7.572.233 1.26c.007-1.453 1.056-3.18 1.056-3.18s8.676-15.27 9.353-16.464C14.83.042 13.938.013 13.938.013S12.878 0 11.654 0c-.611 0-1.264.003-1.844.013" mask="url(#048xke0ziw)"/>
                </g>
            </g>
        </g>
    </g>
</svg>
