<svg width="106" height="32" viewBox="0 0 106 32" fill="none" xmlns="http://www.w3.org/2000/svg">
<path d="M2.88406 31.7113L7.39691 29.9019C7.39691 29.9019 7.97537 29.6 9.37124 29.577C10.9241 29.5515 92.6663 29.577 92.6663 29.577C92.6663 29.577 96.8902 29.6281 92.6663 29.8244L2.88233 31.9757C2.88233 31.9757 1.9726 32.0238 2.88406 31.7113Z" fill="url(#paint0_linear_135_22095)"/>
<path d="M20.2768 0.564072L19.8066 0.0229492H0.782058L0.0250244 3.95089L0.551283 4.50777H6.53679L2.90132 25.1693L3.40298 25.7262H8.97784C8.97784 25.7262 9.11846 25.7726 9.15038 25.5559C9.18231 25.3392 12.9265 4.50777 12.9265 4.50777H19.5392L20.2768 0.564072Z" fill="url(#paint1_linear_135_22095)"/>
<path d="M64.3639 0.564072L63.8937 0.0229492H44.8667L44.1093 3.95089L44.6355 4.50777H50.6214L46.986 25.1693L47.4876 25.7262H53.0655C53.0655 25.7262 53.2065 25.7726 53.238 25.5559C53.2695 25.3392 57.0141 4.50777 57.0141 4.50777H63.6272L64.3639 0.564072Z" fill="url(#paint2_linear_135_22095)"/>
<path d="M41.9003 0.0212402H39.4558C37.8106 0.0829736 37.6066 1.30657 37.6066 1.30657L35.0215 15.9676C35.0215 15.9676 30.877 4.11352 30.1092 2.0031C29.3414 -0.107333 27.116 0.0237972 27.116 0.0237972H23.8494C21.6494 0.302236 21.4049 2.32028 21.4049 2.32028L17.4364 24.5711C17.3091 25.7811 18.9737 25.8547 18.9737 25.8547H21.426C21.426 25.8547 22.6636 25.8547 23.022 24.9181C23.1001 24.7137 25.9294 8.86401 25.9294 8.86401C25.9294 8.86401 29.9147 19.8483 30.9016 22.9277C31.8886 26.0071 33.9573 25.7734 33.9573 25.7734H36.8716C39.0495 25.5567 39.3303 23.4693 39.3303 23.4693L43.2164 1.67868C43.4825 0.069352 41.9003 0.0212402 41.9003 0.0212402Z" fill="url(#paint3_linear_135_22095)"/>
<path d="M81.5386 12.8759C83.7683 11.8035 84.2475 9.56445 84.2475 9.56445L85.1503 4.54404C85.1503 4.54404 85.6115 2.77974 84.6159 1.36115C83.6203 -0.0574385 82.1468 0.022173 82.1468 0.022173H69.9468C66.3166 0.483683 65.6531 3.67126 65.6531 3.67126L64.5842 9.72878C64.4734 11.6936 66.1319 12.8031 66.1319 12.8031C63.8837 14.0761 63.5153 15.8042 63.5153 15.8042L62.3912 22.1146C62.4646 25.5887 65.6531 25.7292 65.6531 25.7292H77.4106C81.2436 25.2877 81.9993 22.0963 81.9993 22.0963L83.0496 15.9656C83.2524 13.9305 81.5386 12.8759 81.5386 12.8759ZM76.6876 16.184L76.0108 20.0285C75.6614 21.2521 74.426 21.2521 74.426 21.2521H70.0171C68.8288 21.0698 69.1113 19.9923 69.1113 19.9923L69.7626 16.3543C70.0512 15.1779 71.2672 15.1132 71.2672 15.1132H75.7041C76.8826 15.2141 76.6876 16.1848 76.6876 16.1848V16.184ZM78.5856 5.55774L77.9088 9.40139C77.5594 10.6254 76.324 10.6254 76.324 10.6254H71.9151C70.7267 10.4432 71.0093 9.36563 71.0093 9.36563L71.6606 5.72719C71.9492 4.55127 73.1639 4.48869 73.1639 4.48869H77.6021C78.7805 4.58746 78.5856 5.55859 78.5856 5.55859V5.55774Z" fill="url(#paint4_linear_135_22095)"/>
<path d="M105.338 1.36202C104.342 -0.0569982 102.868 0.0230393 102.868 0.0230393H90.6679C87.0375 0.484549 86.3741 3.67212 86.3741 3.67212L85.3052 9.7288C85.1948 11.6936 86.8534 12.8031 86.8534 12.8031C84.6047 14.0761 84.2363 15.8042 84.2363 15.8042L83.1122 22.1146C83.1859 25.5887 86.3741 25.7292 86.3741 25.7292H98.1317C101.965 25.2877 102.72 22.0963 102.72 22.0963L103.771 15.9656C103.974 13.9284 102.261 12.8746 102.261 12.8746C104.491 11.8022 104.97 9.56318 104.97 9.56318L105.873 4.54277C105.873 4.54277 106.333 2.78061 105.338 1.36202ZM97.4091 16.1848L96.7328 20.0285C96.3834 21.2521 95.1484 21.2521 95.1484 21.2521H90.7386C89.5498 21.0699 89.8328 19.9923 89.8328 19.9923L90.4841 16.3543C90.7723 15.1779 91.9887 15.1132 91.9887 15.1132H96.4252C97.6037 15.2141 97.4091 16.1848 97.4091 16.1848ZM99.3071 5.55861L98.6308 9.4014C98.2814 10.6254 97.0464 10.6254 97.0464 10.6254H92.6366C91.4478 10.4432 91.7307 9.36564 91.7307 9.36564L92.3821 5.7272C92.6702 4.55129 93.8867 4.48657 93.8867 4.48657H98.3232C99.5017 4.58747 99.3071 5.55861 99.3071 5.55861Z" fill="url(#paint5_linear_135_22095)"/>
<defs>
<linearGradient id="paint0_linear_135_22095" x1="48.511" y1="29.5657" x2="48.511" y2="31.9784" gradientUnits="userSpaceOnUse">
<stop stop-color="#03ABEF"/>
<stop offset="1" stop-color="#4995ED"/>
</linearGradient>
<linearGradient id="paint1_linear_135_22095" x1="10.1509" y1="0.0229492" x2="10.1509" y2="25.7303" gradientUnits="userSpaceOnUse">
<stop stop-color="#03ABEF"/>
<stop offset="1" stop-color="#4995ED"/>
</linearGradient>
<linearGradient id="paint2_linear_135_22095" x1="54.2366" y1="0.0229492" x2="54.2366" y2="25.7303" gradientUnits="userSpaceOnUse">
<stop stop-color="#03ABEF"/>
<stop offset="1" stop-color="#4995ED"/>
</linearGradient>
<linearGradient id="paint3_linear_135_22095" x1="30.338" y1="0.0212402" x2="30.338" y2="25.8547" gradientUnits="userSpaceOnUse">
<stop stop-color="#03ABEF"/>
<stop offset="1" stop-color="#4995ED"/>
</linearGradient>
<linearGradient id="paint4_linear_135_22095" x1="73.8241" y1="0.0213623" x2="73.8241" y2="25.7292" gradientUnits="userSpaceOnUse">
<stop stop-color="#03ABEF"/>
<stop offset="1" stop-color="#4995ED"/>
</linearGradient>
<linearGradient id="paint5_linear_135_22095" x1="94.5457" y1="0.0222168" x2="94.5457" y2="25.7292" gradientUnits="userSpaceOnUse">
<stop stop-color="#03ABEF"/>
<stop offset="1" stop-color="#4995ED"/>
</linearGradient>
</defs>
</svg>
