<svg width="204" height="56" viewBox="0 0 204 56" fill="none" xmlns="http://www.w3.org/2000/svg">
<g clip-path="url(#clip0_121_1303)">
<g filter="url(#filter0_d_121_1303)">
<path d="M18.3076 13.9568C18.3076 11.9091 19.967 10.2491 22.0139 10.2491H29.4265C31.4734 10.2491 33.1328 11.9091 33.1328 13.9568V15.8106C33.1328 16.4249 33.6306 16.9229 34.2447 16.9229H47.5873C51.6812 16.9229 54.9999 20.2429 54.9999 24.3383V46.5845C54.9999 50.68 51.6812 53.9999 47.5873 53.9999H25.3496C21.2557 53.9999 17.937 50.68 17.937 46.5845V37.5934C17.937 36.9791 17.4391 36.4811 16.8251 36.4811H13.1188C11.0718 36.4811 9.41248 34.8211 9.41248 32.7734V25.358C9.41248 23.3103 11.0718 21.6503 13.1188 21.6503H16.4544C17.4779 21.6503 18.3076 20.8203 18.3076 19.7964V13.9568Z" fill="url(#paint0_linear_121_1303)"/>
</g>
<path d="M50.3652 44.5257C49.9281 45.0272 49.3829 45.3873 48.7851 45.5694C48.1872 45.7515 47.5579 45.7491 46.9611 45.5624C46.3642 45.3757 45.8212 45.0115 45.387 44.5066C44.9528 44.0018 44.643 43.3743 44.489 42.6879L43.0225 36.4726L39.2505 40.8118C38.9232 41.2615 38.5138 41.6234 38.0512 41.8722C37.5886 42.121 37.0839 42.2505 36.5729 42.2517C36.0618 42.2529 35.5567 42.1257 35.0932 41.8791C34.6297 41.6324 34.2191 41.2724 33.8902 40.8243L30.1023 36.5032L28.6592 42.7252C28.5539 43.2507 28.3574 43.7465 28.0813 44.1831C27.8052 44.6198 27.4551 44.9882 27.0521 45.2666C26.649 45.5449 26.2011 45.7274 25.7351 45.8032C25.2691 45.879 24.7946 45.8466 24.3398 45.7078C23.885 45.569 23.4593 45.3267 23.088 44.9954C22.7167 44.6641 22.4074 44.2505 22.1787 43.7793C21.9499 43.3082 21.8062 42.7891 21.7563 42.2529C21.7064 41.7168 21.7513 41.1747 21.8882 40.6588L24.9073 27.6451C25.0699 26.9929 25.375 26.3989 25.7937 25.9192C27.1467 24.3615 29.4813 24.3577 30.7484 25.9077L36.5553 32.537L42.3397 25.88C43.6009 24.3243 45.9347 24.3176 47.2944 25.8685C47.7146 26.3461 48.0217 26.9384 48.1867 27.5896L51.2525 40.5938C51.4236 41.2803 51.4316 42.0067 51.2756 42.698C51.1196 43.3892 50.8053 44.0202 50.3652 44.5257Z" fill="white"/>
<g filter="url(#filter1_d_121_1303)">
<path d="M14.2307 19.4264C15.2542 19.4264 16.0838 18.5964 16.0838 17.5725V12.3817C16.0838 11.3579 15.2542 10.5279 14.2307 10.5279L9.04187 10.5279C8.0184 10.5279 7.18872 11.3579 7.18872 12.3817L7.18872 17.5725C7.18872 18.5964 8.0184 19.4264 9.04187 19.4264H14.2307Z" fill="url(#paint1_linear_121_1303)"/>
</g>
<g filter="url(#filter2_d_121_1303)">
<path d="M18.3075 7.56155C19.1263 7.56155 19.79 6.89755 19.79 6.07847V3.48308C19.79 2.664 19.1263 2 18.3075 2L15.7131 2C14.8943 2 14.2306 2.664 14.2306 3.48308L14.2306 6.07847C14.2306 6.89755 14.8943 7.56155 15.7131 7.56155H18.3075Z" fill="url(#paint2_linear_121_1303)"/>
</g>
<g filter="url(#filter3_d_121_1303)">
<path d="M6.07693 26.8421C6.8957 26.8421 7.55945 26.1781 7.55945 25.359V22.7637C7.55945 21.9446 6.8957 21.2806 6.07693 21.2806L3.48252 21.2806C2.66375 21.2806 2 21.9446 2 22.7637L2 25.359C2 26.1781 2.66375 26.8421 3.48252 26.8421H6.07693Z" fill="url(#paint3_linear_121_1303)"/>
</g>
<g filter="url(#filter4_d_121_1303)">
<path d="M6.07712 10.1568C6.48651 10.1568 6.81838 9.82484 6.81838 9.4153V6.81991C6.81838 6.41037 6.48651 6.07837 6.07712 6.07837L3.48271 6.07837C3.07333 6.07837 2.74146 6.41037 2.74146 6.81991L2.74146 9.4153C2.74146 9.82484 3.07333 10.1568 3.48271 10.1568H6.07712Z" fill="url(#paint4_linear_121_1303)"/>
</g>
<path d="M64.8137 47.7324C66.0077 47.7324 67.0904 47.0141 67.0904 45.7183L68.9 34.8028H69.036L72.1091 44.3662C72.6683 45.662 73.288 46.1127 74.225 46.1127C75.147 46.1127 75.7667 45.6901 76.3259 44.3662L79.3989 34.8028H79.535L81.3446 45.7183C81.3446 47.0423 82.3819 47.7324 83.5608 47.7324C84.7548 47.7324 85.4199 47.0141 85.4199 45.7183L83.1926 30.662C83.1926 29.0986 82.3311 28.1972 80.8348 28.1972C79.4896 28.1972 78.7339 28.7465 78.0235 30.493L74.3006 41.6901H74.1495L70.4114 30.507C69.7011 28.7746 68.9302 28.1972 67.6153 28.1972C66.1492 28.1972 65.2273 29.1268 65.2273 30.662L63 45.7183C63 47.0423 63.6197 47.7324 64.8137 47.7324Z" fill="#656772"/>
<path d="M89.1277 47.7606C90.2159 47.7606 90.8205 47.2394 91.2437 45.9155L92.3924 42.6479H99.6321L100.796 45.9155C101.204 47.2254 101.839 47.7606 102.942 47.7606C104.106 47.7606 104.877 47.1127 104.877 46.0986C104.877 45.7042 104.771 45.2394 104.559 44.6338L99.36 30.7465C98.7101 28.9437 97.8032 28.2113 96.0953 28.2113C94.3723 28.2113 93.4503 28.9577 92.8004 30.7465L87.6011 44.6338C87.3442 45.3521 87.2384 45.7887 87.2384 46.169C87.2384 47.1268 88.0092 47.7606 89.1277 47.7606ZM93.2992 39.8169L95.9291 32.0423H96.1256L98.7403 39.8169H93.2992Z" fill="#656772"/>
<path d="M106.887 46.0141C106.887 47 107.703 47.7324 108.837 47.7324C109.623 47.7324 110.031 47.4366 110.922 46.2535L114.958 40.6761H115.139L119.326 46.2535C120.293 47.4789 120.656 47.7324 121.442 47.7324C122.591 47.7324 123.437 47 123.437 46.0141C123.437 45.5634 123.256 45.1268 122.802 44.5775L117.573 38.0563L122.742 31.338C123.21 30.7324 123.392 30.338 123.392 29.9014C123.392 28.9155 122.56 28.1831 121.442 28.1831C120.626 28.1831 120.172 28.507 119.356 29.662L115.351 35.3944H115.154L111.028 29.662C110.136 28.4789 109.713 28.1831 108.912 28.1831C107.764 28.1831 106.917 28.9155 106.917 29.9014C106.917 30.3521 107.114 30.7887 107.567 31.3521L112.6 37.9014L107.537 44.5775C107.068 45.1972 106.887 45.5916 106.887 46.0141Z" fill="#656772"/>
<path d="M132.778 47.7606C133.866 47.7606 134.47 47.2394 134.894 45.9155L136.042 42.6479H143.282L144.446 45.9155C144.854 47.2254 145.489 47.7606 146.592 47.7606C147.756 47.7606 148.527 47.1127 148.527 46.0986C148.527 45.7042 148.421 45.2394 148.209 44.6338L143.01 30.7465C142.36 28.9437 141.453 28.2113 139.745 28.2113C138.022 28.2113 137.1 28.9577 136.45 30.7465L131.251 44.6338C130.994 45.3521 130.888 45.7887 130.888 46.169C130.888 47.1268 131.659 47.7606 132.778 47.7606ZM136.949 39.8169L139.579 32.0423H139.775L142.39 39.8169H136.949Z" fill="#656772"/>
<path d="M166.733 40.9718V30.2535C166.733 28.9859 165.947 28.2254 164.677 28.2254C163.407 28.2254 162.637 28.9859 162.637 30.2535V40.5775C162.637 43.1408 161.019 44.7324 158.405 44.7324C155.76 44.7324 154.158 43.169 154.158 40.5775V30.2535C154.158 28.9859 153.372 28.2254 152.102 28.2254C150.832 28.2254 150.062 28.9859 150.062 30.2535V40.9437C150.062 45.1972 153.19 48 158.405 48C163.438 48 166.733 45.2254 166.733 40.9718Z" fill="#656772"/>
<path d="M177.192 47.7324C178.446 47.7324 179.232 46.9577 179.232 45.7042V31.5634H183.615C184.643 31.5634 185.368 30.9014 185.368 29.9718C185.368 29.0282 184.643 28.3662 183.615 28.3662H170.783C169.771 28.3662 169.03 29.0423 169.03 29.9718C169.03 30.8873 169.771 31.5634 170.783 31.5634H175.151V45.7042C175.151 46.9718 175.922 47.7324 177.192 47.7324Z" fill="#656772"/>
<path d="M185.467 39.3239C185.467 44.7324 188.702 48 194.234 48C199.735 48 203 44.7324 203 39.3239V36.8169C203 31.338 199.735 28 194.234 28C188.762 28 185.467 31.338 185.467 36.8169V39.3239ZM189.548 36.8028C189.548 33.2958 191.317 31.1831 194.234 31.1831C197.151 31.1831 198.919 33.2958 198.919 36.8028V39.3099C198.919 42.7746 197.151 44.8169 194.234 44.8169C191.317 44.8169 189.548 42.7746 189.548 39.3099V36.8028Z" fill="#656772"/>
</g>
<defs>
<filter id="filter0_d_121_1303" x="7.41248" y="9.24908" width="49.5874" height="47.7509" filterUnits="userSpaceOnUse" color-interpolation-filters="sRGB">
<feFlood flood-opacity="0" result="BackgroundImageFix"/>
<feColorMatrix in="SourceAlpha" type="matrix" values="0 0 0 0 0 0 0 0 0 0 0 0 0 0 0 0 0 0 127 0" result="hardAlpha"/>
<feOffset dy="1"/>
<feGaussianBlur stdDeviation="1"/>
<feComposite in2="hardAlpha" operator="out"/>
<feColorMatrix type="matrix" values="0 0 0 0 0 0 0 0 0 0 0 0 0 0 0 0 0 0 0.24 0"/>
<feBlend mode="normal" in2="BackgroundImageFix" result="effect1_dropShadow_121_1303"/>
<feBlend mode="normal" in="SourceGraphic" in2="effect1_dropShadow_121_1303" result="shape"/>
</filter>
<filter id="filter1_d_121_1303" x="5.18872" y="9.52789" width="12.8951" height="12.8985" filterUnits="userSpaceOnUse" color-interpolation-filters="sRGB">
<feFlood flood-opacity="0" result="BackgroundImageFix"/>
<feColorMatrix in="SourceAlpha" type="matrix" values="0 0 0 0 0 0 0 0 0 0 0 0 0 0 0 0 0 0 127 0" result="hardAlpha"/>
<feOffset dy="1"/>
<feGaussianBlur stdDeviation="1"/>
<feComposite in2="hardAlpha" operator="out"/>
<feColorMatrix type="matrix" values="0 0 0 0 0 0 0 0 0 0 0 0 0 0 0 0 0 0 0.24 0"/>
<feBlend mode="normal" in2="BackgroundImageFix" result="effect1_dropShadow_121_1303"/>
<feBlend mode="normal" in="SourceGraphic" in2="effect1_dropShadow_121_1303" result="shape"/>
</filter>
<filter id="filter2_d_121_1303" x="12.2306" y="1" width="9.55945" height="9.56155" filterUnits="userSpaceOnUse" color-interpolation-filters="sRGB">
<feFlood flood-opacity="0" result="BackgroundImageFix"/>
<feColorMatrix in="SourceAlpha" type="matrix" values="0 0 0 0 0 0 0 0 0 0 0 0 0 0 0 0 0 0 127 0" result="hardAlpha"/>
<feOffset dy="1"/>
<feGaussianBlur stdDeviation="1"/>
<feComposite in2="hardAlpha" operator="out"/>
<feColorMatrix type="matrix" values="0 0 0 0 0 0 0 0 0 0 0 0 0 0 0 0 0 0 0.24 0"/>
<feBlend mode="normal" in2="BackgroundImageFix" result="effect1_dropShadow_121_1303"/>
<feBlend mode="normal" in="SourceGraphic" in2="effect1_dropShadow_121_1303" result="shape"/>
</filter>
<filter id="filter3_d_121_1303" x="0" y="20.2806" width="9.55945" height="9.56155" filterUnits="userSpaceOnUse" color-interpolation-filters="sRGB">
<feFlood flood-opacity="0" result="BackgroundImageFix"/>
<feColorMatrix in="SourceAlpha" type="matrix" values="0 0 0 0 0 0 0 0 0 0 0 0 0 0 0 0 0 0 127 0" result="hardAlpha"/>
<feOffset dy="1"/>
<feGaussianBlur stdDeviation="1"/>
<feComposite in2="hardAlpha" operator="out"/>
<feColorMatrix type="matrix" values="0 0 0 0 0 0 0 0 0 0 0 0 0 0 0 0 0 0 0.24 0"/>
<feBlend mode="normal" in2="BackgroundImageFix" result="effect1_dropShadow_121_1303"/>
<feBlend mode="normal" in="SourceGraphic" in2="effect1_dropShadow_121_1303" result="shape"/>
</filter>
<filter id="filter4_d_121_1303" x="0.741455" y="5.07837" width="8.0769" height="8.07846" filterUnits="userSpaceOnUse" color-interpolation-filters="sRGB">
<feFlood flood-opacity="0" result="BackgroundImageFix"/>
<feColorMatrix in="SourceAlpha" type="matrix" values="0 0 0 0 0 0 0 0 0 0 0 0 0 0 0 0 0 0 127 0" result="hardAlpha"/>
<feOffset dy="1"/>
<feGaussianBlur stdDeviation="1"/>
<feComposite in2="hardAlpha" operator="out"/>
<feColorMatrix type="matrix" values="0 0 0 0 0 0 0 0 0 0 0 0 0 0 0 0 0 0 0.24 0"/>
<feBlend mode="normal" in2="BackgroundImageFix" result="effect1_dropShadow_121_1303"/>
<feBlend mode="normal" in="SourceGraphic" in2="effect1_dropShadow_121_1303" result="shape"/>
</filter>
<linearGradient id="paint0_linear_121_1303" x1="10.4712" y1="11.0788" x2="52.6968" y2="50.8135" gradientUnits="userSpaceOnUse">
<stop stop-color="#0071BC"/>
<stop offset="1" stop-color="#00B6A9"/>
</linearGradient>
<linearGradient id="paint1_linear_121_1303" x1="7.22337" y1="19.4344" x2="15.9281" y2="10.6485" gradientUnits="userSpaceOnUse">
<stop stop-color="#FFE7A3"/>
<stop offset="1" stop-color="#FAAC18"/>
</linearGradient>
<linearGradient id="paint2_linear_121_1303" x1="14.4447" y1="7.36122" x2="19.6472" y2="2.13292" gradientUnits="userSpaceOnUse">
<stop stop-color="#F074AC"/>
<stop offset="1" stop-color="#CD118C"/>
</linearGradient>
<linearGradient id="paint3_linear_121_1303" x1="1.9295" y1="26.9349" x2="7.42332" y2="21.3996" gradientUnits="userSpaceOnUse">
<stop stop-color="#39B54A"/>
<stop offset="1" stop-color="#009245"/>
</linearGradient>
<linearGradient id="paint4_linear_121_1303" x1="2.69122" y1="10.2244" x2="6.75757" y2="6.12583" gradientUnits="userSpaceOnUse">
<stop stop-color="#F37F7B"/>
<stop offset="1" stop-color="#DD1E47"/>
</linearGradient>
<clipPath id="clip0_121_1303">
<rect width="204" height="56" fill="white"/>
</clipPath>
</defs>
</svg>
