<svg xmlns="http://www.w3.org/2000/svg" width="230.846" height="16.995" viewBox="0 0 230.846 16.995">
    <defs>
        <linearGradient id="ikmk8u8kfa" x1="1" x2="0" y1="1" gradientUnits="objectBoundingBox">
            <stop offset="0" stop-color="#6acbff" stop-opacity=".6"/>
            <stop offset="1" stop-color="#c2e7fa" stop-opacity="0"/>
        </linearGradient>
    </defs>
    <g>
        <path fill="url(#ikmk8u8kfa)" d="M226.135 16.995L215.513 0h4.711l10.622 16.995zm-9.37 0L206.143 0h4.711l10.622 16.995zm-9.37 0L196.773 0h4.711l10.622 16.995zm-9.37 0L187.4 0h4.711l10.622 16.995zm-9.37 0L178.032 0h4.711l10.622 16.995zm-9.37 0L168.662 0h4.711L184 16.995zm-9.37 0L159.292 0H164l10.622 16.995zm-9.37 0L149.922 0h4.711l10.622 16.995zm-9.37 0L140.552 0h4.711l10.622 16.995zm-9.37 0L131.182 0h4.711l10.622 16.995zm-9.37 0L121.812 0h4.711l10.622 16.995zm-9.37 0L112.441 0h4.711l10.622 16.995zm-9.37 0L103.071 0h4.711L118.4 16.995zm-9.37 0L93.7 0h4.711l10.622 16.995zm-9.37 0L84.331 0h4.711l10.622 16.995zm-9.37 0L74.961 0h4.711l10.622 16.995zm-9.37 0L65.591 0H70.3l10.624 16.995zm-9.37 0L56.221 0h4.711l10.622 16.995zm-9.37 0L46.851 0h4.711l10.621 16.995zm-9.37 0L37.481 0h4.711l10.622 16.995zm-9.37 0L28.11 0h4.711l10.622 16.995zm-9.37 0L18.74 0h4.711l10.622 16.995zm-9.37 0L9.37 0h4.711L24.7 16.995zm-9.37 0L0 0h4.711l10.622 16.995z" transform="translate(22 -1843.157) translate(-22 1843.157)"/>
    </g>
</svg>
