<svg xmlns="http://www.w3.org/2000/svg" width="230" height="36.948" viewBox="0 0 230 36.948"><defs><style>.a{fill:red;}.b{fill:#f7b61e;}</style></defs><g transform="translate(155.726 0.698)"><g transform="translate(0 0)"><path class="a" d="M742.277,92.25a2.223,2.223,0,0,1-.23-1.873,3.354,3.354,0,0,1,1.147-1.644,8.948,8.948,0,0,0,2.6-3.479,12.689,12.689,0,0,0,1.3-5.428h.5a16.212,16.212,0,0,1,1.109,7.722,8.348,8.348,0,0,1-2.026,4.664,3.133,3.133,0,0,1-2.332,1.108A2.29,2.29,0,0,1,742.277,92.25Zm15.329,9.289q-3.326,0-4.511-.841-1.261-.917-1.261-3.517V95.271a58.454,58.454,0,0,1-9.366,4.7l-.344-.459a59.113,59.113,0,0,0,9.71-6.881V74.742l5.849.573q-.153.841-1.3.994V88.275A66.015,66.015,0,0,0,769.075,69.5l5.7,2.752q-.383.688-1.605.5a61.98,61.98,0,0,1-16.782,19.382V95.92a1.013,1.013,0,0,0,.4.937,3.264,3.264,0,0,0,1.549.248h4.32q2.179,0,3.555-.077a1.632,1.632,0,0,0,1.261-.612,29.2,29.2,0,0,0,1.988-5.5h.382l.153,5.734a3.515,3.515,0,0,1,1.376.822,1.6,1.6,0,0,1,.382,1.089,2.372,2.372,0,0,1-1.911,2.294,27.9,27.9,0,0,1-7.608.688Zm5.562-25.8a2.56,2.56,0,0,1-3.116.038,12.447,12.447,0,0,0-2.523-3.861,20.027,20.027,0,0,0-5.161-4.129l.153-.421a19.438,19.438,0,0,1,8.754,1.95,5.342,5.342,0,0,1,2.944,3.517A2.844,2.844,0,0,1,763.169,75.736ZM773.395,92.1a19.907,19.907,0,0,0-1.491-6.384,35.119,35.119,0,0,0-3.02-5.811l.42-.229a18.088,18.088,0,0,1,6.614,5.123,8.53,8.53,0,0,1,1.873,4.931,3.248,3.248,0,0,1-1.376,3.02Q775.039,93.589,773.395,92.1Z" transform="translate(-741.936 -66.982)"/><path class="a" d="M861.473,102.1l-.229-.459a37.2,37.2,0,0,0,14.489-7.684,20.162,20.162,0,0,1-4.511-7.875A31.174,31.174,0,0,1,857.88,99.922l-.421-.306q8.869-7.607,12.2-21.637h-4.4l-1.72,1.95-4.243-2.752a5.818,5.818,0,0,1,1.453-.879,60.415,60.415,0,0,0,2.638-8.525l5.849,1.644q-.268.841-1.606.8Q866.4,74,865.372,76.871h4.549a78.371,78.371,0,0,0,1.529-10.666l6.384.994q-.192.917-1.491,1.032a72.9,72.9,0,0,1-1.72,8.64h11.812l2.523-3.249q.8.65,1.644,1.3,1.835,1.491,2.9,2.446-.153.612-1.07.612H874.356q-.612,2.1-1.491,4.434h9.9l2.676-2.446,4.129,3.861a2.071,2.071,0,0,1-1.682.612,26.926,26.926,0,0,1-6.575,9.175A53.648,53.648,0,0,0,893.623,97.4l-.038.459q-3.785.574-4.243,4.129A35.147,35.147,0,0,1,878.1,96.214,40.764,40.764,0,0,1,861.473,102.1ZM877.911,91.78a26.638,26.638,0,0,0,4.931-8.257H872.406q-.115.23-.344.745c-.153.344-.268.606-.344.784A16.093,16.093,0,0,0,877.911,91.78ZM883,74.462a17.533,17.533,0,0,0-3.364-6.8l.344-.229a11.685,11.685,0,0,1,5.658,2.485,3.665,3.665,0,0,1,1.491,3.02A2.213,2.213,0,0,1,885.786,75,2.666,2.666,0,0,1,883,74.462Z" transform="translate(-819.349 -66.205)"/></g></g><g transform="translate(115.24 6.39)"><path class="a" d="M627.5,111.525a9.484,9.484,0,0,1-6-1.731,5.848,5.848,0,0,1-2.284-4.9,6.148,6.148,0,0,1,1.474-4.051,12.968,12.968,0,0,1,4.383-3.094q-5.009-2.763-5.009-7.588a6.124,6.124,0,0,1,2.21-4.9,7.9,7.9,0,0,1,5.341-1.8,7.2,7.2,0,0,1,5.083,1.768,6.007,6.007,0,0,1,1.842,4.531q0,4.015-4.862,6.777a13.023,13.023,0,0,1,4.6,3.315,7.118,7.118,0,0,1,1.473,4.53,6.452,6.452,0,0,1-2.339,5.157A8.809,8.809,0,0,1,627.5,111.525Zm.111-1.51a4.7,4.7,0,0,0,3.554-1.4,5.093,5.093,0,0,0,1.345-3.683,4.833,4.833,0,0,0-1.326-3.389,15.617,15.617,0,0,0-4.862-3.168,9.581,9.581,0,0,0-2.947,2.615,6.346,6.346,0,0,0-.958,3.536,5.532,5.532,0,0,0,1.437,3.978A4.947,4.947,0,0,0,627.607,110.015Zm.811-14.07a8.673,8.673,0,0,0,2.5-2.8,7.514,7.514,0,0,0,.737-3.462,5,5,0,0,0-1.068-3.242,3.811,3.811,0,0,0-3.057-1.4,4.343,4.343,0,0,0-3.094,1.179,4.215,4.215,0,0,0-1.326,3.2,5.562,5.562,0,0,0,1.068,3.352A11,11,0,0,0,628.418,95.944Z" transform="translate(-619.209 -83.458)"/><path class="a" d="M688.793,111.525a9.483,9.483,0,0,1-6-1.731,5.847,5.847,0,0,1-2.284-4.9,6.148,6.148,0,0,1,1.473-4.051,12.97,12.97,0,0,1,4.383-3.094q-5.01-2.763-5.01-7.588a6.124,6.124,0,0,1,2.21-4.9,7.9,7.9,0,0,1,5.341-1.8,7.2,7.2,0,0,1,5.083,1.768,6.006,6.006,0,0,1,1.842,4.531q0,4.015-4.862,6.777a13.019,13.019,0,0,1,4.6,3.315,7.119,7.119,0,0,1,1.474,4.53,6.453,6.453,0,0,1-2.339,5.157A8.809,8.809,0,0,1,688.793,111.525Zm.111-1.51a4.7,4.7,0,0,0,3.555-1.4,5.094,5.094,0,0,0,1.344-3.683,4.832,4.832,0,0,0-1.326-3.389,15.618,15.618,0,0,0-4.862-3.168,9.575,9.575,0,0,0-2.947,2.615,6.343,6.343,0,0,0-.958,3.536,5.532,5.532,0,0,0,1.436,3.978A4.947,4.947,0,0,0,688.9,110.015Zm.811-14.07a8.669,8.669,0,0,0,2.5-2.8,7.509,7.509,0,0,0,.737-3.462,5,5,0,0,0-1.068-3.242,3.81,3.81,0,0,0-3.057-1.4,4.343,4.343,0,0,0-3.094,1.179,4.215,4.215,0,0,0-1.326,3.2,5.562,5.562,0,0,0,1.068,3.352A11,11,0,0,0,689.714,95.944Z" transform="translate(-660.285 -83.458)"/></g><circle class="b" cx="3.013" cy="3.013" r="3.013" transform="translate(62.532 0.151)"/><path class="b" d="M357.2,64.09A18.484,18.484,0,0,0,338.96,79.719a18.373,18.373,0,0,0-3.5-8.247h-.026a4.217,4.217,0,0,1-4.214-4.068,18.445,18.445,0,0,0-28.94,15.179,13.928,13.928,0,1,1-7.8-12.514l3.687-3.109a18.455,18.455,0,1,0,8.631,15.623,13.932,13.932,0,1,1,6.255,11.63l-4.63,2.119a18.455,18.455,0,0,0,30.548-10.914A18.456,18.456,0,1,0,357.2,64.09Zm0,32.39a13.935,13.935,0,1,1,13.936-13.935A13.951,13.951,0,0,1,357.2,96.48Z" transform="translate(-269.884 -64.09)"/></svg>