<svg width="18" height="22" fill="none" xmlns="http://www.w3.org/2000/svg">
    <path d="M17.25 9.014c.388 0 .708.3.746.686l.004.078v9.014a3.24 3.24 0 0 1-.877 2.221c-.563.598-1.331.95-2.143.985l-.13.002H3.15a3.12 3.12 0 0 1-2.181-.893 3.235 3.235 0 0 1-.967-2.183L0 18.792V9.778c0-.196.075-.383.207-.525a.744.744 0 0 1 1.03-.054.768.768 0 0 1 .259.5l.004.079v9.014c0 .428.16.84.448 1.151.288.312.682.5 1.101.526l.101.003h11.7c.42 0 .825-.163 1.13-.456.307-.294.491-.695.517-1.122l.003-.102V9.778c0-.422.336-.764.75-.764zM3.654 4.977 8.321.224a.744.744 0 0 1 1-.056l.06.056 4.667 4.753a.77.77 0 0 1 .032 1.053.74.74 0 0 1-1.031.084l-.06-.057L9.6 2.607v12.365c0 .19-.069.372-.193.512a.745.745 0 0 1-.48.248l-.077.004a.743.743 0 0 1-.503-.197.769.769 0 0 1-.243-.489l-.004-.078V2.61L4.715 6.057a.744.744 0 0 1-1 .056l-.061-.055A.77.77 0 0 1 3.6 5.039l.054-.062L8.321.224 3.654 4.977z" fill="#000"/>
</svg>
