<svg xmlns="http://www.w3.org/2000/svg" id="Group_2961" width="40" height="38.113" viewBox="0 0 40 38.113">
    <defs>
        <clipPath id="clip-path">
            <path id="Rectangle_2077" d="M0 0H40V38.113H0z" class="cls-1"/>
        </clipPath>
        <style>
            .cls-1{fill:#a4a9c3}
        </style>
    </defs>
    <g id="Group_2948" clip-path="url(#clip-path)">
        <path id="Path_2458" d="M0 22.259c.145-.681.263-1.37.44-2.043a10.739 10.739 0 0 1 1.368-3 1.421 1.421 0 0 0 .213-.715c.014-3.046.009-6.091.009-9.137A1.365 1.365 0 0 1 3.563 5.82h2.344c.432 0 .687.223.686.572s-.254.568-.689.57c-.781 0-1.562.007-2.343 0-.259 0-.376.077-.375.357.009 1.77.005 3.54.006 5.311a1.747 1.747 0 0 0 .026.193h1.909a14.147 14.147 0 0 0 3.9-.352 8.429 8.429 0 0 1 3.49-.077c.114.018.229.022.377.035V6.965H8.939c-.457 0-.727-.221-.724-.576s.242-.548.693-.569c.1 0 .2-.019.308-.03a2.851 2.851 0 0 1 3.375-3.943A2.823 2.823 0 0 1 15.389 0a2.9 2.9 0 0 1 2.517 1.85 2.762 2.762 0 0 1 2.925.86 2.8 2.8 0 0 1 .405 3.084c.174.009.32.023.467.023h5.156c1.1 0 1.606.494 1.612 1.59.009 1.653 0 3.306 0 4.959 0 .136.012.272.021.484.214-.2.365-.358.527-.5a1.339 1.339 0 0 1 2.243.549q.989 2.626 1.936 5.267a.8.8 0 0 0 .564.573 11.26 11.26 0 0 1 1.062.386.578.578 0 1 1-.387 1.085q-.738-.251-1.462-.542a1.425 1.425 0 0 1-.791-.914q-.963-2.635-1.936-5.267c-.172-.467-.247-.485-.6-.137q-7.2 7.21-14.408 14.417c-.37.37-.356.443.132.623 1.731.638 3.46 1.283 5.2 1.9a1.669 1.669 0 0 1 1.083 1.081c.628 1.749 1.278 3.489 1.921 5.232.162.438.241.455.574.121l14.442-14.437c.353-.353.339-.416-.134-.592-.426-.159-.856-.309-1.28-.471s-.591-.477-.455-.812c.129-.317.441-.421.856-.274.477.169.955.34 1.428.521A1.351 1.351 0 0 1 39.519 23q-2.243 2.258-4.5 4.5-4.971 4.97-9.949 9.934a7.282 7.282 0 0 1-.932.678h-.625a1.765 1.765 0 0 1-1.074-1.194c-.485-1.385-1.078-2.736-1.484-4.143a2.237 2.237 0 0 0-1.822-1.783.519.519 0 0 0-.542.129 10.733 10.733 0 0 1-11.75 2.259 16.048 16.048 0 0 1-2.625-1.508.6.6 0 0 1-.239-.9c.212-.285.571-.294.929-.025.042.031.08.067.122.1a9.676 9.676 0 0 0 10.314.971 8.219 8.219 0 0 0 2.258-1.565 6.332 6.332 0 0 1-.7-.269.822.822 0 0 0-.977.127 8.322 8.322 0 0 1-5.9 1.534 8.652 8.652 0 1 1 9.217-11.1c.1.342.186.689.3 1.128a4.777 4.777 0 0 1 .55-.593.748.748 0 0 0 .24-.974 9.816 9.816 0 0 0-18.813 5.563 10.511 10.511 0 0 0 1.517 3.143.58.58 0 1 1-.944.663 10.192 10.192 0 0 1-1.622-3.306c-.19-.71-.314-1.438-.468-2.158zm15.046 7.267c-.127-.057-.182-.083-.238-.106a1.36 1.36 0 0 1-.482-2.375c1.252-1.27 2.508-2.536 3.79-3.776a.965.965 0 0 0 .3-.931 7.5 7.5 0 1 0-7.891 8.38 7.256 7.256 0 0 0 4.52-1.192M17.6 12.789h9.7v-.421V7.49c0-.522 0-.525-.519-.526H17.6zm9.747 1.226H17.078c.728.692 1.493 1.428 2.271 2.15a.651.651 0 0 0 .4.152c1.678.01 3.356.008 5.034 0a.508.508 0 0 0 .323-.076c.732-.716 1.452-1.445 2.234-2.229M14.075 6.986c0 1.869 0 3.689.011 5.508 0 .1.16.294.25.3.682.025 1.365.014 2.048.014V6.986zm1.169-5.826a1.56 1.56 0 0 0-1.534 2.045 24.413 24.413 0 0 0 1.115 2.433.532.532 0 0 0 .843 0 23.748 23.748 0 0 0 1.11-2.438 1.556 1.556 0 0 0-1.534-2.04m1.7 4.657c.919 0 1.787.008 2.654-.009a.561.561 0 0 0 .35-.2 1.549 1.549 0 0 0 .293-1.668 1.573 1.573 0 0 0-1.392-1.029c-.576-.063-.779.085-.942.634a3.168 3.168 0 0 1-.12.369c-.268.614-.542 1.226-.843 1.9m-3.432 0a.572.572 0 0 0 0-.157C13.17 4.83 12.838 4 12.486 3.18a.483.483 0 0 0-.292-.209 1.539 1.539 0 0 0-1.578.414 1.535 1.535 0 0 0-.416 1.578c.1.364.25.8.665.833.876.062 1.759.019 2.644.019m7.934 14.011l2.3-2.31h-3.36l1.064 2.31M5.006 14H3.215v1.442L5.006 14" class="cls-1"/>
        <path id="Path_2459" d="M272.219 293.926a1.948 1.948 0 0 1-1.982 1.968 2.558 2.558 0 0 1-2.452-2.491 1.962 1.962 0 0 1 2.011-1.947 2.54 2.54 0 0 1 2.423 2.469m-2.445-1.3a.786.786 0 0 0-.816.915 1.41 1.41 0 0 0 1.144 1.178.794.794 0 0 0 .952-.816 1.351 1.351 0 0 0-1.28-1.276" class="cls-1" transform="translate(-246.831 -268.65)"/>
        <path id="Path_2460" d="M362.31 304.666a2.481 2.481 0 0 1-2.422-2.454 1.9 1.9 0 0 1 1.989-1.945 2.494 2.494 0 0 1 2.425 2.457 1.9 1.9 0 0 1-1.992 1.942m.832-1.965a1.364 1.364 0 0 0-1.277-1.285.791.791 0 0 0-.83.8 1.378 1.378 0 0 0 1.3 1.3.775.775 0 0 0 .8-.816" class="cls-1" transform="translate(-331.727 -276.77)"/>
        <path id="Path_2461" d="M317.719 272.1c-.138.143-.276.4-.462.447s-.436-.114-.635-.226c-.082-.046-.107-.2-.151-.308q-1.572-3.84-3.142-7.681a2.14 2.14 0 0 1-.12-.329.534.534 0 0 1 .329-.671.541.541 0 0 1 .711.234 1.781 1.781 0 0 1 .136.279q1.587 3.876 3.171 7.753c.053.131.088.269.163.5" class="cls-1" transform="translate(-288.682 -242.681)"/>
        <path id="Path_2462" d="M107.045 220.741c.074-.939.176-1.139.576-1.154s.5.166.649 1.057c.449.214.885.382 1.279.619a.579.579 0 0 1 .255.86c-.2.308-.526.331-.918.082-.181-.115-.38-.2-.647-.344 0 .937-.007 1.788.011 2.639 0 .081.15.178.249.235a6.645 6.645 0 0 1 1.177.66 2.724 2.724 0 0 1-1.016 4.484c-.122.045-.247.079-.426.135 0 .186.011.391 0 .593-.028.407-.252.64-.594.637s-.556-.239-.572-.649c-.006-.167 0-.334 0-.4-.633-.26-1.215-.465-1.766-.736a.58.58 0 0 1-.3-.869c.192-.3.5-.324.894-.124.35.179.719.321 1.176.521v-1.237c0-.689.012-1.379-.011-2.067a.6.6 0 0 0-.237-.375 4.415 4.415 0 0 0-.575-.324 1.982 1.982 0 0 1-1.09-2 2.307 2.307 0 0 1 1.469-2.08c.142-.06.288-.111.423-.163m1.225 5.192v2.806a1.627 1.627 0 0 0 1.062-1.583 1.282 1.282 0 0 0-1.062-1.223m-1.224-3.9a1.153 1.153 0 0 0-.746 1.149.87.87 0 0 0 .746.855z" class="cls-1" transform="translate(-96.689 -202.404)"/>
    </g>
</svg>
