<svg xmlns="http://www.w3.org/2000/svg" width="42" height="42" viewBox="0 0 42 42">
    <defs>
        <clipPath id="clip-path">
            <path id="Rectangle_1994" d="M0 0H27.412V18.911H0z" class="cls-1"/>
        </clipPath>
        <style>
            .cls-1{fill:#fff}
        </style>
    </defs>
    <g id="Group_379" transform="translate(-38 -117)">
        <circle id="Ellipse_87" cx="21" cy="21" r="21" fill="#4fa5fe" transform="translate(38 117)"/>
        <g id="Group_376" transform="translate(45 128.724)">
            <g id="Group_375" clip-path="url(#clip-path)">
                <path id="Path_782" d="M27.411 14.217v2.051a2.435 2.435 0 0 1-2.643 2.642H2.471A2.381 2.381 0 0 1 0 16.478Q0 9.424.015 2.37a2.525 2.525 0 0 1 .291-1.1A2.31 2.31 0 0 1 2.476 0c.57-.011 1.14 0 1.717 0h20.562a3.443 3.443 0 0 1 .864.1 2.42 2.42 0 0 1 1.792 2.507V14.217zM1.251 8.8v7.485a1.2 1.2 0 0 0 1.377 1.375h22.136a1.218 1.218 0 0 0 1.4-1.391V8.8zm.013-1.287h24.873V4.955H1.264zm24.86-3.837c0-.518.036-1.007-.011-1.488a1 1 0 0 0-.76-.862 1.937 1.937 0 0 0-.585-.071q-11.067-.005-22.134 0a2.271 2.271 0 0 0-.464.044 1 1 0 0 0-.87.831 11.818 11.818 0 0 0-.015 1.546z" class="cls-1"/>
                <path id="Path_783" d="M73.946 49.388h-2.872c-.546 0-.757-.209-.759-.753q-.005-1.84 0-3.682c0-.484.219-.72.7-.721q2.919-.01 5.838 0c.494 0 .72.242.721.74q.005 1.841 0 3.682c0 .506-.237.734-.755.735h-2.872m-2.367-1.268h4.72V45.5h-4.72z" class="cls-1" transform="translate(-53.403 -33.589)"/>
            </g>
        </g>
    </g>
</svg>
