<svg xmlns="http://www.w3.org/2000/svg" width="22" height="22" viewBox="0 0 22 22">
    <defs>
        <style>
            .cls-2{fill:none;stroke:#6f6f6f;stroke-linecap:round;stroke-linejoin:round;stroke-width:2px}
        </style>
    </defs>
    <g id="Group_2210" transform="translate(-266 -428)">
        <circle id="Ellipse_63" cx="11" cy="11" r="11" fill="#fff" transform="translate(266 428)"/>
        <g id="Icon_feather-trash-2" transform="translate(270.881 431.929)">
            <path id="Path_3491" d="M4.5 9h12.777" class="cls-2" transform="translate(-4.5 -6.161)"/>
            <path id="Path_3492" d="M17.438 5.839v9.938a1.42 1.42 0 0 1-1.42 1.42H8.92a1.42 1.42 0 0 1-1.42-1.42V5.839m2.13 0V4.42A1.42 1.42 0 0 1 11.049 3h2.839a1.42 1.42 0 0 1 1.42 1.42v1.42" class="cls-2" transform="translate(-6.08 -3)"/>
            <path id="Path_3493" d="M15 16.5v4.259" class="cls-2" transform="translate(-10.031 -10.111)"/>
            <path id="Path_3494" d="M21 16.5v4.259" class="cls-2" transform="translate(-13.192 -10.111)"/>
        </g>
    </g>
</svg>
