<svg xmlns="http://www.w3.org/2000/svg" width="58.212" height="58.213" viewBox="0 0 58.212 58.213">
    <path fill="#3dcb79" d="M32.481 3.375a29.106 29.106 0 1 0 29.106 29.106A29.1 29.1 0 0 0 32.481 3.375zm14.9 21.06L28.675 43.228h-.014a2.527 2.527 0 0 1-1.623.77 2.45 2.45 0 0 1-1.637-.8l-7.836-7.836a.558.558 0 0 1 0-.8l2.491-2.491a.541.541 0 0 1 .784 0l6.213 6.213 17.072-17.2a.553.553 0 0 1 .392-.168.508.508 0 0 1 .392.168l2.449 2.533a.552.552 0 0 1 .026.818z" transform="translate(-3.375 -3.375)"/>
</svg>
