<svg xmlns="http://www.w3.org/2000/svg" width="109" height="109.214" viewBox="0 0 109 109.214">
    <defs>
        <clipPath id="clip-path">
            <path id="Rectangle_2866" d="M0 0H109V109H0z" class="cls-1"/>
        </clipPath>
        <style>
            .cls-1{fill:#e6ecf4}
        </style>
    </defs>
    <g id="Group_3504" transform="translate(-348 -1008.786)">
        <circle id="Ellipse_158" cx="54.5" cy="54.5" r="54.5" fill="#fff" transform="translate(348 1009)"/>
        <g id="Group_3503" clip-path="url(#clip-path)" transform="translate(348 1008.786)">
            <path id="Path_6610" d="M54.5 0A54.5 54.5 0 1 0 109 54.5 54.5 54.5 0 0 0 54.5 0m.508 17.934a16.663 16.663 0 0 1 16.515 16.814 17.1 17.1 0 1 1-34.189-.02 16.71 16.71 0 0 1 17.675-16.794m1.66 75.078c-6.566.027-13.841-1.361-19.493-4.469-4.422-2.431-9.525-5.9-9.4-12.646 0 0 4.007-16.488 26.79-16.488 0 0 27.357 0 27.317 17.292-.018 7.938-11.524 16.253-25.217 16.311" class="cls-1"/>
        </g>
    </g>
</svg>
