<svg xmlns="http://www.w3.org/2000/svg" width="18" height="14.911" viewBox="0 0 18 14.911">
    <defs>
        <clipPath id="clip-path">
            <path id="Rectangle_77" d="M0 0H18V14.911H0z" class="cls-1"/>
        </clipPath>
        <style>
            .cls-1{fill:#fff}
        </style>
    </defs>
    <g id="Group_77" clip-path="url(#clip-path)">
        <path id="Path_73" d="M42.859 47.5h11.208v8.563c0 .467-.1.549-.649.549h-9.9c-.554 0-.654-.083-.654-.546v-8.231zm5.03 5.653l-.106.027c-.462-.4-.921-.812-1.388-1.212a.656.656 0 0 0-.877-.06.471.471 0 0 0 .04.761q1.2 1.063 2.427 2.111a.659.659 0 0 0 .966-.008c.378-.318.746-.645 1.118-.969.437-.38.88-.755 1.308-1.143a.476.476 0 0 0 .016-.764.648.648 0 0 0-.845.054c-.145.116-.28.241-.42.362l-1.1.95v-.481V49.9a.574.574 0 1 0-1.142.006v3.242" class="cls-1" transform="translate(-39.463 -44.226)"/>
        <path id="Path_74" d="M15.79 5.584v-2.57c0-.621-.17-.761-.878-.761q-5.877 0-11.754-.01c-.781 0-.948.139-.948.817v2.539c-.519-.021-1.028-.006-1.523-.072a.741.741 0 0 1-.681-.738Q-.007 2.767.007.744A.772.772 0 0 1 .686.038 2.193 2.193 0 0 1 1.116 0q7.869 0 15.738.01C17.69.011 18 .275 18 1v3.634c0 .634-.35.941-1.086.952-.354.006-.707 0-1.122 0" class="cls-1"/>
        <path id="Path_75" d="M42.812 194.121H54.02a8.716 8.716 0 0 1-.02 1.2c-.017.121-.257.266-.426.311a2.668 2.668 0 0 1-.665.018h-9.382c-.612 0-.713-.086-.715-.606v-.921" class="cls-1" transform="translate(-39.419 -180.749)"/>
    </g>
</svg>
