<svg xmlns="http://www.w3.org/2000/svg" width="17.054" height="15.792" viewBox="0 0 17.054 15.792">
    <g>
        <path fill="#fff" stroke="#fff" stroke-width="0.8px" d="M1827.631 128.416l-2.843-4.524v-.005l-.005-.006-.007-.006-.008-.005H1814.584a.1.1 0 0 0-.044.025l-.007.008-2.843 4.524a.1.1 0 0 0 .008.119l7.9 9.495.012.011.01.007H1819.71l.011-.007.012-.011 7.9-9.495a.1.1 0 0 0-.002-.13zm-2.924-4.272l2.652 4.22h-5.01zm-.178-.1l-2.355 4.215-2.355-4.215zm-2.53 4.318h-4.706l2.353-4.211zm-2.526-4.318l-2.355 4.215-2.355-4.215zm-4.888.1l2.358 4.22h-5.01zm-2.613 4.437h5.071l2.387 8.965zm7.674 8.989l-2.393-8.989h4.786zm2.6-8.989h5.071l-7.458 8.965z" transform="translate(.527 .511) translate(-1811.646 -123.844)"/>
    </g>
</svg>
