<svg xmlns="http://www.w3.org/2000/svg" id="Group_94" width="13.163" height="14.997" viewBox="0 0 13.163 14.997">
    <defs>
        <clipPath id="clip-path">
            <path id="Rectangle_124" d="M0 0H13.163V14.997H0z" class="cls-1"/>
        </clipPath>
        <style>
            .cls-1{fill:#48a2ff}
        </style>
    </defs>
    <g id="Group_93" clip-path="url(#clip-path)">
        <path id="Path_81" d="M.283 93.587c-.1-.213-.279-.424-.282-.638A5.724 5.724 0 0 1 5.4 87.4a13.846 13.846 0 0 1 3.37.17 5.5 5.5 0 0 1 4.3 4.651.618.618 0 0 0 .091.166v1.2z" class="cls-1" transform="translate(0 -78.59)"/>
        <path id="Path_82" d="M29.777 7.9A3.948 3.948 0 1 1 29.9 0a3.948 3.948 0 1 1-.118 7.9" class="cls-1" transform="translate(-23.251 -.001)"/>
    </g>
</svg>
