<svg xmlns="http://www.w3.org/2000/svg" id="Group_2961" width="141" height="123.906" viewBox="0 0 141 123.906">
    <defs>
        <clipPath id="clip-path">
            <path id="Rectangle_2083" d="M0 0H141V123.906H0z" class="cls-1"/>
        </clipPath>
        <style>
            .cls-1{fill:#a4a9c3}
        </style>
    </defs>
    <g id="Group_2960" clip-path="url(#clip-path)">
        <path id="Path_2477" d="M37.737 0c1.91.427 3.827.825 5.728 1.289a28.684 28.684 0 0 1 9.49 4.548 2.064 2.064 0 0 1 .7 2.979 2.024 2.024 0 0 1-3.034.368A28.577 28.577 0 0 0 37.9 4.347 26.76 26.76 0 0 0 16.8 10.7a27.464 27.464 0 0 0-1.755 40.261 26.656 26.656 0 0 0 19.5 8.181q11.427.012 22.853 0h1.614a10.49 10.49 0 0 0-.72-.95c-1.225-1.24-2.468-2.464-3.7-3.7-1.444-1.449-1.486-2.378-.059-3.872a26.7 26.7 0 0 0 6.972-13.046 27.225 27.225 0 0 0-3.48-20.474c-.166-.275-.352-.537-.512-.815-.751-1.3-.546-2.462.542-3.107a2.094 2.094 0 0 1 2.933.9 30.361 30.361 0 0 1 4.254 9.484c.4 1.6.66 3.228 1.021 5.028 2.035 0 4.136.062 6.231-.018a5.848 5.848 0 0 1 4.662 1.925C78.713 32.109 80.3 33.7 81.67 35.1a35.751 35.751 0 0 1 5.23-2.074 9.219 9.219 0 0 1 10.351 4.956 1.993 1.993 0 0 0 2.1 1.273c4.221-.064 8.443-.025 12.665-.026a2.294 2.294 0 0 1 2.417 1.21c.653 1.431-.283 2.839-2.028 2.893-2.338.072-4.68.026-7.02.029-1.79 0-3.582.054-5.368-.019-1.107-.045-1.641.177-1.926 1.436a9.679 9.679 0 0 1-9.375 7.47 9.57 9.57 0 0 1-9.4-7.418c-.354-1.637.037-3.429.023-5.149a2.813 2.813 0 0 0-.385-1.517 13.478 13.478 0 0 0-1.624-1.677c-4.232-4.228-4.747-4.4-10.593-3.7-.91 3.583-1.461 7.2-2.773 10.51-1.3 3.274-3.361 6.244-5.3 9.719.765.694 1.866 1.658 2.927 2.664a4.177 4.177 0 0 1 1.205 4.989 4.3 4.3 0 0 1-4.421 2.615c-7.572-.032-15.144-.013-22.715-.013h-1.745v15.783h1.529q16.727 0 33.453.007a7.062 7.062 0 0 1 1.769.161 2.007 2.007 0 0 1-.286 3.913 13.2 13.2 0 0 1-1.65.049H6.917a4.221 4.221 0 0 0-1.1.018c-.534.149-1.294.288-1.477.665a1.884 1.884 0 0 0 .418 1.549c2.917 3.657 5.889 7.271 8.844 10.9 5.91 7.254 11.841 14.492 17.708 21.781a3.978 3.978 0 0 0 3.458 1.694q48.941-.075 97.882-.038h1.916c-1.9-2.34-3.606-4.461-5.326-6.574q-11.724-14.405-23.44-28.823a2.933 2.933 0 0 0-2.57-1.191c-7.3.038-14.593.02-21.889.018a10.556 10.556 0 0 1-1.374-.042 1.876 1.876 0 0 1-1.737-1.825 1.812 1.812 0 0 1 1.4-2.086 6.574 6.574 0 0 1 1.767-.17c7.388-.01 14.777.026 22.165-.026a6.342 6.342 0 0 1 5.326 2.569q13.413 16.583 26.9 33.1c.275.338.572.658 1.078 1.236v-1.627-68.678c0-2.13-.141-2.274-2.255-2.276-3.579 0-7.159 0-10.738-.005a9.183 9.183 0 0 1-1.507-.1 1.846 1.846 0 0 1-1.631-2.049 1.781 1.781 0 0 1 1.656-1.88 27.363 27.363 0 0 1 2.883-.1c3.029-.011 6.06.078 9.085-.026 3.268-.113 5.626 1 6.637 4.291v79.009a2.854 2.854 0 0 1-2.611 1.4q-52.308-.044-104.616-.012a5.986 5.986 0 0 1-4.989-2.382Q18.665 108.993 8.462 96.541C6.144 93.7 3.81 90.865 1.511 88.006c-1.813-2.255-2-4.64-.535-6.709a5.559 5.559 0 0 1 4.914-2.245q11.012.012 22.025 0h1.576a2.814 2.814 0 0 0 .156-.551c.009-4.908 0-9.816.031-14.725.006-.821-.42-.944-1.083-1.068a29.537 29.537 0 0 1-14.324-6.886C4.857 47.549 1.145 37.08 3.783 24.9 6.452 12.564 14.377 4.7 26.481 1.106 28.09.629 29.761.364 31.4 0zM83.1 42.413a5.6 5.6 0 1 0 5.516-5.523 5.6 5.6 0 0 0-5.516 5.523" class="cls-1"/>
        <path id="Path_2478" d="M95.737 76.408c1.668 1.537 3.247 2.759 4.542 4.23a6.107 6.107 0 0 1-3.354 10.105 5.881 5.881 0 0 1-5.664-1.716c-1.307-1.28-2.546-2.63-4.169-4.316a59 59 0 0 1-4.283 4.665 6.109 6.109 0 0 1-9.964-3.11 6.023 6.023 0 0 1 1.7-6.056c1.285-1.3 2.6-2.565 4.059-4-1.415-1.352-2.73-2.553-3.982-3.818a6.18 6.18 0 1 1 8.548-8.925c1.368 1.274 2.6 2.7 4.085 4.257 1.351-1.434 2.509-2.731 3.74-3.955 2.694-2.681 6.434-2.812 8.968-.357 2.6 2.516 2.555 6.271-.152 9.067-1.208 1.248-2.5 2.416-4.072 3.927m2.306-8.7c-.588-.647-1-1.482-1.6-1.652a2.733 2.733 0 0 0-2.221.427c-1.852 1.64-3.525 3.479-5.305 5.2a2.08 2.08 0 0 1-3.356-.027c-1.668-1.641-3.3-3.316-4.975-4.953-1.131-1.107-2.375-1.18-3.257-.246-.84.889-.727 2.067.341 3.149 1.579 1.6 3.186 3.174 4.764 4.774 1.393 1.412 1.4 2.362.022 3.77-1.542 1.572-3.117 3.113-4.668 4.676-1.206 1.215-1.337 2.425-.385 3.343s2.063.8 3.255-.375c1.6-1.575 3.177-3.182 4.775-4.764 1.3-1.291 2.329-1.295 3.659.011 1.6 1.575 3.177 3.182 4.776 4.763 1.175 1.163 2.3 1.269 3.24.334s.832-2.073-.329-3.253c-1.608-1.636-3.25-3.239-4.861-4.872-1.2-1.213-1.2-2.241-.024-3.439 1.61-1.634 3.267-3.223 4.85-4.883a13.8 13.8 0 0 0 1.3-1.986" class="cls-1" transform="translate(-52.585 -44.649)"/>
        <path id="Path_2479" d="M397.58 85.288a8.124 8.124 0 0 1-8.111-8.017 8.292 8.292 0 0 1 8.132-8.213 8.142 8.142 0 0 1 8.109 8.168 7.952 7.952 0 0 1-8.13 8.063m.081-4.131a3.854 3.854 0 0 0 3.916-3.912 3.974 3.974 0 0 0-3.984-4.036 4.127 4.127 0 0 0-3.98 3.969 3.978 3.978 0 0 0 4.048 3.979" class="cls-1" transform="translate(-282.012 -50.004)"/>
        <path id="Path_2480" d="M343.011 46.26c-1.781-2.235-1.97-3.082-.911-4.083 1-.948 2.009-.694 3.951 1.058 1.2-.978 2.377-2.61 4.125-.92 1.008.974.73 1.859-1.065 3.935.916 1.175 2.645 2.354.938 4-1.59 1.532-2.8.042-3.937-.936-2.163 1.689-3.128 1.9-4.069.926-.992-1.027-.79-1.857.968-3.979" class="cls-1" transform="translate(-247.241 -30.11)"/>
        <path id="Path_2481" d="M31.659 229.131a23.455 23.455 0 0 1 1.6-2.009c1.056-1.048 2.305-1.132 3.164-.3.93.9.847 2.1-.3 3.255-.513.517-1.126.935-1.943 1.6.831.689 1.439 1.115 1.951 1.634 1.137 1.15 1.215 2.351.277 3.254-.867.834-2.111.744-3.16-.31a24.3 24.3 0 0 1-1.6-2.036c-.81.958-1.287 1.633-1.873 2.193a2.106 2.106 0 0 1-3.065.1 2.03 2.03 0 0 1 .108-2.957c.558-.6 1.219-1.108 2.058-1.858-.762-.683-1.4-1.186-1.961-1.77a2.043 2.043 0 0 1-.2-3.05 2.088 2.088 0 0 1 3.062.1c.565.531 1.029 1.17 1.881 2.155" class="cls-1" transform="translate(-18.914 -163.832)"/>
    </g>
</svg>
