<svg xmlns="http://www.w3.org/2000/svg" id="Group_500" width="39.103" height="39.048" viewBox="0 0 39.103 39.048">
    <defs>
        <linearGradient id="linear-gradient" x1=".5" x2=".5" y2="1" gradientUnits="objectBoundingBox">
            <stop offset="0" stop-color="#c3e1fe"/>
            <stop offset="1" stop-color="#53a6fe"/>
        </linearGradient>
        <clipPath id="clip-path">
            <path id="Rectangle_2050" d="M0 0H39.103V39.048H0z" class="cls-1"/>
        </clipPath>
        <style>
            .cls-1{fill:url(#linear-gradient)}
        </style>
    </defs>
    <g id="Group_499" clip-path="url(#clip-path)">
        <path id="Path_878" d="M18.549 0h2a1.53 1.53 0 0 0 .221.044A19.494 19.494 0 0 1 39 17.819c.034.425.071.851.106 1.276v1.486c-.017.092-.04.183-.051.276-.086.7-.132 1.4-.26 2.1a18.994 18.994 0 0 1-6.155 11.009 19.02 19.02 0 0 1-16.568 4.76 18.9 18.9 0 0 1-11.841-7.1A19.013 19.013 0 0 1 .16 22c-.06-.47-.107-.943-.16-1.414v-2.52c.018-.092.039-.183.054-.275.145-.9.231-1.816.442-2.7A19.641 19.641 0 0 1 17.047.167c.5-.065 1-.111 1.5-.166m.994 29.81A10.286 10.286 0 1 0 9.24 19.245a10.32 10.32 0 0 0 10.3 10.566M6.536 8.21a17.146 17.146 0 0 0-4.21 10.148c.1.011.143.02.19.02 1.421 0 2.842 0 4.262.006.223 0 .24-.117.257-.282a11.918 11.918 0 0 1 1.581-4.814c.367-.63.8-1.22 1.2-1.814L6.536 8.21m11.848 28.508c.01-.1.02-.15.02-.2 0-1.41 0-2.82.006-4.23 0-.246-.142-.246-.307-.265a12.355 12.355 0 0 1-5.261-1.86c-.465-.295-.9-.629-1.315-.917l-3.3 3.283a17.266 17.266 0 0 0 10.157 4.194M32.562 8.207l-3.3 3.288a.081.081 0 0 0 .012.035c.033.046.07.09.105.135a12.427 12.427 0 0 1 2.674 6.446c.026.229.121.273.327.272 1.363-.007 2.726 0 4.09 0 .091 0 .181-.01.293-.016a17.224 17.224 0 0 0-4.201-10.16M9.837 27.559a.135.135 0 0 0-.015-.041c-.021-.031-.046-.06-.07-.09a12.289 12.289 0 0 1-2.711-6.488c-.025-.222-.11-.278-.323-.277-1.363.009-2.727 0-4.09.005-.091 0-.181.012-.3.02A17.176 17.176 0 0 0 6.536 30.84l3.3-3.28m10.883 9.16a17.329 17.329 0 0 0 10.153-4.193l-3.283-3.259c-.665.43-1.33.913-2.043 1.309a12.065 12.065 0 0 1-4.6 1.447c-.165.018-.252.065-.251.259.008 1.419 0 2.839.005 4.258 0 .046.01.091.021.18m11.845-5.888a17.174 17.174 0 0 0 4.2-10.13.571.571 0 0 0-.075-.023c-1.468 0-2.935-.005-4.4-.014-.2 0-.206.118-.221.256a12.239 12.239 0 0 1-1.882 5.329c-.29.455-.616.887-.908 1.3l3.289 3.277M8.218 6.529l3.307 3.294c.012-.008.044-.028.073-.052a12.28 12.28 0 0 1 6.54-2.744c.2-.022.273-.087.272-.3-.009-1.38 0-2.76-.006-4.141 0-.073-.011-.147-.02-.259a17.27 17.27 0 0 0-10.166 4.2m22.658 0A17.247 17.247 0 0 0 20.72 2.33c-.01.088-.021.134-.021.18 0 1.419 0 2.839-.006 4.258 0 .249.148.242.311.261a11.9 11.9 0 0 1 4.867 1.623c.6.362 1.172.776 1.716 1.14l3.289-3.262" class="cls-1" transform="translate(0 -.001)"/>
        <path id="Path_879" d="M283.688 201.414h2.293v.8c0 .467.009.934 0 1.4a.353.353 0 0 0 .244.384 3.345 3.345 0 0 1 2.032 2.942 1.761 1.761 0 0 1-.008.18h-1.289c-.114 0-.23-.009-.343 0-.373.034-.653.033-.77-.469a1.024 1.024 0 0 0-1.222-.651 1.136 1.136 0 0 0-.085 2.218 2.293 2.293 0 0 0 .425.051 3.427 3.427 0 0 1 1.247 6.561.328.328 0 0 0-.233.358c.01.723 0 1.446 0 2.2h-2.293v-1.393a2.32 2.32 0 0 0-.033-.956c-.118-.233-.5-.327-.745-.5a3.376 3.376 0 0 1-1.507-2.821c.1-.007.186-.017.268-.018.458 0 .916.013 1.373-.005.372-.015.654-.036.768.471a1.026 1.026 0 0 0 1.222.652 1.134 1.134 0 0 0 .119-2.207 2.483 2.483 0 0 0-.508-.065 3.416 3.416 0 0 1-1.239-6.523.4.4 0 0 0 .288-.442c-.015-.609-.005-1.219-.005-1.828z" class="cls-1" transform="translate(-265.284 -189.883)"/>
    </g>
</svg>
