<svg xmlns="http://www.w3.org/2000/svg" width="15.747" height="13.5" viewBox="0 0 15.747 13.5">
    <defs>
        <style>
            .cls-1{fill:#797979}
        </style>
    </defs>
    <g id="Group_2728" transform="translate(-559.252 -345)">
        <g id="Icon_ionic-ios-eye-off" transform="translate(557 340.501)">
            <path id="Path_4387" d="M5.357 4.644a.5.5 0 0 0-.707.707l12.5 12.5a.5.5 0 0 0 .482.127.487.487 0 0 0 .225-.13.5.5 0 0 0 0-.7z" class="cls-1" transform="translate(-1.127)"/>
            <g id="Group_2727" transform="translate(2.252 6.187)">
                <path id="Path_4388" d="M10.273 17.926a3.161 3.161 0 0 1-3.006-4.514L5.39 11.531a24.66 24.66 0 0 0-2.99 2.858.556.556 0 0 0 0 .749c2.282 2.521 4.293 4.69 7.724 4.69a6.769 6.769 0 0 0 2.893-.675l-1.529-1.529a3.194 3.194 0 0 1-1.215.302z" class="cls-1" transform="translate(-2.252 -9.703)"/>
                <path id="Path_4389" d="M22.837 13.289a.551.551 0 0 0 .018-.728c-1.839-2.232-4.387-4.686-7.752-4.686a6.581 6.581 0 0 0-2.883.668l1.536 1.536a3.1 3.1 0 0 1 1.206-.3 3.161 3.161 0 0 1 3.006 4.514l1.881 1.881a23.254 23.254 0 0 0 2.988-2.885z" class="cls-1" transform="translate(-7.236 -7.875)"/>
                <path id="Path_4390" d="M13.508 17.518a2.259 2.259 0 0 0 2.071 2.071 2.2 2.2 0 0 0 .821-.089l-2.8-2.808a2.3 2.3 0 0 0-.092.826z" class="cls-1" transform="translate(-7.877 -12.284)"/>
                <path id="Path_4391" d="M21.748 17.863v-.137a1.559 1.559 0 0 1-.64.137h-.109l.654.657a2.248 2.248 0 0 0 .095-.657z" class="cls-1" transform="translate(-11.624 -12.8)"/>
                <path id="Path_4392" d="M17.35 14.1a1.652 1.652 0 0 1 .109-.594h-.109a2.224 2.224 0 0 0-.65.1l.657.657c-.004-.063-.007-.113-.007-.163z" class="cls-1" transform="translate(-9.476 -10.688)"/>
            </g>
        </g>
    </g>
</svg>
