<svg xmlns="http://www.w3.org/2000/svg" id="Group_490" width="18.969" height="20.886" viewBox="0 0 18.969 20.886">
    <defs>
        <clipPath id="clip-path">
            <path id="Rectangle_1983" d="M0 0H18.969V20.886H0z" class="cls-1"/>
        </clipPath>
        <style>
            .cls-1{fill:#6b7088}
        </style>
    </defs>
    <g id="Group_365" clip-path="url(#clip-path)">
        <path id="Path_765" d="M8.789 20.886c-2.475-1.386-4.97-2.746-7.413-4.192a2.8 2.8 0 0 1-1.351-2.46C0 11.711-.013 9.187.026 6.664A2.966 2.966 0 0 1 1.58 4.1Q4.74 2.22 7.948.42a3 3 0 0 1 3.059 0q3.208 1.8 6.369 3.678a3.067 3.067 0 0 1 1.57 2.7q.045 3.681 0 7.363a3.008 3.008 0 0 1-1.528 2.649c-2.066 1.232-4.158 2.42-6.244 3.617-.316.181-.662.309-.994.461zM1.618 10.408c0 1.134.007 2.269 0 3.4a1.871 1.871 0 0 0 1 1.77c1.966 1.127 3.926 2.265 5.888 3.4a1.811 1.811 0 0 0 1.913.022q2.979-1.707 5.948-3.434a1.852 1.852 0 0 0 .985-1.714q-.006-3.368 0-6.736A1.938 1.938 0 0 0 16.29 5.3c-1.908-1.088-3.806-2.2-5.706-3.3a2.022 2.022 0 0 0-2.17-.016Q5.534 3.66 2.648 5.321a1.908 1.908 0 0 0-1.035 1.823c.019 1.088 0 2.176.005 3.264" class="cls-1"/>
        <path id="Path_766" d="M50.14 40.621a10.416 10.416 0 0 1 1.365.326 2.192 2.192 0 0 1 1.109 3.485 6.394 6.394 0 0 1-1.094 1.149 1.832 1.832 0 0 0-.79 1.534c.034.619-.31.873-.905.853s-.729-.377-.737-.88a2.731 2.731 0 0 1 1.048-2.308 5.072 5.072 0 0 0 .948-.906.933.933 0 0 0-.687-1.536 1.492 1.492 0 0 0-1.689.655.633.633 0 0 1-1 .252 1.228 1.228 0 0 1-.358-.99 1.983 1.983 0 0 1 1.506-1.394 10.262 10.262 0 0 1 1.281-.24" class="cls-1" transform="translate(-40.719 -34.939)"/>
        <path id="Path_767" d="M60.018 101.319a1.075 1.075 0 1 1-2.15.041 1.075 1.075 0 1 1 2.15-.041" class="cls-1" transform="translate(-49.773 -86.235)"/>
    </g>
</svg>
