<svg xmlns="http://www.w3.org/2000/svg" id="Group_2990" width="23.138" height="23.184" viewBox="0 0 23.138 23.184">
    <defs>
        <clipPath id="clip-path">
            <path id="Rectangle_2098" d="M0 0H23.138V23.184H0z" class="cls-1"/>
        </clipPath>
        <style>
            .cls-1{fill:#a4a9c3}
        </style>
    </defs>
    <g id="Group_2989" clip-path="url(#clip-path)">
        <path id="Path_2501" d="M12.293 0c.431.059.866.1 1.293.18a11.415 11.415 0 0 1 7.664 5.071 10.782 10.782 0 0 1 1.872 6.685 11.166 11.166 0 0 1-6.657 10.072 10.95 10.95 0 0 1-10.822-.54A11.261 11.261 0 0 1 .1 13.088c-.04-.267-.066-.535-.1-.8v-1.449c.051-.386.088-.774.154-1.158a11.384 11.384 0 0 1 3.177-6.224A11.347 11.347 0 0 1 9.576.178C10 .1 10.423.059 10.846 0zm9.762 11.569A10.485 10.485 0 1 0 11.55 22.04a10.5 10.5 0 0 0 10.5-10.471" class="cls-1"/>
        <path id="Path_2502" d="M172.623 133.724a4.269 4.269 0 0 1-1.9-.434 3.492 3.492 0 0 1-.783-.53 1.039 1.039 0 0 1-.175-1.427 2.658 2.658 0 0 1 .788-.77 3.362 3.362 0 0 1-.358-.746c-.047.034-.1.067-.146.1l-.068.041a3.5 3.5 0 0 1-.6.314.751.751 0 0 1-.623-.009.788.788 0 0 1-.386-.528 2.249 2.249 0 0 1 0-1.134 10.627 10.627 0 0 1 1.362-3.378.054.054 0 0 0 .006-.014 18.289 18.289 0 0 1 .184-2.309 5.34 5.34 0 0 1 .459-1.728 5.2 5.2 0 0 1 3.446-2.8 5.677 5.677 0 0 1 4.989.879 5.024 5.024 0 0 1 1.822 2.426 10.358 10.358 0 0 1 .58 3.537.223.223 0 0 0 0 .036 8.671 8.671 0 0 1 1.256 3.055 8.918 8.918 0 0 1 .151 1 .85.85 0 0 1-1.258.971 2.482 2.482 0 0 1-.645-.351l-.33.667c.038.019.077.04.115.062a1.391 1.391 0 0 1 .036 2.452 3.711 3.711 0 0 1-1.528.471 6.727 6.727 0 0 1-2.257-.05 4.03 4.03 0 0 1-.836-.294 1.086 1.086 0 0 0-.84-.029l-.216.07a10.623 10.623 0 0 1-1.267.355 5.181 5.181 0 0 1-.984.1m-2.186-4.743l.123.321.084.226a2.526 2.526 0 0 0 .482.917l.22.23-.315.2-.1.066a2.3 2.3 0 0 0-.721.67.526.526 0 0 0 .082.76 2.961 2.961 0 0 0 .664.449 3.972 3.972 0 0 0 2.556.293 10.236 10.236 0 0 0 1.2-.339l.217-.071a1.614 1.614 0 0 1 1.218.052 3.527 3.527 0 0 0 .728.258 6.236 6.236 0 0 0 2.086.042 3.139 3.139 0 0 0 1.317-.4.87.87 0 0 0-.03-1.556c-.065-.038-.139-.072-.21-.105l-.106-.05-.236-.115.88-1.78.258.266a1.915 1.915 0 0 0 .721.465c.213.079.382.087.465.022s.115-.227.092-.448a8.245 8.245 0 0 0-.141-.943 8.15 8.15 0 0 0-1.186-2.886.555.555 0 0 1-.085-.316 9.846 9.846 0 0 0-.549-3.361 4.511 4.511 0 0 0-1.634-2.179 5.177 5.177 0 0 0-4.549-.8 4.694 4.694 0 0 0-3.115 2.53 4.865 4.865 0 0 0-.408 1.561 17.866 17.866 0 0 0-.18 2.245.559.559 0 0 1-.088.3 10.124 10.124 0 0 0-1.293 3.217 1.742 1.742 0 0 0-.009.876.315.315 0 0 0 .12.2.279.279 0 0 0 .2-.016 3.074 3.074 0 0 0 .51-.271l.069-.042a2.742 2.742 0 0 0 .251-.181c.042-.033.086-.067.133-.1zm-.694-3.775z" class="cls-1" transform="translate(-163.902 -115.052)"/>
        <path id="Path_2503" d="M167.75 128.969a4.409 4.409 0 0 1-1.959-.447 3.622 3.622 0 0 1-.812-.55 1.173 1.173 0 0 1-.2-1.594 2.672 2.672 0 0 1 .72-.736 3.375 3.375 0 0 1-.244-.509l-.015.009-.067.041a3.606 3.606 0 0 1-.623.325.877.877 0 0 1-.728-.016.914.914 0 0 1-.452-.61 2.375 2.375 0 0 1 0-1.2 10.777 10.777 0 0 1 1.364-3.395 18.62 18.62 0 0 1 .185-2.293 5.461 5.461 0 0 1 .471-1.77 5.323 5.323 0 0 1 3.53-2.871 5.8 5.8 0 0 1 5.1.9 5.152 5.152 0 0 1 1.869 2.488 10.481 10.481 0 0 1 .588 3.574 8.825 8.825 0 0 1 1.256 3.07 9.036 9.036 0 0 1 .153 1.017.978.978 0 0 1-1.433 1.107 2.649 2.649 0 0 1-.551-.279l-.206.417.009.005a1.521 1.521 0 0 1 .038 2.676 3.833 3.833 0 0 1-1.581.489 6.85 6.85 0 0 1-2.3-.052 4.155 4.155 0 0 1-.863-.3.953.953 0 0 0-.745-.023l-.215.07a10.722 10.722 0 0 1-1.282.359 5.333 5.333 0 0 1-1.009.1m-2.366-4.244l.06.161a3.236 3.236 0 0 0 .343.717l.074.109-.109.073a2.545 2.545 0 0 0-.75.731.908.908 0 0 0 .152 1.261 3.358 3.358 0 0 0 .753.51 4.15 4.15 0 0 0 1.844.421 5.071 5.071 0 0 0 .959-.1 10.526 10.526 0 0 0 1.251-.351l.216-.07a1.208 1.208 0 0 1 .934.035 3.9 3.9 0 0 0 .809.285 6.6 6.6 0 0 0 2.215.048 3.589 3.589 0 0 0 1.475-.452 1.261 1.261 0 0 0-.034-2.228c-.032-.019-.067-.038-.107-.058l-.116-.058.458-.926.126.1a2.357 2.357 0 0 0 .611.333.834.834 0 0 0 .842-.036.848.848 0 0 0 .241-.8 8.792 8.792 0 0 0-.148-.987 8.543 8.543 0 0 0-1.237-3.009l-.016-.023v-.028a.354.354 0 0 1 0-.058 10.231 10.231 0 0 0-.572-3.493 4.9 4.9 0 0 0-1.775-2.364 5.552 5.552 0 0 0-4.879-.859 5.072 5.072 0 0 0-3.363 2.734 5.223 5.223 0 0 0-.446 1.687 18.182 18.182 0 0 0-.183 2.292v.026a.183.183 0 0 1-.024.06 10.5 10.5 0 0 0-1.345 3.337 2.122 2.122 0 0 0-.006 1.07.662.662 0 0 0 .32.446.624.624 0 0 0 .518 0 3.406 3.406 0 0 0 .578-.3l.068-.041c.043-.026.088-.056.138-.092zM167.753 128.448a3.885 3.885 0 0 1-1.73-.394 3.094 3.094 0 0 1-.693-.469.654.654 0 0 1-.1-.927 2.421 2.421 0 0 1 .761-.71l.1-.064.184-.117-.11-.115a2.622 2.622 0 0 1-.51-.962c-.025-.069-.054-.148-.084-.224l-.062-.16-.138.1c-.045.034-.089.067-.13.1a2.838 2.838 0 0 1-.264.19l-.069.042a3.163 3.163 0 0 1-.532.282.38.38 0 0 1-.308.009.422.422 0 0 1-.187-.283 1.868 1.868 0 0 1 .008-.94 10.249 10.249 0 0 1 1.311-3.257.431.431 0 0 0 .068-.225 17.966 17.966 0 0 1 .181-2.262 4.984 4.984 0 0 1 .421-1.6 4.82 4.82 0 0 1 3.2-2.6 5.3 5.3 0 0 1 4.659.82 4.639 4.639 0 0 1 1.681 2.241 9.974 9.974 0 0 1 .556 3.4.429.429 0 0 0 .062.243 8.6 8.6 0 0 1 1.349 3.889.614.614 0 0 1-.141.565.624.624 0 0 1-.591 0 2.045 2.045 0 0 1-.77-.5l-.129-.133-.74 1.5.118.058.1.048a2.45 2.45 0 0 1 .222.111 1 1 0 0 1 .031 1.78 3.261 3.261 0 0 1-1.37.416 6.358 6.358 0 0 1-2.129-.044 3.652 3.652 0 0 1-.755-.267 1.489 1.489 0 0 0-1.123-.046l-.217.07a10.325 10.325 0 0 1-1.22.343 4.782 4.782 0 0 1-.908.09m-2.128-4.558l.185.481.085.228a2.434 2.434 0 0 0 .453.871l.33.345-.452.288-.1.063a2.18 2.18 0 0 0-.682.63.4.4 0 0 0 .058.593 2.828 2.828 0 0 0 .634.429 3.845 3.845 0 0 0 2.474.282 10.136 10.136 0 0 0 1.188-.335l.218-.071a1.739 1.739 0 0 1 1.313.057 3.406 3.406 0 0 0 .7.249 6.114 6.114 0 0 0 2.044.04 3.018 3.018 0 0 0 1.264-.379.775.775 0 0 0 .354-.394.765.765 0 0 0-.382-.938c-.059-.035-.13-.067-.2-.1l-.109-.051-.355-.173 1.021-2.064.387.4a1.785 1.785 0 0 0 .672.433c.219.081.32.057.34.042s.063-.13.042-.331a8.117 8.117 0 0 0-.139-.928 8.022 8.022 0 0 0-1.166-2.841.682.682 0 0 1-.108-.389 9.719 9.719 0 0 0-.541-3.317 4.382 4.382 0 0 0-1.587-2.117 5.051 5.051 0 0 0-4.439-.78 4.569 4.569 0 0 0-3.031 2.461 4.747 4.747 0 0 0-.4 1.519 17.758 17.758 0 0 0-.179 2.229.693.693 0 0 1-.109.367 10 10 0 0 0-1.276 3.176 1.615 1.615 0 0 0-.01.811.288.288 0 0 0 .054.118.245.245 0 0 0 .1-.021 2.979 2.979 0 0 0 .488-.26l.069-.042a2.653 2.653 0 0 0 .239-.173c.041-.032.087-.068.135-.1z" class="cls-1" transform="translate(-159.03 -110.166)"/>
    </g>
</svg>
