<svg xmlns="http://www.w3.org/2000/svg" id="Group_492" width="25.992" height="23.842" viewBox="0 0 25.992 23.842">
    <defs>
        <clipPath id="clip-path">
            <path id="Rectangle_1985" d="M0 0H25.992V23.842H0z" class="cls-1"/>
        </clipPath>
        <style>
            .cls-1{fill:#6b7088}
        </style>
    </defs>
    <g id="Group_369" clip-path="url(#clip-path)">
        <path id="Path_771" d="M0 1.545A2.953 2.953 0 0 1 2.987 0C8.98.043 14.973.019 20.966.019c1.714 0 2.121.284 2.8 1.84a.941.941 0 0 0 .568.383 1.991 1.991 0 0 1 .979 3.436 4.479 4.479 0 0 0-1.543 4.09c.106 2.009.033 4.028.023 6.042-.009 1.791-.8 2.582-2.59 2.585-4.667.009-9.335.016-14-.011a2.169 2.169 0 0 0-1.742.7C3.9 20.7 2.284 22.26.692 23.841H0zm15.646 8.211H6.641a1.852 1.852 0 0 1-.684-.034 2.209 2.209 0 0 1-.534-.471 2.428 2.428 0 0 1 .547-.558 1.619 1.619 0 0 1 .682-.031c3.057 0 6.113.014 9.17-.019a1.8 1.8 0 0 0 1.135-.413c1.825-1.761 3.609-3.564 5.4-5.364a.972.972 0 0 0-.5-1.7 3.023 3.023 0 0 0-.687-.048H2.657c-1.258 0-1.581.329-1.581 1.588v18.406c0 .213.027.425.054.819 1.384-1.384 2.662-2.622 3.887-3.909a2.169 2.169 0 0 1 1.736-.734c4.844.031 9.689.018 14.533.014 1.076 0 1.411-.326 1.414-1.373q.012-3.413 0-6.827a5.153 5.153 0 0 0-.106-.669 28.914 28.914 0 0 0-2.322 2.392 5.7 5.7 0 0 1-4.156 2.112c-.8.092-1.014-.087-.886-.883.116-.727.266-1.448.424-2.3m5.932-4.594c-1.572 1.57-3.183 3.092-4.673 4.725-.376.412-.364 1.177-.585 1.979.831-.262 1.546-.283 1.942-.649 1.627-1.5 3.157-3.107 4.759-4.711l-1.451-1.341m2.387.728a11.382 11.382 0 0 0 .835-1.857c.045-.173-.522-.737-.692-.692a10.42 10.42 0 0 0-1.748.8l1.609 1.748" class="cls-1"/>
        <path id="Path_772" d="M37.575 31.179c1.842 0 3.684-.024 5.524.023.32.008.882.3.9.494.055.6-.489.578-.926.578-3.654 0-7.309.016-10.963-.024-.336 0-.668-.352-1-.541.343-.177.682-.5 1.03-.506 1.811-.052 3.625-.024 5.437-.024" class="cls-1" transform="translate(-25.693 -25.745)"/>
        <path id="Path_773" d="M35.106 69.458h-2.849c-.411 0-.928.014-.848-.542.031-.213.577-.492.894-.5q2.848-.07 5.7 0c.3.008.6.35.893.537-.284.168-.559.462-.852.48-.975.061-1.956.023-2.934.023" class="cls-1" transform="translate(-25.934 -56.477)"/>
    </g>
</svg>
