<svg xmlns="http://www.w3.org/2000/svg" id="Group_496" width="18" height="14.9" viewBox="0 0 18 14.9">
    <defs>
        <clipPath id="clip-path">
            <path id="Rectangle_78" d="M0 0H18V14.9H0z" class="cls-1"/>
        </clipPath>
        <style>
            .cls-1{fill:#f7a83e}
        </style>
    </defs>
    <g id="Group_80" clip-path="url(#clip-path)">
        <path id="Path_76" d="M43.484 56.612h9.983c.511 0 .611-.091.612-.547V47.5h-11.19c-.007.1-.017.163-.017.229v8.4c0 .381.13.479.611.479m1.982-4.861a.69.69 0 0 1 .2-.249q1.182-1.034 2.372-2.061a.663.663 0 0 1 .994-.007q1.209 1.035 2.4 2.086a.478.478 0 0 1 .065.762.661.661 0 0 1-.905-.061 15.414 15.414 0 0 0-1.478-1.181v3.341a.566.566 0 0 1-.574.52.578.578 0 0 1-.566-.619V51.037l-.1-.037c-.476.42-.949.843-1.429 1.26a.625.625 0 0 1-.753.092.454.454 0 0 1-.22-.6" class="cls-1" transform="translate(-39.474 -44.229)"/>
        <path id="Path_77" d="M18 1.025c0-.752-.3-1.014-1.154-1.014L1.149 0a2.609 2.609 0 0 0-.314.014C.313.078.008.365.006.82Q0 2.774 0 4.728a.873.873 0 0 0 .959.853c.393.014.787 0 1.247 0V3.053c0-.674.167-.811.956-.811q5.922.009 11.838.011c.575 0 .788.167.79.666v2.665c.434 0 .8.007 1.169 0C17.644 5.567 18 5.251 18 4.659V1.025" class="cls-1"/>
        <path id="Path_78" d="M42.824 194.131v.921c0 .52.1.606.715.606h9.735a1.115 1.115 0 0 0 .425-.035c.133-.06.307-.185.317-.292.038-.392.015-.789.015-1.2z" class="cls-1" transform="translate(-39.43 -180.759)"/>
    </g>
</svg>
