<svg xmlns="http://www.w3.org/2000/svg" id="Group_554" width="15.674" height="16.333" viewBox="0 0 15.674 16.333">
    <defs>
        <clipPath id="clip-path">
            <path id="Rectangle_2059" d="M0 0H15.674V16.333H0z" class="cls-1"/>
        </clipPath>
        <style>
            .cls-1{fill:#f7a83e}
        </style>
    </defs>
    <g id="Group_554-2" clip-path="url(#clip-path)">
        <path id="Path_887" d="M8.175 16.332h-.652a5.161 5.161 0 0 1-1.061-.811 1.621 1.621 0 0 0-1.915-.559 1.377 1.377 0 0 1-.16.032c-1.109.172-1.809-.249-1.911-1.363a2.216 2.216 0 0 0-1.511-2.043 1.313 1.313 0 0 1-.713-2.046 2.411 2.411 0 0 0-.008-2.749 1.3 1.3 0 0 1 .69-2.012A2.243 2.243 0 0 0 2.481 2.7a1.37 1.37 0 0 1 1.866-1.33A1.986 1.986 0 0 0 6.662.62a.608.608 0 0 1 .076-.077A1.377 1.377 0 0 1 8.921.531a2.253 2.253 0 0 0 2.5.833c.965-.248 1.591.27 1.8 1.246a5.521 5.521 0 0 1 .151.854.981.981 0 0 0 .646.908 3.091 3.091 0 0 1 1.654 1.3v.761c-.229.461-.487.911-.674 1.388a1.053 1.053 0 0 0 0 .7c.187.478.445.928.674 1.389v.761c-.248.274-.445.687-.752.8a2.5 2.5 0 0 0-1.757 2.429 1.279 1.279 0 0 1-1.474 1.131c-.4-.022-.79-.147-1.182-.133a1.7 1.7 0 0 0-.86.271c-.515.353-.983.774-1.471 1.167m-3.3-4.6a5.246 5.246 0 0 0 .468-.383q2.847-2.839 5.685-5.688c.114-.115.27-.231.3-.372a.654.654 0 0 0-.072-.527.652.652 0 0 0-.526-.072c-.14.034-.257.189-.372.3q-2.844 2.842-5.684 5.69a1.666 1.666 0 0 0-.337.419c-.147.3.1.649.534.629m-.613-6.059a1.726 1.726 0 0 0 1.728 1.721 1.727 1.727 0 1 0-1.728-1.721m7.181 5a1.712 1.712 0 1 0-1.709 1.74 1.728 1.728 0 0 0 1.709-1.74" class="cls-1"/>
        <path id="Path_888" d="M241.035 226.556a.783.783 0 0 1-.785.794.77.77 0 1 1 .011-1.54.778.778 0 0 1 .774.746" class="cls-1" transform="translate(-234.287 -220.913)"/>
        <path id="Path_889" d="M413.406 458.728a.77.77 0 1 1 .012-1.54.77.77 0 1 1-.012 1.54" class="cls-1" transform="translate(-403.682 -447.274)"/>
    </g>
</svg>
