<svg xmlns="http://www.w3.org/2000/svg" id="Group_2986" width="22.976" height="23.022" viewBox="0 0 22.976 23.022">
    <defs>
        <clipPath id="clip-path">
            <path id="Rectangle_2092" d="M0 0H22.976V23.022H0z" class="cls-1"/>
        </clipPath>
        <style>
            .cls-1{fill:#a4a9c3}
        </style>
    </defs>
    <g id="Group_2985" clip-path="url(#clip-path)">
        <path id="Path_2496" d="M12.207 0c.428.058.86.1 1.284.178A11.336 11.336 0 0 1 21.1 5.214a10.707 10.707 0 0 1 1.859 6.638 11.088 11.088 0 0 1-6.611 10A10.873 10.873 0 0 1 5.6 21.317 11.182 11.182 0 0 1 .1 13c-.04-.265-.066-.532-.1-.8v-1.437c.05-.383.088-.769.153-1.15a11.3 11.3 0 0 1 3.155-6.18A11.269 11.269 0 0 1 9.509.176C9.927.1 10.35.058 10.771 0zM21.9 11.488a10.411 10.411 0 1 0-10.43 10.4 10.427 10.427 0 0 0 10.43-10.4" class="cls-1"/>
        <path id="Path_2497" d="M106.114 148.749v9.283H91.9a1.112 1.112 0 0 1-.5-1.025c.018-2.569.008-5.138.009-7.707 0-.813.226-1.038 1.049-1.038 4.193 0 8.386.005 12.578-.009a1.136 1.136 0 0 1 1.078.5m-13.719 8.683H105.1c-.112-.15-.184-.251-.262-.348-.914-1.126-1.836-2.244-2.733-3.383-.108-.137-.079-.381-.113-.576.183.077.427.1.541.238.778.921 1.528 1.865 2.288 2.8.207.255.417.509.674.822v-7.765c-.156.109-.263.179-.366.256q-2.659 2-5.318 3.994a1.416 1.416 0 0 1-2.109 0q-2.661-1.995-5.318-3.994c-.109-.082-.231-.148-.359-.23v7.743l2.8-3.449a1.608 1.608 0 0 1 .321-.363c.1-.062.307-.089.369-.03a.472.472 0 0 1 .044.379c-.023.1-.134.179-.206.267l-2.962 3.64m12.616-8.566H92.546c.147.126.227.2.314.266q2.623 1.961 5.248 3.919c.546.407.76.406 1.306 0q2.2-1.636 4.386-3.276c.374-.279.746-.561 1.21-.909" class="cls-1" transform="translate(-87.29 -141.586)"/>
        <path id="Path_2498" d="M103.383 155.3H88.991l-.034-.023a1.247 1.247 0 0 1-.558-1.138c.013-1.858.011-3.747.01-5.574v-2.132c0-.888.288-1.173 1.183-1.173h3.36c3.021 0 6.145 0 9.218-.009h.009a1.237 1.237 0 0 1 1.183.559l.022.033zm-14.307-.27h14.038v-9.107a1 1 0 0 0-.934-.4h-.009c-3.073.01-6.2.01-9.219.009h-3.36c-.751 0-.913.161-.914.9v2.132c0 1.828 0 3.718-.01 5.576a.976.976 0 0 0 .406.889m13.431-.329h-13.26l3.141-3.861c.026-.032.055-.061.082-.089a.4.4 0 0 0 .1-.124.472.472 0 0 0 0-.244.382.382 0 0 0-.206.04.9.9 0 0 0-.205.224c-.027.037-.055.074-.085.111l-2.172 2.668-.875 1.078v-8.369l.207.132.12.074c.087.053.168.1.248.162l2.525 1.9q1.4 1.049 2.794 2.1a1.288 1.288 0 0 0 1.947 0c1.115-.835 2.248-1.687 3.343-2.51l1.975-1.484c.07-.052.142-.1.225-.159l.144-.1.212-.148v8.4l-.239-.291-.236-.287c-.156-.19-.3-.362-.439-.535l-.59-.729c-.551-.683-1.121-1.388-1.7-2.069a.644.644 0 0 0-.283-.131.618.618 0 0 0 .064.3c.669.849 1.364 1.7 2.036 2.527l.7.855c.053.065.1.134.162.213l.1.139zm-12.694-.27h12.157c-.034-.046-.066-.087-.1-.128l-.7-.855c-.673-.825-1.369-1.679-2.039-2.53a.8.8 0 0 1-.122-.456 1.764 1.764 0 0 0-.018-.18l-.043-.243.228.1a1.806 1.806 0 0 0 .173.058.83.83 0 0 1 .419.217c.577.683 1.148 1.39 1.7 2.074l.589.728c.139.171.28.342.435.53v-7.131c-.055.038-.1.072-.15.107l-1.975 1.484c-1.1.823-2.228 1.674-3.343 2.51a1.537 1.537 0 0 1-2.271 0q-1.4-1.048-2.794-2.1l-2.524-1.9c-.045-.034-.093-.065-.143-.1v7.122l.4-.488 2.166-2.666c.026-.032.051-.065.077-.1a1.1 1.1 0 0 1 .276-.291.508.508 0 0 1 .535-.014.586.586 0 0 1 .082.506.553.553 0 0 1-.167.251c-.024.025-.047.048-.066.071zm6.082-3.8a1.283 1.283 0 0 1-.733-.333c-1.791-1.335-3.628-2.708-5.248-3.92-.06-.045-.116-.094-.187-.156l-.133-.115-.279-.238h13.235l-.749.563-.784.589-.793.593c-1.177.88-2.395 1.79-3.593 2.683a1.284 1.284 0 0 1-.734.334m-5.85-4.492l.03.023c1.62 1.211 3.457 2.585 5.247 3.919.5.371.647.371 1.145 0 1.2-.893 2.416-1.8 3.593-2.683l.793-.593.783-.588.1-.078z" class="cls-1" transform="translate(-84.424 -138.721)"/>
    </g>
</svg>
