<svg xmlns="http://www.w3.org/2000/svg" width="40.988" height="40.988" viewBox="0 0 40.988 40.988">
    <defs>
        <linearGradient id="linear-gradient" x1=".5" x2=".5" y2="1" gradientUnits="objectBoundingBox">
            <stop offset="0" stop-color="#47a2fe"/>
            <stop offset="1" stop-color="#c2e2fd"/>
        </linearGradient>
        <linearGradient id="linear-gradient-2" x1=".5" x2=".5" y2="1" gradientUnits="objectBoundingBox">
            <stop offset="0" stop-color="#fdfdfe"/>
            <stop offset="1" stop-color="#e8ebfa"/>
        </linearGradient>
        <clipPath id="clip-path">
            <path id="Rectangle_77" d="M0 0H22V18.224H0z" class="cls-1"/>
        </clipPath>
        <style>
            .cls-1{fill:url(#linear-gradient)}
        </style>
    </defs>
    <g id="Group_3168" transform="translate(-961.006 -764.006)">
        <g id="Ellipse_91" fill="url(#linear-gradient-2)" stroke="rgba(255,255,255,0.5)" transform="rotate(-177 510.516 389.405)">
            <circle cx="19.5" cy="19.5" r="19.5" stroke="none"/>
            <circle cx="19.5" cy="19.5" r="19" fill="none"/>
        </g>
        <g id="Group_486" transform="translate(970 775.604)">
            <g id="Group_77" clip-path="url(#clip-path)">
                <path id="Path_73" d="M42.859 47.5h13.7v10.461c0 .571-.118.671-.793.671H43.659c-.677 0-.8-.1-.8-.668V47.903zm6.147 6.91l-.129.032c-.565-.494-1.126-.992-1.7-1.481a.8.8 0 0 0-1.072-.073.576.576 0 0 0 .048.931q1.472 1.3 2.967 2.58a.8.8 0 0 0 1.181-.01c.462-.389.912-.789 1.366-1.184.534-.465 1.075-.923 1.6-1.4a.581.581 0 0 0 .019-.934.792.792 0 0 0-1.033.066c-.177.142-.343.295-.513.443l-1.34 1.162v-.588-3.522a.7.7 0 1 0-1.4.008v3.968" class="cls-1" transform="translate(-38.708 -43.499)"/>
                <path id="Path_74" d="M19.3 6.825V3.684c0-.759-.207-.93-1.073-.93q-7.183 0-14.366-.012c-.955 0-1.159.17-1.159 1v3.1c-.635-.024-1.257-.005-1.862-.086a.905.905 0 0 1-.833-.9Q-.009 3.381.009.909a.943.943 0 0 1 .83-.863A2.68 2.68 0 0 1 1.364 0Q10.982 0 20.6.012c1.022 0 1.4.324 1.4 1.206V5.66c0 .775-.427 1.15-1.327 1.164-.432.007-.865 0-1.372 0" class="cls-1"/>
                <path id="Path_75" d="M42.812 194.121h13.7a10.653 10.653 0 0 1-.025 1.463c-.021.148-.314.325-.521.381a3.261 3.261 0 0 1-.813.022H43.686c-.748 0-.871-.106-.874-.741v-1.126" class="cls-1" transform="translate(-38.665 -177.777)"/>
            </g>
        </g>
    </g>
</svg>
