<svg xmlns="http://www.w3.org/2000/svg" width="15.999" height="10.284" viewBox="0 0 15.999 10.284">
    <defs>
        <style>
            .cls-1{fill:#797979}
        </style>
    </defs>
    <g id="Icon_ionic-ios-eye" transform="translate(-2.252 -7.875)">
        <path id="Path_4393" d="M10.243 7.875c-2.871 0-5.135 1.807-7.842 4.76a.565.565 0 0 0 0 .761c2.318 2.56 4.36 4.764 7.845 4.764 3.442 0 6.024-2.775 7.86-4.785a.56.56 0 0 0 .018-.739c-1.875-2.268-4.464-4.761-7.881-4.761zm.157 8.353a3.214 3.214 0 1 1 3.06-3.06 3.215 3.215 0 0 1-3.06 3.06z" class="cls-1"/>
        <path id="Path_4394" d="M15.786 14.107a1.678 1.678 0 0 1 .111-.6h-.111a2.285 2.285 0 1 0 2.285 2.285v-.139a1.584 1.584 0 0 1-.65.139 1.658 1.658 0 0 1-1.635-1.685z" class="cls-1" transform="translate(-5.536 -2.768)"/>
    </g>
</svg>
