<svg xmlns="http://www.w3.org/2000/svg" width="28.786" height="19.859" viewBox="0 0 28.786 19.859">
    <defs>
        <clipPath id="clip-path">
            <path id="Rectangle_1987" d="M0 0H28.786V19.86H0z" class="cls-1"/>
        </clipPath>
        <style>
            .cls-1{fill:#6b7088}
        </style>
    </defs>
    <g id="Group_494">
        <g id="Group_373" clip-path="url(#clip-path)">
            <path id="Path_780" d="M28.786 14.93v2.154a2.557 2.557 0 0 1-2.775 2.774H2.595A2.5 2.5 0 0 1 0 17.3Q0 9.9.016 2.488a2.652 2.652 0 0 1 .305-1.151A2.425 2.425 0 0 1 2.6 0c.6-.011 1.2 0 1.8 0h1.825Q16.111 0 26 .007a3.615 3.615 0 0 1 .9.093 2.541 2.541 0 0 1 1.882 2.633V14.93zM1.314 9.244V17.1a1.262 1.262 0 0 0 1.445 1.442h23.247a1.279 1.279 0 0 0 1.468-1.461V9.239zm.014-1.352h26.12V5.2H1.328zM27.434 3.86c0-.544.037-1.057-.011-1.563a1.053 1.053 0 0 0-.8-.906 2.035 2.035 0 0 0-.614-.075q-11.622-.005-23.244 0a2.384 2.384 0 0 0-.487.046 1.048 1.048 0 0 0-.908.874 12.411 12.411 0 0 0-.016 1.624z" class="cls-1"/>
            <path id="Path_781" d="M74.128 49.647h-3.016c-.573 0-.8-.22-.8-.791q-.005-1.933 0-3.866c0-.508.23-.756.733-.758q3.065-.011 6.131 0c.519 0 .756.254.758.777q.006 1.934 0 3.867c0 .531-.249.77-.793.772h-3.016m-2.484-1.33H76.6v-2.752h-4.96z" class="cls-1" transform="translate(-52.555 -33.056)"/>
        </g>
    </g>
</svg>
