<svg xmlns="http://www.w3.org/2000/svg" id="Group_3014" width="35" height="31.652" viewBox="0 0 35 31.652">
    <defs>
        <clipPath id="clip-path">
            <path id="Rectangle_2110" d="M0 0H35V31.652H0z" class="cls-1"/>
        </clipPath>
        <style>
            .cls-1{fill:#a4a9c3}
        </style>
    </defs>
    <g id="Group_3013" clip-path="url(#clip-path)">
        <path id="Path_2515" d="M70.39 115.765c-1.085-1.368-2.187-2.723-3.235-4.118-.146-.195-.021-.592-.022-.895.263.089.608.1.774.28a13.961 13.961 0 0 0 1.531 1.611c-1.03-4.1-2.052-8.194-3.109-12.282a.878.878 0 0 0-.614-.542c-2.049-.041-4.1-.025-6.428-.025.832 1.09 1.5 1.971 2.176 2.848 1.351 1.757 2.719 3.5 4.04 5.278a2.611 2.611 0 0 1 .217 1c-.342-.137-.809-.175-1.007-.426-2.192-2.776-4.333-5.592-6.512-8.379a1.213 1.213 0 0 1-.133-1.573c1.224-2.028 2.369-4.105 3.633-6.108a1.916 1.916 0 0 1 1.363-.779q7.53-.083 15.062 0a2.625 2.625 0 0 1 1.461.838 3.493 3.493 0 0 1 .767 1.293 4.521 4.521 0 0 1 .137 1.144 7.067 7.067 0 0 1-1.013-.692A6.037 6.037 0 0 1 78.8 93.2l-3.212 5.5h6.422a5.9 5.9 0 0 1-.535-1.062c-.056-.2.1-.466.164-.7.232.077.536.086.685.243 1.262 1.323 1.3 2.168.2 3.6q-5.379 6.971-10.764 13.938c-.283.366-.6.706-.9 1.058zm11.595-15.974c-2.324 0-4.339-.02-6.351.025a.97.97 0 0 0-.716.558c-1.063 4.083-2.083 8.177-3.112 12.269l.176.1 10-12.948m-14.712.078l3.23 12.715.267-.032 3.2-12.687zm-4.851-6.71l-3.234 5.548h6.478l-3.244-5.548m4.169 5.09l3.112-5.527h-6.337l3.227 5.523m11.275-5.482h-6.3l3.092 5.484 3.211-5.484m-7.245.413l-3.072 5.509h6.164L70.62 93.18" class="cls-1" transform="translate(-53.105 -84.113)"/>
        <path id="Path_2516" d="M0 193.459c.873-.075 1.745-.187 2.618-.2.218 0 .44.311.66.48-.21.174-.416.491-.632.5-.881.026-1.764-.043-2.647-.076z" class="cls-1" transform="translate(0 -177.437)"/>
        <path id="Path_2517" d="M389.473 189.665l1.649.765a5.131 5.131 0 0 1-1.543.509 6.442 6.442 0 0 1-1.7-.462l1.6-.813" class="cls-1" transform="translate(-356.123 -174.138)"/>
        <path id="Path_2518" d="M65.142 49.364c-.554.226-.959.494-1.051.412a20.532 20.532 0 0 1-1.833-1.89c-.042-.048.261-.394.4-.6l2.48 2.079" class="cls-1" transform="translate(-57.157 -43.414)"/>
        <path id="Path_2519" d="M336.16 50.636c-.2-.5-.466-.891-.385-.985a21.055 21.055 0 0 1 1.868-1.853 4.926 4.926 0 0 1 .616.511l-2.1 2.327" class="cls-1" transform="translate(-308.274 -43.884)"/>
        <path id="Path_2520" d="M209.477 1.693l-.818 1.532a5.122 5.122 0 0 1-.429-1.5A7.337 7.337 0 0 1 208.687 0l.79 1.693" class="cls-1" transform="translate(-191.183)"/>
    </g>
</svg>
