<svg xmlns="http://www.w3.org/2000/svg" id="Group_487" width="23.992" height="28.903" viewBox="0 0 23.992 28.903">
    <defs>
        <clipPath id="clip-path">
            <path id="Rectangle_1978" d="M0 0H23.992V28.903H0z" class="cls-1"/>
        </clipPath>
        <style>
            .cls-1{fill:#6b7088}
        </style>
    </defs>
    <g id="Group_355" clip-path="url(#clip-path)">
        <path id="Path_747" d="M11.637 0a13.415 13.415 0 0 1 4.945 2.218A10.341 10.341 0 0 1 19.931 13.4c-.152.456-.264 1.068-.905.8-.2-.086-.324-.772-.224-1.106a9.044 9.044 0 1 0-12.813 5.1 3.06 3.06 0 0 1 .765.388 4.385 4.385 0 0 1 .541.881c-.355.076-.763.305-1.056.2-3.72-1.289-6.413-5.531-6.23-9.733A10.134 10.134 0 0 1 8.311.174 2.694 2.694 0 0 0 8.748 0z" class="cls-1"/>
        <path id="Path_748" fill="none" stroke="#6b7088" d="M49.526 57.31c0-2.126-.01-4.251.012-6.377a3.21 3.21 0 0 1 .255-.853 3.112 3.112 0 0 1 .81.338q4.691 3.812 9.349 7.664a2.291 2.291 0 0 1 .391.7 2.245 2.245 0 0 1-.728.294q-2.569.039-5.138 0a1.03 1.03 0 0 0-1 .537q-1.433 2.219-2.938 4.39a2.618 2.618 0 0 1-.714.507 2.774 2.774 0 0 1-.288-.826c-.024-2.125-.013-4.251-.013-6.377" transform="translate(-38.91 -38.61)"/>
        <path id="Path_749" d="M25.178 18.717a6.589 6.589 0 0 1 6.355 8.4c-.106.364-.612.918-.848.879-.683-.114-.424-.692-.3-1.159a5.408 5.408 0 1 0-8.118 3.056 3.188 3.188 0 0 1 .661.383 6.786 6.786 0 0 1 .617.9c-.385.048-.834.248-1.145.118a6.027 6.027 0 0 1-3.285-3.344 6.61 6.61 0 0 1 6.065-9.233" class="cls-1" transform="translate(-14.965 -15.083)"/>
    </g>
</svg>
