<svg xmlns="http://www.w3.org/2000/svg" width="20" height="20" viewBox="0 0 20 20">
    <g>
        <path fill="#4ba3fe" d="M8.263 16.707a1.53 1.53 0 0 0 1.526 1.526h6.1a1.53 1.53 0 0 0 1.526-1.526V7.552H8.263zm1.877-5.432l1.076-1.075 1.625 1.617 1.617-1.617 1.076 1.076-1.617 1.617 1.617 1.617-1.076 1.076-1.617-1.617-1.617 1.617-1.077-1.076 1.617-1.617zm5.371-6.012l-.763-.763h-3.815l-.763.763H7.5v1.526h10.682V5.263z" transform="translate(-251 -300) translate(248.041 298.5)"/>
        <g fill="none" stroke="#4ba3fe" transform="translate(-251 -300) translate(251 300)">
            <circle cx="10" cy="10" r="10" stroke="none"/>
            <circle cx="10" cy="10" r="9.5"/>
        </g>
    </g>
</svg>
