<svg xmlns="http://www.w3.org/2000/svg" width="18.412" height="18.412" viewBox="0 0 18.412 18.412">
    <path fill="#4ca3fe" d="M21.377 4.5H6.034A1.533 1.533 0 0 0 4.5 6.034v15.343a1.533 1.533 0 0 0 1.534 1.534h15.343a1.533 1.533 0 0 0 1.534-1.534V6.034A1.533 1.533 0 0 0 21.377 4.5zm-2.517 6.449l-6.41 6.439a.866.866 0 0 1-.556.264.839.839 0 0 1-.561-.273l-2.69-2.685a.191.191 0 0 1 0-.273l.853-.853a.185.185 0 0 1 .269 0l2.128 2.132 5.85-5.9a.189.189 0 0 1 .134-.058.174.174 0 0 1 .134.058l.839.868a.189.189 0 0 1 .01.281z" transform="translate(-4.5 -4.5)"/>
</svg>
