<svg xmlns="http://www.w3.org/2000/svg" id="Group_2988" width="22.976" height="23.022" viewBox="0 0 22.976 23.022">
    <defs>
        <clipPath id="clip-path">
            <path id="Rectangle_2097" d="M0 0H22.976V23.022H0z" class="cls-1"/>
        </clipPath>
        <style>
            .cls-1{fill:#a4a9c3}
        </style>
    </defs>
    <g id="Group_2987" clip-path="url(#clip-path)">
        <path id="Path_2499" d="M12.207 0c.428.058.86.1 1.284.178A11.335 11.335 0 0 1 21.1 5.214a10.706 10.706 0 0 1 1.859 6.638 11.088 11.088 0 0 1-6.611 10A10.873 10.873 0 0 1 5.6 21.317 11.182 11.182 0 0 1 .1 13c-.04-.265-.066-.532-.1-.8v-1.437c.05-.383.088-.769.153-1.15a11.3 11.3 0 0 1 3.155-6.18A11.268 11.268 0 0 1 9.509.176C9.927.1 10.35.058 10.771 0zM21.9 11.488a10.411 10.411 0 1 0-10.43 10.4 10.427 10.427 0 0 0 10.43-10.4" class="cls-1"/>
        <path id="Path_2500" d="M127.642 182.605c.065-.313.107-.633.2-.938a4.071 4.071 0 0 1 1.146-1.8 6.522 6.522 0 0 1 7.808-.628 4.52 4.52 0 0 1 2.034 2.792c.038.161.059.326.088.49.281.028.566.04.845.087a4.429 4.429 0 0 1 3.413 2.322 3.339 3.339 0 0 1-.181 3.5 8.8 8.8 0 0 1-.643.775.431.431 0 0 0-.1.239c-.009.575-.005 1.151-.006 1.727v.191l-.185-.09c-.579-.288-1.157-.58-1.74-.862a.422.422 0 0 0-.248-.032 5.188 5.188 0 0 1-4.016-.741 3.906 3.906 0 0 1-1.65-2.21l-.269.03a7.107 7.107 0 0 1-2.289-.1.367.367 0 0 0-.218.028c-.6.3-1.206.6-1.809.9-.054.027-.11.051-.187.086v-.573-1.26a.237.237 0 0 0-.111-.218 4.419 4.419 0 0 1-1.558-1.917 9.429 9.429 0 0 1-.3-1.1c-.009-.034-.018-.069-.028-.1zm6.642 4.16a.578.578 0 0 0 .007-.073 3.565 3.565 0 0 1 1.171-2.82 4.756 4.756 0 0 1 2.415-1.235c.12-.025.241-.044.367-.066a3.3 3.3 0 0 0-.423-1.334 4.577 4.577 0 0 0-2.655-2.053 5.918 5.918 0 0 0-3.773 0 4.473 4.473 0 0 0-2.632 2.033 3.187 3.187 0 0 0 .092 3.445 4.268 4.268 0 0 0 1.331 1.308.219.219 0 0 1 .112.215c-.007.254 0 .508 0 .762v.357c.426-.211.818-.411 1.215-.6a.483.483 0 0 1 .291-.037 6.492 6.492 0 0 0 2.483.093m7.3 3.527v-1.167a.281.281 0 0 1 .1-.224 6.61 6.61 0 0 0 .7-.747 2.684 2.684 0 0 0 .5-2.029 3.131 3.131 0 0 0-1.489-2.21 4.379 4.379 0 0 0-3.012-.681 3.963 3.963 0 0 0-2.9 1.637 2.719 2.719 0 0 0-.5 2.03 3.11 3.11 0 0 0 1.486 2.211 4.506 4.506 0 0 0 3.651.565.408.408 0 0 1 .308.032c.375.2.756.381 1.159.583" class="cls-1" transform="translate(-124.392 -173.689)"/>
        <path id="Rectangle_2093" d="M0 0H0.649V0.642H0z" class="cls-1" transform="translate(6.908 7.524)"/>
        <path id="Rectangle_2094" d="M0 0H0.644V0.642H0z" class="cls-1" transform="translate(10.229 7.527)"/>
        <path id="Rectangle_2095" d="M0 0H0.65V0.644H0z" class="cls-1" transform="translate(15.868 11.506)"/>
        <path id="Rectangle_2096" d="M0 0H0.642V0.64H0z" class="cls-1" transform="translate(12.557 11.511)"/>
    </g>
</svg>
