<svg xmlns="http://www.w3.org/2000/svg" id="Group_2978" width="25.777" height="24.758" viewBox="0 0 25.777 24.758">
    <defs>
        <clipPath id="clip-path">
            <path id="Rectangle_2089" d="M0 0H25.777V24.758H0z" class="cls-1"/>
        </clipPath>
        <style>
            .cls-1{fill:#a4a9c3}
        </style>
    </defs>
    <g id="Group_2977" clip-path="url(#clip-path)">
        <path id="Path_2483" d="M0 23.9l1.549-.268v-2.141-4.828c0-1.555.426-2.006 1.954-2.082.111-.005.221-.029.427-.057v-4.21c0-1.792.378-2.176 2.148-2.2.254 0 .507-.026.8-.042.134-.744.266-1.354-.6-1.82a1.838 1.838 0 0 1-.683-2.361c.405-.947.869-1.872 1.35-2.784C7.272.488 7.676.488 8 1.1c.47.886.923 1.784 1.326 2.7a2.047 2.047 0 0 1-.614 2.48c-.783.6-.783.6-.623 1.766h4.3c0-.595.029-1.214-.02-1.826-.013-.163-.242-.344-.412-.455a2.039 2.039 0 0 1-.828-2.819c.387-.832.791-1.657 1.22-2.468.109-.205.364-.5.512-.477a.986.986 0 0 1 .605.484c.462.858.9 1.73 1.3 2.621a1.831 1.831 0 0 1-.58 2.384 1.5 1.5 0 0 0-.763 1.688c.017.279 0 .561 0 .89h4.3c.125-.748.241-1.356-.617-1.821a1.878 1.878 0 0 1-.62-2.45c.4-.918.856-1.816 1.328-2.7.325-.61.728-.6 1.056.019.468.887.914 1.789 1.316 2.708a2.008 2.008 0 0 1-.644 2.465c-.78.593-.78.593-.6 1.83.4 0 .814-.008 1.232 0 1.152.026 1.69.545 1.7 1.689.017 1.548 0 3.1 0 4.6.1.075.139.133.185.136 1.9.165 2.2.482 2.2 2.385v6.695c1.641.24 1.641.24 1.377 1.128H0zm4.992-9.311a13.321 13.321 0 0 1 1.708.022c.249.034.467.3.7.462-.237.183-.465.5-.714.523-.884.065-1.776.026-2.665.026-1.475 0-1.447 0-1.479 1.45-.012.543.116.829.67.972a4.027 4.027 0 0 1 1.06.551 2.4 2.4 0 0 0 2.821-.016 3.584 3.584 0 0 1 4.4-.005 2.34 2.34 0 0 0 2.817.018 3.626 3.626 0 0 1 4.471.012 2.371 2.371 0 0 0 2.675.058c.569-.32 1.154-.612 1.818-.962a9.417 9.417 0 0 1 .006-1.02c.085-.834-.264-1.1-1.091-1.074-2.034.052-4.071.017-6.107.017-1.606 0-3.212.013-4.817-.015a1.406 1.406 0 0 1-.724-.322.507.507 0 0 1 .054-.452 2.148 2.148 0 0 1 .866-.236c2.581-.017 5.161-.01 7.742-.01h1.612V12.63c-1.1-.427-2.085-.746-3.013-1.187a2.522 2.522 0 0 0-2.684.114 3.557 3.557 0 0 1-4.392 0 2.459 2.459 0 0 0-2.453-.234c-1.052.43-2.106.856-3.273 1.33zm18.228 4.25c-.406.213-.739.36-1.042.553a3.423 3.423 0 0 1-4.026.009 2.7 2.7 0 0 0-3.273.016 3.353 3.353 0 0 1-3.95 0 2.7 2.7 0 0 0-3.272-.007 3.419 3.419 0 0 1-4.026-.019c-.3-.193-.636-.336-1.024-.538v4.805H23.22zM4.963 10.045c-.007 1.3.327 1.534 1.492 1.116a3.607 3.607 0 0 0 .757-.393 3.415 3.415 0 0 1 4.092-.022 2.608 2.608 0 0 0 3.192.009 3.508 3.508 0 0 1 4.1-.011 6 6 0 0 0 1.675.542c.152.037.5-.107.506-.188a5.631 5.631 0 0 0-.025-1.698c-.04-.17-.627-.3-.965-.3-4.579-.019-9.159 0-13.738-.024-.775 0-1.254.158-1.086.961m7.951-8.434A11.072 11.072 0 0 0 12 3.533a1.405 1.405 0 0 0 .32 1.177 1.131 1.131 0 0 0 1.122.039 1.538 1.538 0 0 0 .358-1.237 9.765 9.765 0 0 0-.888-1.9m-5.436.7a11.439 11.439 0 0 0-.906 1.96 1.388 1.388 0 0 0 .352 1.177 1.152 1.152 0 0 0 1.137-.017 1.405 1.405 0 0 0 .322-1.186 11.425 11.425 0 0 0-.9-1.934m10.855.012a9.776 9.776 0 0 0-.856 1.8 1.563 1.563 0 0 0 .251 1.276 1.192 1.192 0 0 0 1.193.011 1.544 1.544 0 0 0 .285-1.275 9.574 9.574 0 0 0-.876-1.819" class="cls-1" transform="translate(.001)"/>
        <path id="Path_2484" d="M116.274 200.856c-.206-.332-.442-.544-.415-.715s.308-.319.477-.476c.156.171.427.337.436.515s-.251.361-.5.676" class="cls-1" transform="translate(-107.379 -185.054)"/>
        <path id="Path_2485" d="M128.09 160.433c.214.319.455.523.432.69a.638.638 0 0 1-.478.415.628.628 0 0 1-.434-.451c-.008-.17.244-.352.48-.655" class="cls-1" transform="translate(-118.272 -148.693)"/>
        <path id="Path_2486" d="M217.915 174.123c-.216-.327-.457-.534-.428-.691a.655.655 0 0 1 .477-.429c.157 0 .419.287.434.464s-.241.347-.483.656" class="cls-1" transform="translate(-201.569 -160.343)"/>
        <path id="Path_2487" d="M208.778 302.914c-.345.209-.552.435-.724.411s-.314-.3-.468-.459c.168-.151.33-.41.507-.422s.359.233.685.47" class="cls-1" transform="translate(-192.395 -280.311)"/>
        <path id="Path_2488" d="M128.525 278.628c.255.3.516.474.508.634-.009.179-.258.478-.412.483a.662.662 0 0 1-.5-.413c-.036-.154.2-.372.4-.7" class="cls-1" transform="translate(-118.745 -258.238)"/>
        <path id="Path_2489" d="M286.852 286.386c-.325.246-.51.5-.673.482-.183-.015-.346-.269-.517-.419.156-.163.294-.427.474-.459.163-.029.372.193.717.4" class="cls-1" transform="translate(-264.758 -265.059)"/>
        <path id="Path_2490" d="M54.7 299.045c.249.324.477.494.492.68.012.149-.257.464-.364.448a.721.721 0 0 1-.524-.392c-.04-.156.192-.381.4-.737" class="cls-1" transform="translate(-50.328 -277.161)"/>
    </g>
</svg>
