<svg xmlns="http://www.w3.org/2000/svg" id="Group_3020" width="30.808" height="30.326" viewBox="0 0 30.808 30.326">
    <defs>
        <clipPath id="clip-path">
            <path id="Rectangle_2113" d="M0 0H30.808V30.326H0z" class="cls-1"/>
        </clipPath>
        <style>
            .cls-1{fill:#a4a9c3}
        </style>
    </defs>
    <g id="Group_3019" clip-path="url(#clip-path)">
        <path id="Path_2529" d="M29.062 15.876a7.08 7.08 0 0 1-1.255-1.176 7.337 7.337 0 0 1-1.539-5.945.322.322 0 0 0-.013-.1c-.183-1.164-.716-1.6-1.849-1.288-1.182.323-2.314.826-3.483 1.2a8.37 8.37 0 0 1-1.37.209c.153-.929.289-1.631.367-2.338.016-.142-.194-.309-.3-.465-.174.125-.4.217-.505.386s-.055.4-.093.6a4.434 4.434 0 0 1-4.936 3.941c-.476-.019-.96.1-1.433.058a3.55 3.55 0 0 1-1.358-.318 5.188 5.188 0 0 1 1.088-9.525 5.037 5.037 0 0 1 5.465 1.651c.247.28.4.643.655.915.135.144.392.175.594.256a2.471 2.471 0 0 0 .142-.717 1.291 1.291 0 0 0-.306-.525 5.877 5.877 0 0 0-5.956-2.62 5.747 5.747 0 0 0-4.945 4.22 5.875 5.875 0 0 0 1.589 6.226c.257.259.546.485.684.607l-.767 1.012c.235.073.5.259.7.2a12.378 12.378 0 0 1 7.286.007c.185.055.449-.156.676-.243a2.416 2.416 0 0 0-.34-.546 2.188 2.188 0 0 0-.555-.283c.513-.525.947-1.011 1.43-1.44a.878.878 0 0 1 .694-.222c.148.045.239.4.279.632a3.942 3.942 0 0 1-.031.716 3.47 3.47 0 0 0 2.272 3.639c1.616.58 2.628.2 3.934-1.538a13.079 13.079 0 0 1 1.03 1.921 2.367 2.367 0 0 0 1.922 1.762c1.251.222 1.109 1.176 1.121 2.072.012.861.016 1.661-1.11 1.869a4.145 4.145 0 0 0-3 2.071 4.042 4.042 0 0 1-1.626 1.531 3.557 3.557 0 0 0-2.152 3.392c0 .135-.079.267-.081.4-.014.968-.42 1.3-1.451 1.295-1.009-.007-1.392-.3-1.48-1.278-.061-.673-.062-1.49-1.186-1.412-1.431.1-2.869.121-4.3.109-.657-.006-1.04.163-1.141.856-.078.535-.227 1.059-.352 1.621H9.661c-.208-1.017-.357-2-.628-2.948a1.926 1.926 0 0 0-.753-1.106c-5.368-2.9-5.255-11.4-.371-14.243.227-.132.278-.567.412-.861a2.5 2.5 0 0 0-.9.151 8.3 8.3 0 0 0-3.739 5.081c-.072.268-.16.532-.3.992-.241-1.158-.66-2.009-1.705-2a1.691 1.691 0 0 0-1.242.97c-.391 1.256.841 1.394 1.845 2-.753.332-1.322.557-1.863.836-.176.091-.281.322-.418.489.176.132.354.376.526.372a2.1 2.1 0 0 0 1.075-.245 19.166 19.166 0 0 0 1.621-1.335c.03.039.064.063.067.09.047.441.105.881.13 1.323A8.057 8.057 0 0 0 6.887 25.3a3.262 3.262 0 0 1 1.575 2.641c.019.271.122.535.148.806a1.708 1.708 0 0 0 1.224 1.582H12.1a5.99 5.99 0 0 0 .914-1.122 6.664 6.664 0 0 0 .346-1.469h4.68c.378.817.041 2.235 1.46 2.591h2.056a1.673 1.673 0 0 0 1.237-1.674c0-.068.018-.136.025-.2a3.919 3.919 0 0 1 2.164-3.609 4.059 4.059 0 0 0 1.6-1.558 4.338 4.338 0 0 1 2.494-1.772 8.05 8.05 0 0 0 1.738-1.264V17.16c-.584-.426-1.184-.831-1.746-1.284m-4.478-2.568c-.462.917-2.337.794-3.266-.128a2.467 2.467 0 0 1 .756-4.094c.97-.384 1.974-.684 3.1-1.068a7.39 7.39 0 0 1-.589 5.29M1.758 16.39a.614.614 0 1 1 .614-.614.614.614 0 0 1-.614.614" class="cls-1"/>
        <path id="Path_2530" d="M553.944 387.478a11.55 11.55 0 0 0 1.041-1.137c.09-.121-.113-.46-.182-.7-.206.1-.51.156-.6.323-.462.852-.823.862-1.223-.042-.067-.151-.356-.2-.542-.3-.091.2-.282.411-.257.6.1.789.621 1.166 1.764 1.262" class="cls-1" transform="translate(-529.192 -369.569)"/>
        <path id="Path_2531" d="M280.432 56.036v-.659a2.513 2.513 0 0 0 .752-.167 1.989 1.989 0 0 0 .617-.381 1.826 1.826 0 0 0 .422-.576 1.741 1.741 0 0 0 .158-.752 1.613 1.613 0 0 0-.162-.761 1.56 1.56 0 0 0-.436-.515 2.6 2.6 0 0 0-.627-.348q-.353-.139-.724-.26v-2.311a1.469 1.469 0 0 1 1.188.585l.613-.557a1.972 1.972 0 0 0-.812-.566 2.758 2.758 0 0 0-.989-.186v-.613h-.446v.613a2.171 2.171 0 0 0-.7.172 2.054 2.054 0 0 0-.589.381 1.746 1.746 0 0 0-.4.562 1.7 1.7 0 0 0-.149.715 1.673 1.673 0 0 0 .149.729 1.632 1.632 0 0 0 .4.534 2.426 2.426 0 0 0 .589.376 4.121 4.121 0 0 0 .7.246v2.358a1.868 1.868 0 0 1-.766-.2 1.432 1.432 0 0 1-.571-.5l-.65.566a1.908 1.908 0 0 0 .877.668 3.158 3.158 0 0 0 1.109.195v.659zm0-3.621a3.674 3.674 0 0 1 .413.153 1.54 1.54 0 0 1 .357.218.928.928 0 0 1 .343.752 1 1 0 0 1-.32.752 1.341 1.341 0 0 1-.794.362zm-.84-1.091a1.36 1.36 0 0 1-.316-.209.894.894 0 0 1-.214-.288.951.951 0 0 1-.079-.408 1.037 1.037 0 0 1 .274-.738 1.283 1.283 0 0 1 .729-.376V51.5q-.214-.083-.395-.172" class="cls-1" transform="translate(-266.428 -45.972)"/>
    </g>
</svg>
