<svg xmlns="http://www.w3.org/2000/svg" width="27.127" height="27.105" viewBox="0 0 27.127 27.105">
    <defs>
        <clipPath id="clip-path">
            <path id="Rectangle_2114" d="M0 0H27.127V27.105H0z" class="cls-1"/>
        </clipPath>
        <style>
            .cls-1{fill:#a4a9c3}
        </style>
    </defs>
    <g id="Group_3022">
        <g id="Group_3021" clip-path="url(#clip-path)">
            <path id="Path_2532" d="M27.128 15.015a34.584 34.584 0 0 1-1.521 4.692A13.54 13.54 0 1 1 11.7.157 1.9 1.9 0 0 0 12.1 0H15a1.982 1.982 0 0 0 .4.158A13.1 13.1 0 0 1 25.72 7.7a31.051 31.051 0 0 1 1.408 4.421zM13.551 1.185a12.382 12.382 0 1 0 12.377 12.462A12.372 12.372 0 0 0 13.551 1.185" class="cls-1" transform="translate(-.001 .001)"/>
            <path id="Path_2533" d="M95.337 55.233a10.1 10.1 0 0 1 7.573 3.4c.308.335.693.712.219 1.153-.5.463-.8-.015-1.1-.341a8.785 8.785 0 0 0-13.3 0c-.219.243-.8.478-1 .359-.546-.328-.213-.769.1-1.12a10.005 10.005 0 0 1 7.5-3.446" class="cls-1" transform="translate(-81.849 -51.701)"/>
            <path id="Path_2534" d="M103.137 310.745a10.166 10.166 0 0 1-7.1-2.888c-.314-.308-.672-.682-.194-1.035.179-.133.741.017.968.219 3.845 3.414 8.594 3.412 12.479-.006.226-.2.79-.34.966-.206.472.361.1.726-.206 1.038a10.176 10.176 0 0 1-6.915 2.877" class="cls-1" transform="translate(-89.499 -287.153)"/>
            <path id="Path_2535" d="M149.088 169.933a10.506 10.506 0 0 1 1.3 1.157c.151.185.052.573.066.87-.294-.023-.672.06-.866-.091a8.27 8.27 0 0 1-1.026-1.133c-.159.191-.215.227-.221.271-.071.452.059 1.106-.64 1.083-.765-.026-.576-.708-.584-1.187-.018-1.083-.006-2.166-.006-3.249 0-1.386 0-1.389 1.429-1.375.3 0 .694-.07.878.088.452.388 1.043.847 1.135 1.357s-.32 1.128-.594 1.657c-.106.2-.44.289-.873.552m-.452-2.665l-.246.189v1.1l.2.2.862-.717-.813-.774" class="cls-1" transform="translate(-137.697 -155.632)"/>
            <path id="Path_2536" d="M295.6 167.371v.869l1.083.961-1.087.822v.913a8.527 8.527 0 0 1 1.57.028c.27.051.486.387.726.595-.24.172-.48.5-.72.495-3.236-.008-2.805.484-2.837-2.5-.008-.752.02-1.5 0-2.255s.228-1.141 1.044-1.079c.6.045 1.21-.041 1.8.035.256.033.478.327.716.5-.243.2-.461.533-.734.587a8.333 8.333 0 0 1-1.561.027" class="cls-1" transform="translate(-275.512 -155.584)"/>
            <path id="Path_2537" d="M221.937 167.366v.843l1.1.992-1.084.808v.92a9.931 9.931 0 0 1 1.6.026c.254.042.464.353.694.542-.226.19-.451.382-.679.569-.018.015-.059 0-.089 0-3.237-.037-2.74.423-2.776-2.483-.01-.812.011-1.625 0-2.437-.01-.622.211-.968.9-.933.6.03 1.214-.057 1.8.033.3.047.565.366.846.563a3.24 3.24 0 0 1-.893.532 7.07 7.07 0 0 1-1.413.023" class="cls-1" transform="translate(-206.578 -155.577)"/>
            <path id="Path_2538" d="M74.214 169.861a5.626 5.626 0 0 1-.026 1.244c-.057.275-.369.5-.566.742-.192-.226-.543-.446-.551-.678-.052-1.471-.062-2.947 0-4.417a1.025 1.025 0 0 1 .69-.7 9.617 9.617 0 0 1 2.159-.01c.225.02.427.314.639.483-.206.209-.387.556-.622.6a9.91 9.91 0 0 1-1.659.028v.872l1.1.963-1.17.877" class="cls-1" transform="translate(-68.358 -155.369)"/>
        </g>
    </g>
</svg>
