<svg xmlns="http://www.w3.org/2000/svg" width="39" height="39" viewBox="0 0 39 39">
    <defs>
        <linearGradient id="linear-gradient" x1=".5" x2=".5" y2="1" gradientUnits="objectBoundingBox">
            <stop offset="0" stop-color="#c1e0fe"/>
            <stop offset="1" stop-color="#53a6fe"/>
        </linearGradient>
        <clipPath id="clip-path">
            <path id="Rectangle_2046" d="M0 0H39V39H0z" class="cls-1"/>
        </clipPath>
        <style>
            .cls-1{fill:url(#linear-gradient)}
        </style>
    </defs>
    <g id="Group_498" transform="translate(0 -.316)">
        <g id="Group_497" clip-path="url(#clip-path)" transform="translate(0 .316)">
            <path id="Path_876" d="M29.572 0h.517a1.414 1.414 0 0 1 .97 1.588c-.03.55-.006 1.1-.006 1.685h3.665a4.473 4.473 0 0 1 4.344 3.383c.063.248.106.5.158.751V35.2c-.021.092-.046.183-.061.275a4.529 4.529 0 0 1-4.411 3.744H4.436a4.188 4.188 0 0 1-.909-.1A4.451 4.451 0 0 1 0 34.676V7.636a3 3 0 0 1 .017-.4 4.512 4.512 0 0 1 4.538-3.963h3.611c0-.58.024-1.134-.006-1.684A1.413 1.413 0 0 1 9.13 0h.517a1.283 1.283 0 0 1 .975 1.259v1.995H28.6c0-.582.025-1.147-.006-1.708A1.374 1.374 0 0 1 29.572 0m7.191 15.531H2.456v18.957c0 .124 0 .249.006.373a2.01 2.01 0 0 0 1.971 1.9q15.17 0 30.341-.005a1.877 1.877 0 0 0 .747-.162 2.018 2.018 0 0 0 1.243-2.011q-.007-9.358 0-18.715zm0-2.464v-.289-4.851a2.05 2.05 0 0 0-2.223-2.212h-3.158c-.1 0-.2.01-.328.016v.336c0 .823.007 1.646 0 2.469a1.228 1.228 0 1 1-2.454-.01V5.733H10.622v2.829a1.2 1.2 0 0 1-.576 1.061 1.14 1.14 0 0 1-1.2.055A1.2 1.2 0 0 1 8.17 8.56c-.008-.842 0-1.684 0-2.526 0-.1-.008-.2-.013-.307-1.279 0-2.523-.035-3.765.01A1.97 1.97 0 0 0 2.457 7.81v4.966c0 .093.009.185.014.292z" class="cls-1" transform="translate(0 -.216)"/>
            <path id="Path_877" d="M219.238 364.161a2.83 2.83 0 0 1 .215-.282l8.013-8.017a1.349 1.349 0 0 1 1.09-.471 1.21 1.21 0 0 1 .945 1.845 2.471 2.471 0 0 1-.349.416q-4.546 4.544-9.1 9.085a1.246 1.246 0 0 1-2.085-.163c-1.442-1.965-2.874-3.938-4.329-5.894a1.228 1.228 0 1 1 1.979-1.442q1.2 1.627 2.4 3.258l1.222 1.665" class="cls-1" transform="translate(-201.089 -335.168)"/>
        </g>
    </g>
</svg>
