<svg xmlns="http://www.w3.org/2000/svg" id="_Icon_dice" width="24" height="24" viewBox="0 0 24 24">
    <defs>
        <style>
            .cls-2{fill:#3d444d}
        </style>
    </defs>
    <path id="Rectangle_3258" fill="none" d="M0 0H24V24H0z"/>
    <path id="Path_73597" d="M248.613 61.805a1.2 1.2 0 0 0-1.361.993 1.191 1.191 0 1 0 1.363-.993zm.19 1.236a.379.379 0 0 1-.681.164.375.375 0 0 1-.068-.28.379.379 0 1 1 .749.117zm0 0" class="cls-2" transform="translate(-235.539 -57.891)"/>
    <path id="Path_73598" d="M313.1 138.684a1.19 1.19 0 0 0 .992 1.361 1.166 1.166 0 0 0 .184.014 1.19 1.19 0 0 0 .963-1.892 1.182 1.182 0 0 0-.779-.475 1.192 1.192 0 0 0-1.36.992zm1.483-.038a.377.377 0 0 1 .068.281.381.381 0 0 1-.434.316.378.378 0 0 1 .059-.752.37.37 0 0 1 .059 0 .376.376 0 0 1 .244.155zm0 0" class="cls-2" transform="translate(-298.534 -130.333)"/>
    <path id="Path_73599" d="M377.184 223.469a1.19 1.19 0 1 0-.215-.886 1.183 1.183 0 0 0 .215.886zm.588-.761a.379.379 0 0 1 .374-.319.37.37 0 0 1 .059 0 .378.378 0 1 1-.433.314zm0 0" class="cls-2" transform="translate(-359.445 -210.601)"/>
    <path id="Path_73600" d="M21.575 2.792a2.188 2.188 0 0 0-1.437-.879l-2.413-.377a.429.429 0 0 0-.133.848l2.413.377a1.348 1.348 0 0 1 1.12 1.539l-1.389 8.86a1.344 1.344 0 0 1-1.535 1.12l-4.821-.76v-3.006a2.2 2.2 0 0 0-2.2-2.2H8.691L9.6 2.493a1.348 1.348 0 0 1 1.536-1.119l3.082.484a.429.429 0 1 0 .133-.848L11.272.527A2.207 2.207 0 0 0 8.755 2.36l-.933 5.952H2.2a2.2 2.2 0 0 0-2.2 2.2v8.968a2.205 2.205 0 0 0 2.2 2.2h8.975a2.205 2.205 0 0 0 2.2-2.2v-5.091l4.689.734a2.2 2.2 0 0 0 2.516-1.835l1.389-8.859a2.185 2.185 0 0 0-.394-1.637zM12.522 19.48a1.346 1.346 0 0 1-1.344 1.344H2.2A1.346 1.346 0 0 1 .858 19.48v-8.966A1.345 1.345 0 0 1 2.2 9.171h8.975a1.345 1.345 0 0 1 1.344 1.343v8.966zm0 0" class="cls-2" transform="translate(1 .909)"/>
    <path id="Path_73601" d="M51.14 239.715a1.19 1.19 0 1 0 1.192 1.19 1.192 1.192 0 0 0-1.192-1.19zm0 1.568a.378.378 0 1 1 .38-.378.379.379 0 0 1-.38.378zm0 0" class="cls-2" transform="translate(-46.918 -227.953)"/>
    <path id="Path_73602" d="M127.933 304.5a1.191 1.191 0 1 0 1.191 1.19 1.192 1.192 0 0 0-1.191-1.19zm0 1.57a.379.379 0 1 1 .379-.379.379.379 0 0 1-.379.375zm0 0" class="cls-2" transform="translate(-120.258 -289.931)"/>
    <path id="Path_73603" d="M204.019 240.023a1.19 1.19 0 1 0 1.192 1.19 1.192 1.192 0 0 0-1.192-1.19zm0 1.569a.378.378 0 1 1 .38-.378.379.379 0 0 1-.38.378zm0 0" class="cls-2" transform="translate(-193.052 -228.248)"/>
    <path id="Path_73604" d="M51.14 377.211a1.19 1.19 0 1 0 1.192 1.19 1.192 1.192 0 0 0-1.192-1.19zm0 1.568a.378.378 0 1 1 .38-.378.379.379 0 0 1-.38.378zm0 0" class="cls-2" transform="translate(-46.918 -359.347)"/>
    <path id="Path_73605" d="M204.019 377.523a1.19 1.19 0 1 0 1.192 1.19 1.192 1.192 0 0 0-1.192-1.19zm0 1.568a.378.378 0 1 1 .38-.378.379.379 0 0 1-.38.379zm0 0" class="cls-2" transform="translate(-193.052 -359.646)"/>
    <path id="Path_73606" d="M362.335 19.207h.007a.4.4 0 0 0 .067.006.406.406 0 0 0 .066-.807h-.007a.406.406 0 1 0-.134.8zm0 0" class="cls-2" transform="translate(-345.407 -16.265)"/>
</svg>
