<svg xmlns="http://www.w3.org/2000/svg" width="22" height="22" viewBox="0 0 22 22">
    <defs>
        <style>
            .cls-2{fill:#fff}
        </style>
    </defs>
    <g id="Group_3127" transform="translate(-121 -100)">
        <g id="Component_39_1" transform="translate(121 100)">
            <circle id="Ellipse_85" cx="11" cy="11" r="11" fill="#50a6fe"/>
        </g>
        <g id="Icon_material-photo-camera" transform="translate(123 102)">
            <path id="Path_4413" d="M17.416 15.308a2.108 2.108 0 1 1-2.108-2.108 2.108 2.108 0 0 1 2.108 2.108z" class="cls-2" transform="translate(-6.2 -6.1)"/>
            <path id="Path_4414" d="M7.278 3L6.159 4.222H4.222A1.226 1.226 0 0 0 3 5.444v7.333A1.226 1.226 0 0 0 4.222 14H14a1.226 1.226 0 0 0 1.222-1.222V5.444A1.226 1.226 0 0 0 14 4.222h-1.937L10.944 3zm1.833 9.167a3.056 3.056 0 1 1 3.056-3.056 3.057 3.057 0 0 1-3.056 3.056z" class="cls-2"/>
        </g>
    </g>
</svg>
