<svg xmlns="http://www.w3.org/2000/svg" id="Group_491" width="20" height="22.759" viewBox="0 0 20 22.759">
    <defs>
        <clipPath id="clip-path">
            <path id="Rectangle_1984" d="M0 0H20V22.759H0z" class="cls-1"/>
        </clipPath>
        <style>
            .cls-1{fill:#6b7088}
        </style>
    </defs>
    <g id="Group_367" clip-path="url(#clip-path)">
        <path id="Path_768" d="M0 19.247c.118-.159.224-.328.356-.474A10.363 10.363 0 0 0 3 13.136a17.982 17.982 0 0 0 .106-1.9c.025-.814-.028-1.633.053-2.441a6.639 6.639 0 0 1 2.408-4.5A6.773 6.773 0 0 1 8 2.966v-.935a2 2 0 0 1 4-.08c.012.274.014.549 0 .822-.008.157.052.212.192.26a6.81 6.81 0 0 1 3.964 3.449 7.063 7.063 0 0 1 .737 3.193c.012.94-.016 1.883.045 2.82a10.154 10.154 0 0 0 2.37 5.891c.15.183.311.358.473.53a.674.674 0 0 1 .154.8.66.66 0 0 1-.667.383c-1.91-.005-3.821 0-5.731 0h-.2a10 10 0 0 1-.556 1.151 3.184 3.184 0 0 1-2.3 1.476.751.751 0 0 0-.124.04h-.714a.82.82 0 0 0-.125-.04A3.242 3.242 0 0 1 7.06 20.98a8.2 8.2 0 0 1-.364-.888h-.23c-1.866 0-3.732-.009-5.6.007A.816.816 0 0 1 0 19.6zm17.878-.5c-.065-.1-.11-.163-.156-.229a11.174 11.174 0 0 1-2.074-5.477c-.1-1.1-.065-2.2-.1-3.306a7.975 7.975 0 0 0-.06-.908 5.549 5.549 0 0 0-11.049.7v2.044a11.8 11.8 0 0 1-1.979 6.665c-.108.164-.218.327-.341.512zM8.143 20.1a1.943 1.943 0 0 0 1.973 1.317 1.9 1.9 0 0 0 1.728-1.317zM9.34 2.681h1.326V2.17a2.042 2.042 0 0 0-.007-.243.672.672 0 0 0-.642-.592.654.654 0 0 0-.672.555 7.82 7.82 0 0 0-.005.793" class="cls-1"/>
        <path id="Path_769" d="M0 57.952c.057-.379.1-.759.173-1.136a9.774 9.774 0 0 1 2.433-4.876q.135-.148.273-.292a.656.656 0 0 1 .965-.074.677.677 0 0 1 .014.972 17.273 17.273 0 0 0-1.148 1.437 8.256 8.256 0 0 0-1.375 4.587.7.7 0 0 1-.347.671.65.65 0 0 1-.911-.272c-.024-.044-.051-.085-.077-.127z" class="cls-1" transform="translate(0 -49.107)"/>
        <path id="Path_770" d="M361.75 58.481a.714.714 0 0 1-.373.805.666.666 0 0 1-.959-.6 17.36 17.36 0 0 0-.266-2.085 8.2 8.2 0 0 0-2.117-3.887 1.4 1.4 0 0 1-.313-.446.647.647 0 0 1 .313-.76.673.673 0 0 1 .811.139 9.965 9.965 0 0 1 2.9 6.834" class="cls-1" transform="translate(-341.759 -49.136)"/>
    </g>
</svg>
