<svg xmlns="http://www.w3.org/2000/svg" id="Group_2982" width="22.976" height="23.022" viewBox="0 0 22.976 23.022">
    <defs>
        <clipPath id="clip-path">
            <path id="Rectangle_2090" d="M0 0H22.976V23.022H0z" class="cls-1"/>
        </clipPath>
        <style>
            .cls-1{fill:#a4a9c3}
        </style>
    </defs>
    <g id="Group_2981" clip-path="url(#clip-path)">
        <path id="Path_2491" d="M12.207 0c.428.058.86.1 1.284.178A11.335 11.335 0 0 1 21.1 5.214a10.707 10.707 0 0 1 1.859 6.638 11.088 11.088 0 0 1-6.611 10A10.873 10.873 0 0 1 5.6 21.317 11.182 11.182 0 0 1 .1 13c-.04-.265-.066-.532-.1-.8v-1.437c.05-.383.088-.769.153-1.15a11.3 11.3 0 0 1 3.155-6.18A11.268 11.268 0 0 1 9.509.176C9.927.1 10.35.058 10.77 0zM21.9 11.488a10.411 10.411 0 1 0-10.43 10.4 10.427 10.427 0 0 0 10.43-10.4" class="cls-1"/>
        <path id="Path_2492" d="M116.5 119.57a5.854 5.854 0 0 1-2.754-.784 15.943 15.943 0 0 1-6.841-7.064 4.914 4.914 0 0 1-.556-2.709 2.447 2.447 0 0 1 1.456-2.151c.477-.212.957-.421 1.446-.6a1.356 1.356 0 0 1 1.675.584q.639 1.066 1.244 2.153a1.38 1.38 0 0 1-.46 1.854c-.056.038-.114.072-.169.11a.814.814 0 0 0-.2 1.23 12.936 12.936 0 0 0 2.371 2.372.815.815 0 0 0 1.267-.248 1.5 1.5 0 0 1 1.041-.74 1.3 1.3 0 0 1 .887.157c.728.412 1.456.825 2.173 1.255a1.353 1.353 0 0 1 .578 1.658c-.188.5-.4 1-.624 1.486a2.48 2.48 0 0 1-2.106 1.425c-.1.013-.194.013-.291.018h-.135m-.147-1.077a1.652 1.652 0 0 0 1.822-1.073c.151-.341.288-.688.426-1.034.114-.287.073-.395-.2-.55l-1.882-1.086c-.333-.191-.431-.167-.641.151a1.9 1.9 0 0 1-2.878.476 13.986 13.986 0 0 1-2.495-2.5 2.258 2.258 0 0 1-.295-.5 1.894 1.894 0 0 1 .81-2.369c.283-.185.315-.3.149-.592q-.559-.97-1.122-1.938c-.137-.235-.256-.282-.5-.185-.409.163-.811.343-1.22.505a1.439 1.439 0 0 0-.912 1.323 4.032 4.032 0 0 0 .486 2.2 14.9 14.9 0 0 0 6.236 6.459 5.109 5.109 0 0 0 2.211.709" class="cls-1" transform="translate(-101.544 -101.389)"/>
    </g>
</svg>
