<svg xmlns="http://www.w3.org/2000/svg" id="Group_3024" width="24.142" height="24.1" viewBox="0 0 24.142 24.1">
    <defs>
        <clipPath id="clip-path">
            <path id="Rectangle_2115" d="M0 0H24.142V24.1H0z" class="cls-1"/>
        </clipPath>
        <style>
            .cls-1{fill:#a4a9c3}
        </style>
    </defs>
    <g id="Group_3023" clip-path="url(#clip-path)">
        <path id="Path_2539" d="M11.513 24.1a12.564 12.564 0 0 0 6.4-1.505 15.681 15.681 0 0 0 1.484-.974.57.57 0 0 0 .134-.807.6.6 0 0 0-.841-.138c-.145.09-.28.2-.42.3a10.794 10.794 0 0 1-12.983-.489 10.6 10.6 0 0 1-3.87-10.33 10.475 10.475 0 0 1 2.3-5A1.141 1.141 0 0 0 4 4.5a.709.709 0 0 0-.387-.47c-.307-.147-.549.053-.739.294C-.177 8.2-.872 12.472 1.142 16.961A11.523 11.523 0 0 0 11.513 24.1m12.629-12.08c-.028-.376-.048-.917-.113-1.453A12.023 12.023 0 0 0 7.585.893 19.465 19.465 0 0 0 5.23 2.169a.561.561 0 0 0-.23.815.6.6 0 0 0 .865.172c.149-.084.287-.187.432-.278a10.557 10.557 0 0 1 7.376-1.57 10.836 10.836 0 0 1 9.26 10.372 10.569 10.569 0 0 1-2.245 7c-.3.393-.294.746.008.971.323.241.624.16.933-.245a12.06 12.06 0 0 0 2.513-7.386" class="cls-1"/>
        <path id="Path_2540" d="M77.314 81.206c-.451-.434-.818-.792-1.191-1.143a.887.887 0 0 1 .546-1.574c1.144-.067 2.289-.127 3.434-.188.895-.048 1.79-.092 2.684-.143.767-.044 1.159.305 1.123 1.064-.1 2.053-.211 4.106-.326 6.158a.877.877 0 0 1-.611.838.853.853 0 0 1-.964-.257c-.373-.369-.747-.736-1.17-1.153-.249.269-.481.537-.73.788q-1.826 1.837-3.659 3.666a.926.926 0 0 1-1.5 0q-1.079-1.074-2.153-2.153a.9.9 0 0 1-.005-1.469q2.05-2.06 4.108-4.111a4.687 4.687 0 0 1 .415-.321m5.03 3.434l.092-.048.282-5.253-5.261.3a4.341 4.341 0 0 0 .659.752c.6.6.591 1.011-.016 1.617q-2.029 2.026-4.06 4.051c-.1.1-.192.2-.265.281l1.965 1.938c1.386-1.381 2.8-2.785 4.206-4.191.773-.771 1.105-.776 1.864-.01.182.184.356.377.533.567" class="cls-1" transform="translate(-66.669 -71.958)"/>
        <path id="Path_2541" d="M11.512 70.3a11.523 11.523 0 0 1-10.371-7.14c-2.013-4.489-1.318-8.76 1.73-12.639.19-.242.433-.441.739-.294A.709.709 0 0 1 4 50.7a1.141 1.141 0 0 1-.285.654 10.473 10.473 0 0 0-2.3 5 10.6 10.6 0 0 0 3.869 10.328 10.794 10.794 0 0 0 12.983.489c.14-.1.275-.205.42-.3a.6.6 0 0 1 .841.138.57.57 0 0 1-.134.807 15.676 15.676 0 0 1-1.485.974 12.564 12.564 0 0 1-6.4 1.505" class="cls-1" transform="translate(0 -46.199)"/>
        <path id="Path_2542" d="M81.135 12.019a12.06 12.06 0 0 1-2.513 7.386c-.309.405-.609.486-.933.245-.3-.225-.307-.578-.008-.971a10.569 10.569 0 0 0 2.245-7 10.836 10.836 0 0 0-9.262-10.372 10.557 10.557 0 0 0-7.376 1.57c-.145.091-.283.194-.432.278a.6.6 0 0 1-.865-.172.561.561 0 0 1 .23-.815A19.465 19.465 0 0 1 64.577.893a12.023 12.023 0 0 1 16.444 9.674c.065.536.084 1.077.113 1.453" class="cls-1" transform="translate(-56.993)"/>
    </g>
</svg>
