<svg id="_Button_Deposit-Tutorials" data-name="[Button] Deposit-Tutorials" xmlns="http://www.w3.org/2000/svg" width="24" height="24">
    <defs>
        <style>
            .cls-2{isolation:isolate}
        </style>
    </defs>
    <g id="Group_6131" data-name="Group 6131">
        <circle id="Ellipse_85" data-name="Ellipse 85" cx="12" cy="12" r="12" style="fill:#48a2ff"/>
    </g>
    <g id="_" class="cls-2" transform="translate(-1053.593 -526.012)">
        <g id="Group_6169" data-name="Group 6169" class="cls-2" transform="translate(1061.593 532.012)">
            <path id="Path_68531" data-name="Path 68531" d="M1061.593 535.325a2.852 2.852 0 0 1 .487-1.526 3.752 3.752 0 0 1 1.424-1.28 4.514 4.514 0 0 1 2.185-.507 4.7 4.7 0 0 1 2.048.425 3.328 3.328 0 0 1 1.372 1.152 2.815 2.815 0 0 1 .483 1.585 2.431 2.431 0 0 1-.276 1.181 3.664 3.664 0 0 1-.655.876q-.381.367-1.364 1.241a5.391 5.391 0 0 0-.437.431 1.837 1.837 0 0 0-.245.341 1.608 1.608 0 0 0-.123.308c-.03.1-.074.284-.132.544a.888.888 0 0 1-.952.824.98.98 0 0 1-.7-.269 1.052 1.052 0 0 1-.284-.8 2.79 2.79 0 0 1 .761-2.009 12.586 12.586 0 0 1 .927-.877q.512-.442.74-.67a2.269 2.269 0 0 0 .385-.5 1.21 1.21 0 0 0 .156-.6 1.392 1.392 0 0 0-.477-1.07 1.745 1.745 0 0 0-1.227-.436 1.705 1.705 0 0 0-1.3.44 3.49 3.49 0 0 0-.7 1.3q-.273.9-1.032.9a1.017 1.017 0 0 1-.756-.314.952.952 0 0 1-.308-.69zm3.9 8.687a1.267 1.267 0 0 1-.852-.313 1.091 1.091 0 0 1-.363-.877 1.122 1.122 0 0 1 .351-.84 1.2 1.2 0 0 1 .865-.341 1.158 1.158 0 0 1 .848.341 1.137 1.137 0 0 1 .344.84 1.1 1.1 0 0 1-.359.873 1.224 1.224 0 0 1-.827.317z" transform="translate(-1061.593 -532.012)" style="fill:#fff"/>
        </g>
    </g>
</svg>
