<svg xmlns="http://www.w3.org/2000/svg" id="Group_489" width="27.355" height="25.139" viewBox="0 0 27.355 25.139">
    <defs>
        <clipPath id="clip-path">
            <path id="Rectangle_1982" d="M0 0H27.355V25.139H0z" class="cls-1"/>
        </clipPath>
        <style>
            .cls-1{fill:#6b7088}
        </style>
    </defs>
    <g id="Group_363" clip-path="url(#clip-path)">
        <path id="Path_763" d="M0 11.073c.268-.955.476-1.932.813-2.862a12.52 12.52 0 0 1 24.153 2.605 5.506 5.506 0 0 1 .113 1.326c-.036.323-.235.843-.447.89-.558.124-.546-.4-.565-.787a11.728 11.728 0 0 0-1.72-5.695 11.481 11.481 0 0 0-21.239 5.169 10.94 10.94 0 0 0 5.833 10.855c4.155 2.343 8.33 2.021 12.309-.635.591-.395.871-.889.5-1.553a.933.933 0 0 0-1.422-.35c-2.772 1.5-4.829 1.159-7.1-1.044a24.89 24.89 0 0 1-5.639-8.609 5.419 5.419 0 0 1 3.669-7.131 1.534 1.534 0 0 1 1.882 1.114c.294 1.015.538 2.048.747 3.084a1.558 1.558 0 0 1-1.038 1.944c-1.278.649-1.28.65-.48 1.865Q11.68 13.25 13 15.235c.492.739.745.758 1.335.12 1-1.082 1.511-1.163 2.756-.435q.938.549 1.875 1.1c1.362.8 1.54 1.519.715 2.855 1.787 1.387 1.736 2.876-.149 4.14a12.383 12.383 0 0 1-5.014 1.968 2.615 2.615 0 0 0-.45.157h-3.016a1.73 1.73 0 0 0-.364-.156 12.355 12.355 0 0 1-9.935-8.193A27.4 27.4 0 0 1 0 14.087zm15.385 8.846A4.513 4.513 0 0 0 18.9 18.1a.593.593 0 0 0-.195-1.022c-.628-.36-1.273-.7-1.863-1.113a1.175 1.175 0 0 0-1.9.246 1.492 1.492 0 0 1-2.548-.03c-1.182-1.687-2.31-3.412-3.415-5.151a1.491 1.491 0 0 1 .574-2.16 5.818 5.818 0 0 0 .88-.464c.209-.189.455-.538.415-.769a23.143 23.143 0 0 0-.707-2.915.848.848 0 0 0-.741-.377A4.3 4.3 0 0 0 6.537 9.9a23.484 23.484 0 0 0 5.839 8.75 4.542 4.542 0 0 0 3.01 1.265" class="cls-1" transform="translate(-.001)"/>
        <path id="Path_764" d="M129.037 59.066l-3.472-2.872a.421.421 0 1 1 .537-.649l2.773 2.294 1.987-2.795a.421.421 0 1 1 .687.488z" class="cls-1" transform="translate(-104.272 -45.618)"/>
    </g>
</svg>
