<svg xmlns="http://www.w3.org/2000/svg" id="Group_346" width="22" height="22" viewBox="0 0 22 22">
    <defs>
        <clipPath id="clip-path">
            <path id="Rectangle_1971" d="M0 0H22V22H0z" class="cls-1"/>
        </clipPath>
        <style>
            .cls-1{fill:#fff}
        </style>
    </defs>
    <g id="Group_345" clip-path="url(#clip-path)">
        <path id="Path_734" d="M37.408 23.651c2.532.184 3.438 1.57 3.438 3.268a5.574 5.574 0 0 1-4.98 5.263c-.693 1.966-1.853 3.07-3.409 3.07a1.41 1.41 0 0 1-1.584-1.415 1.145 1.145 0 0 1 .99-1.118 1.314 1.314 0 0 0 .863.523c.453 0 .807-.679 1.174-2.009.453-1.655.962-3.975 1.316-5.446a4.338 4.338 0 0 0-2.009.877.685.685 0 0 1-.651-.75c0-.919 1.316-1.924 3.212-2.207a1.352 1.352 0 0 1 1.217-.821c.4 0 .424.113.424.764m-.4 2.15c-.141 1.188-.4 3.028-.707 4.626a1.09 1.09 0 0 0 .2.014c1.231 0 2.122-1.372 2.122-2.9 0-.792-.325-1.5-1.613-1.74" class="cls-1" transform="translate(-24.807 -18.39)"/>
        <path id="Path_735" d="M11 22a11 11 0 1 1 11-11 11.013 11.013 0 0 1-11 11m0-20.821A9.821 9.821 0 1 0 20.821 11 9.832 9.832 0 0 0 11 1.179" class="cls-1"/>
    </g>
</svg>
