<svg xmlns="http://www.w3.org/2000/svg" width="38.327" height="33.464" viewBox="0 0 38.327 33.464">
    <defs>
        <style>
            .cls-1{fill:#8d8d8d}
        </style>
    </defs>
    <g id="shop_2_" transform="translate(0 -31.05)">
        <g id="Group_3194" transform="translate(0 31.05)">
            <path id="Path_4448" d="M255.992 263.75h-5.208a2.587 2.587 0 0 0-2.584 2.584v3.994a2.587 2.587 0 0 0 2.584 2.584h5.208a2.587 2.587 0 0 0 2.584-2.584v-3.994a2.587 2.587 0 0 0-2.584-2.584zm.7 6.578a.707.707 0 0 1-.7.7h-5.208a.707.707 0 0 1-.7-.7v-3.994a.707.707 0 0 1 .7-.7h5.208a.707.707 0 0 1 .7.7z" class="cls-1" transform="translate(-228.762 -245.526)"/>
            <path id="Path_4449" d="M38.327 42.014a.872.872 0 0 0-.125-.462L32.5 31.528a.945.945 0 0 0-.814-.478H6.633a.929.929 0 0 0-.814.478L.125 41.552a.95.95 0 0 0-.125.462 5.5 5.5 0 0 0 3.289 5.028v16.532a.943.943 0 0 0 .94.94H34.09a.943.943 0 0 0 .94-.94V47.159a.414.414 0 0 0-.008-.1 5.513 5.513 0 0 0 3.305-5.045zM7.181 32.937h23.957l4.456 7.839H2.733zm20.1 9.711a3.612 3.612 0 0 1-7.111 0zm-9.108 0a3.617 3.617 0 0 1-7.119 0zm-16.227 0h7.115a3.617 3.617 0 0 1-7.119 0zm13.842 19.986h-5.4V52.492a1.339 1.339 0 0 1 1.339-1.339h2.733a1.339 1.339 0 0 1 1.34 1.339v10.142zm17.362 0H17.668V52.492a3.224 3.224 0 0 0-3.219-3.219h-2.733A3.224 3.224 0 0 0 8.5 52.492v10.15H5.169V47.5c.11.008.219.008.329.008a5.491 5.491 0 0 0 4.558-2.428 5.492 5.492 0 0 0 9.116 0 5.478 5.478 0 0 0 9.1 0 5.491 5.491 0 0 0 4.558 2.428c.11 0 .211-.008.321-.008v15.13zm-.321-17a3.61 3.61 0 0 1-3.555-2.976h7.119a3.632 3.632 0 0 1-3.564 2.974z" class="cls-1" transform="translate(0 -31.05)"/>
        </g>
    </g>
</svg>
