<svg xmlns="http://www.w3.org/2000/svg" id="Group_3010" width="28.389" height="23.608" viewBox="0 0 28.389 23.608">
    <defs>
        <clipPath id="clip-path">
            <path id="Rectangle_2108" d="M0 0H28.389V23.608H0z" class="cls-1"/>
        </clipPath>
        <style>
            .cls-1{fill:#a4a9c3}
        </style>
    </defs>
    <g id="Group_3009" clip-path="url(#clip-path)">
        <path id="Path_2510" d="M21.513 23.607l-3.137-1.234c-.225-.088-.389-.227-.349-.5.043-.289.322-.413.652-.282.78.311 1.555.631 2.334.945a4.311 4.311 0 0 0 .519.189.9.9 0 0 0 1.074-.474c.318-.714.6-1.446.907-2.2h-8.5L15 20.1l1.78.723c.077.031.156.057.231.093a.418.418 0 0 1 .258.559.428.428 0 0 1-.585.207c-.626-.248-1.249-.5-1.874-.754a12.665 12.665 0 0 0-2.214-.855 12.968 12.968 0 0 0-2.4-.044H7.119a2.123 2.123 0 0 1-.3-.017.367.367 0 0 1-.338-.4.353.353 0 0 1 .345-.393c.378-.021.757-.016 1.135-.019h.91v-8.057c-.139.105-.26.2-.379.288a7.019 7.019 0 0 0-2.515 3.493.413.413 0 0 1-.548.32c-.241-.084-.33-.287-.238-.593a7.324 7.324 0 0 1 1.89-3.084c.251-.252.518-.489.8-.756H2.456V18.02c0 .824.356 1.177 1.183 1.179.508 0 1.017-.005 1.524 0a.4.4 0 0 1 .452.386.373.373 0 0 1-.372.426A18.653 18.653 0 0 1 3.14 20a1.753 1.753 0 0 1-1.515-1.832c-.009-.757-.012-1.515 0-2.272a.369.369 0 0 0-.282-.421 1.838 1.838 0 0 1-1.317-1.463A1.948 1.948 0 0 1 .182 12.9c.445-1.093.892-2.185 1.326-3.283a1.59 1.59 0 0 0 .109-.56c.01-1.192 0-2.383.005-3.575A1.774 1.774 0 0 1 3.5 3.581a.591.591 0 0 0 .665-.469c.231-.651.508-1.286.772-1.925A1.789 1.789 0 0 1 7.388.161c.5.2 1.011.4 1.514.61.3.122.419.34.331.575-.1.253-.328.326-.65.2-.489-.194-.976-.392-1.464-.587a1 1 0 0 0-1.434.6c-.268.655-.531 1.313-.807 2h8.587c-.153-.076-.233-.123-.319-.158-.922-.376-1.847-.745-2.767-1.129a.667.667 0 0 1-.351-.277.454.454 0 0 1 .064-.419.558.558 0 0 1 .464-.1c.523.178 1.03.4 1.543.61 1.146.463 2.29.93 3.439 1.385a1.5 1.5 0 0 0 .535.1q4.338.009 8.676 0a2.018 2.018 0 0 1 1.281.36 1.866 1.866 0 0 1 .734 1.569q.008 1.15 0 2.3c0 .148.032.241.185.288a2.014 2.014 0 0 1 1.44 1.5v.61c-.059.163-.113.328-.178.489-.442 1.094-.891 2.186-1.325 3.283a1.591 1.591 0 0 0-.113.559c-.01 1.2-.005 2.4 0 3.6a1.824 1.824 0 0 1-.752 1.557 1.9 1.9 0 0 1-1.336.346.312.312 0 0 0-.362.245c-.274.7-.542 1.413-.862 2.1a2.661 2.661 0 0 1-.631.85 3.185 3.185 0 0 1-.81.386zm-10.7-12.8c.392.418.8.83 1.185 1.268A7.111 7.111 0 0 1 13.44 14.7a.409.409 0 0 1-.343.57c-.261.013-.391-.144-.469-.383A7.289 7.289 0 0 0 9.9 11.251a.925.925 0 0 0-.161-.077V19.2h15.028c.8 0 1.164-.368 1.165-1.171V10.802zm15.119-.883v-.28-4.073a1.02 1.02 0 0 0-1.17-1.171H9.736v4.379c.208-.274.378-.513.562-.74a4.5 4.5 0 0 1 1.624-1.393 1.6 1.6 0 0 1 2.1.643 1.488 1.488 0 0 1-.267 2.045c-.215.206-.463.377-.727.588zm-20.325.018c-.291-.232-.54-.4-.758-.611a1.545 1.545 0 0 1-.543-1.251 1.715 1.715 0 0 1 2.7-1.266 5.911 5.911 0 0 1 1.538 1.541l.318.429V4.418a1.211 1.211 0 0 0-.13-.016c-1.754 0-3.508-.007-5.263 0a.961.961 0 0 0-1.01 1.015c-.011.526 0 1.052 0 1.578v2.686c0 .129-.023.262.183.261h2.969m2.928-.018a6.849 6.849 0 0 0-1.971-2.393 1.392 1.392 0 0 0-.429-.182.772.772 0 0 0-.426.027.8.8 0 0 0-.249 1.4 5.684 5.684 0 0 0 3.071 1.147m1.482.013c.4-.073.734-.114 1.054-.195a4.411 4.411 0 0 0 2.122-1.011.676.676 0 0 0 .138-.965A.774.774 0 0 0 12.3 7.4a1.7 1.7 0 0 0-.387.213 8.1 8.1 0 0 0-1.892 2.325m16.771-1v2.912c.254-.518.474-1.041.676-1.57a.956.956 0 0 0-.676-1.342M1.6 14.665v-2.959a.762.762 0 0 0-.068.1c-.2.494-.407.985-.6 1.482a.964.964 0 0 0 .668 1.377" class="cls-1"/>
        <path id="Path_2511" d="M364.809 213.247c.047-.662.126-.806.428-.808s.395.154.427.738a6.573 6.573 0 0 1 .7.567.447.447 0 0 1 0 .706c-.211.161-.415.1-.646-.189a.6.6 0 0 0-.859-.08.447.447 0 0 0 .174.76 2.431 2.431 0 0 0 .431.095 1.382 1.382 0 0 1 .282 2.711c-.026.01-.05.024-.093.046 0 .121.008.25 0 .378a.408.408 0 0 1-.412.4.423.423 0 0 1-.413-.405.393.393 0 0 1 0-.111c.042-.222-.057-.319-.266-.393a1.285 1.285 0 0 1-.8-.824.414.414 0 1 1 .763-.325.8.8 0 0 0 .965.436.539.539 0 0 0 .44-.531.469.469 0 0 0-.384-.5 3.92 3.92 0 0 0-.46-.094 1.317 1.317 0 0 1-1.187-1.136 1.361 1.361 0 0 1 .834-1.393l.083-.043" class="cls-1" transform="translate(-343.523 -200.638)"/>
    </g>
</svg>
