<svg xmlns="http://www.w3.org/2000/svg" id="Group_512" width="34" height="33.464" viewBox="0 0 34 33.464">
    <defs>
        <clipPath id="clip-path">
            <path id="Rectangle_2051" d="M0 0H34V33.464H0z" class="cls-1"/>
        </clipPath>
        <style>
            .cls-1{fill:#8d8d8d}
        </style>
    </defs>
    <g id="Group_501" clip-path="url(#clip-path)">
        <path id="Path_880" d="M8.765 0h.4c.2.142.477.239.6.432a17.653 17.653 0 0 1 2.069 4.024 2.943 2.943 0 0 1-1.423 3.534c-.484.263-.484.263-.41.857.176.026.363.039.543.083a1.917 1.917 0 0 1 1.441 2.009v6.04H14v-.369-5.839a1.874 1.874 0 0 1 1.464-1.85c.17-.038.346-.048.527-.073v-.642C14.056 7.2 13.518 5.78 14.4 3.786c.448-1.017 1.029-1.976 1.548-2.963A1.571 1.571 0 0 1 16.8 0h.4c.2.144.472.245.6.439A17.988 17.988 0 0 1 19.872 4.5a2.827 2.827 0 0 1-.452 2.637 3.063 3.063 0 0 1-1.414 1.055v.643a1.237 1.237 0 0 0 .166.047A1.875 1.875 0 0 1 20 10.971V16.982h2.014v-.405-3.981c0-.674-.015-1.35.029-2.022a1.828 1.828 0 0 1 1.676-1.685c.1-.01.192-.029.324-.049-.092-.267.163-.575-.246-.751a2.973 2.973 0 0 1-1.6-3.762 22.1 22.1 0 0 1 1.808-3.57A1.553 1.553 0 0 1 24.836 0h.4c.2.147.466.251.591.446a18.59 18.59 0 0 1 1.993 3.809 2.966 2.966 0 0 1-1.62 3.866.409.409 0 0 0-.175.263 2.306 2.306 0 0 0-.008.451 2.021 2.021 0 0 0 .2.048 1.867 1.867 0 0 1 1.8 2.045V17.012c.523 0 1-.021 1.472 0a2.658 2.658 0 0 1 2.618 2.733c-.031.762-.008 1.526 0 2.29a2.129 2.129 0 0 1-.627 1.59.654.654 0 0 0-.208.521q.009 3.468 0 6.936v.381c.5 0 .969.025 1.429-.006a1.179 1.179 0 0 1 1.299.75v.465a1.182 1.182 0 0 1-1.266.792Q17 33.451 1.264 33.456a2.158 2.158 0 0 1-.526-.049.978.978 0 0 1-.582-1.479.99.99 0 0 1 .9-.463h1.64a1.271 1.271 0 0 0 .023-.146v-7.3a.552.552 0 0 0-.16-.331 2.249 2.249 0 0 1-.662-1.58c0-.852-.005-1.7 0-2.556a2.356 2.356 0 0 1 .714-1.7A2.953 2.953 0 0 1 4.8 17h1.176v-.4-5.842a1.866 1.866 0 0 1 1.7-1.874c.095-.009.188-.031.274-.046.061-.622.061-.622-.186-.737a2.887 2.887 0 0 1-1.6-3.747c.478-1.2 1.146-2.335 1.732-3.5A1.6 1.6 0 0 1 8.765 0m20.5 31.448v-7.017c-.869-.255-1.719-.492-2.561-.754a7.694 7.694 0 0 0-3.662-.356 24.457 24.457 0 0 0-2.694.679 11.5 11.5 0 0 1-3.919.539 14.075 14.075 0 0 1-3.615-.8 8.458 8.458 0 0 0-4.992-.214c-1.03.286-2.052.6-3.084.9v7.018zM17.034 18.992H4.984a2.824 2.824 0 0 0-.5.026.633.633 0 0 0-.6.727v2.025c0 .593.231.767.812.6.7-.2 1.4-.407 2.1-.621a9.54 9.54 0 0 1 4.648-.368c1.006.192 1.994.488 2.981.769a9.335 9.335 0 0 0 2.974.4 12.429 12.429 0 0 0 3.288-.741 10.546 10.546 0 0 1 6.647-.028c.693.223 1.394.425 2.1.616.441.12.685-.079.686-.524v-2.125a.633.633 0 0 0-.6-.73 2.778 2.778 0 0 0-.5-.027H17.034M7.99 16.982h1.975v-6.109H7.99zm8.02-.009h1.973v-6.09H16.01zm8.01 0h1.994v-6.09H24.02zM17.077 3.029h-.156c-.3.683-.62 1.359-.891 2.053a.928.928 0 0 0 .371 1.08 1 1 0 0 0 1.177.014.924.924 0 0 0 .4-1.07c-.271-.7-.6-1.389-.9-2.081m-8.026.01l-.145-.013c-.293.66-.606 1.312-.872 1.982a.943.943 0 0 0 .355 1.168 1.008 1.008 0 0 0 1.2-.023A.942.942 0 0 0 9.917 5c-.266-.663-.575-1.309-.866-1.962M25.1 3.032l-.146-.006c-.3.673-.619 1.337-.891 2.021a.938.938 0 0 0 .356 1.115 1.009 1.009 0 0 0 1.205 0 .931.931 0 0 0 .355-1.113c-.269-.679-.579-1.344-.879-2.017" class="cls-1"/>
    </g>
</svg>
