<svg xmlns="http://www.w3.org/2000/svg" width="20.053" height="17.821" viewBox="0 0 20.053 17.821">
    <path fill="#4ba3fe" d="M14.016 2.9l3.14 3.14a.34.34 0 0 1 0 .48l-7.6 7.6-3.231.359a.677.677 0 0 1-.748-.748l.355-3.231 7.6-7.6a.34.34 0 0 1 .484 0zm5.64-.8L17.957.4a1.362 1.362 0 0 0-1.922 0L14.8 1.636a.34.34 0 0 0 0 .48l3.14 3.14a.34.34 0 0 0 .48 0l1.232-1.232a1.362 1.362 0 0 0 0-1.922zm-6.287 9.953V15.6H2.228V4.46h8a.428.428 0 0 0 .3-.122l1.393-1.393a.418.418 0 0 0-.3-.714h-9.95A1.671 1.671 0 0 0 0 3.9v12.257a1.671 1.671 0 0 0 1.671 1.671h12.255a1.671 1.671 0 0 0 1.674-1.671v-5.493a.419.419 0 0 0-.714-.3L13.49 11.76a.428.428 0 0 0-.122.296z" transform="translate(0 -.007)"/>
</svg>
