<svg xmlns="http://www.w3.org/2000/svg" id="Group_350" width="18.126" height="21.638" viewBox="0 0 18.126 21.638">
    <defs>
        <clipPath id="clip-path">
            <path id="Rectangle_1973" d="M0 0H18.126V21.638H0z" class="cls-1"/>
        </clipPath>
        <style>
            .cls-1{fill:#fff}
        </style>
    </defs>
    <g id="Group_349" clip-path="url(#clip-path)">
        <path id="Path_737" d="M18.126 79.759a.9.9 0 0 0-.117.239 3.508 3.508 0 0 1-3.748 3.219q-5.223.016-10.447 0A3.455 3.455 0 0 1 .038 79.8a9.327 9.327 0 0 1 1.042-5.435A5.623 5.623 0 0 1 2.893 72.5a2.627 2.627 0 0 1 3.15.155 4.845 4.845 0 0 0 5.965.033 3.067 3.067 0 0 1 4.19.538 7.908 7.908 0 0 1 1.787 4.837c.035.327.094.651.141.977zM9 81.946v-.017c1.824 0 3.649.032 5.472-.01a2.135 2.135 0 0 0 2.28-2.187 9.781 9.781 0 0 0-.64-4.305 4.769 4.769 0 0 0-.561-1 2 2 0 0 0-3.01-.579 6.1 6.1 0 0 1-7.094-.048 1.9 1.9 0 0 0-2.717.359 4.24 4.24 0 0 0-.6.888 9.1 9.1 0 0 0-.844 3.976c-.069 2.053.753 2.907 2.813 2.918 1.632.009 3.264 0 4.9 0" class="cls-1" transform="translate(0 -61.588)"/>
        <path id="Path_738" d="M31.5 0a6.149 6.149 0 0 1 3 1.733 5.221 5.221 0 0 1 .564 6.218 5.2 5.2 0 0 1-9.64-2.78A5.216 5.216 0 0 1 29.182.184c.151-.047.294-.122.441-.184zm-4.815 5.221a3.931 3.931 0 1 0 7.861-.059 3.931 3.931 0 0 0-7.861.059" class="cls-1" transform="translate(-21.731)"/>
    </g>
</svg>
