<svg xmlns="http://www.w3.org/2000/svg" id="Group_348" width="24.326" height="19.788" viewBox="0 0 24.326 19.788">
    <defs>
        <clipPath id="clip-path">
            <path id="Rectangle_1972" d="M0 0H24.326V19.788H0z" class="cls-1"/>
        </clipPath>
        <style>
            .cls-1{fill:#fff}
        </style>
    </defs>
    <g id="Group_347" clip-path="url(#clip-path)">
        <path id="Path_736" d="M24.326 9.224a3.6 3.6 0 0 1-3.268 2.617c0 1.51.005 2.962 0 4.413 0 .974-.273 1.159-1.177.8-3.123-1.258-6.238-2.533-9.366-3.777a9.847 9.847 0 0 0-1.506-.324c.359 1.35.687 2.481.956 3.625a2.444 2.444 0 0 1-.894 2.6 2.2 2.2 0 0 1-2.71.259 3.569 3.569 0 0 1-1.317-1.627c-.521-1.408-.833-2.893-1.274-4.333a3.082 3.082 0 0 0-.579-.9A12.457 12.457 0 0 0 1 10.652a2.9 2.9 0 0 1 .757-4.833c.393-.19.7-.548 1.081-.777A12.629 12.629 0 0 1 4.443 4.2a1.838 1.838 0 0 1 .88-.066 16.73 16.73 0 0 0 9.132-1.792C16.3 1.475 18.224.775 20.112 0h.648a5.277 5.277 0 0 1 .284 1.136c.035 1.34.014 2.682.014 4 2.139.633 2.319.781 3.268 2.636zM19.937 1.44a.855.855 0 0 0-.226 0c-2.9 1.148-5.8 2.289-8.692 3.471a.94.94 0 0 0-.422.72c-.034 1.992 0 3.985-.031 5.977a.794.794 0 0 0 .616.869c2.707 1.061 5.4 2.149 8.1 3.224.192.076.4.124.651.2zM9.513 5.183c-1.635 0-3.193-.026-4.751.01a1.48 1.48 0 0 0-1.493 1.5q-.052 1.934 0 3.871A1.283 1.283 0 0 0 4.5 11.929c1.656.073 3.317.023 5.012.023zM4.782 13.03c.429 1.571.8 3 1.212 4.41A1.515 1.515 0 0 0 7.9 18.6a1.5 1.5 0 0 0 1.008-1.926c-.248-1.072-.541-2.135-.862-3.187a.753.753 0 0 0-.532-.439c-.851-.048-1.709-.018-2.732-.018M21.1 10.664a2.1 2.1 0 0 0 2.168-2.216A2.03 2.03 0 0 0 21.1 6.4zm-18.986-.518V6.883a1.713 1.713 0 0 0-.988 1.8 1.584 1.584 0 0 0 .988 1.467" class="cls-1"/>
    </g>
</svg>
