<svg xmlns="http://www.w3.org/2000/svg" id="Group_488" width="29.602" height="26.501" viewBox="0 0 29.602 26.501">
    <defs>
        <clipPath id="clip-path">
            <path id="Rectangle_1979" d="M0 0H29.602V26.501H0z" class="cls-1"/>
        </clipPath>
        <style>
            .cls-1{fill:#6b7088}
        </style>
    </defs>
    <g id="Group_357" clip-path="url(#clip-path)">
        <path id="Path_750" d="M29.6 9.912c-.713 1.379-1.457 2.744-2.131 4.143a3.014 3.014 0 0 0 .484 3.056 5.761 5.761 0 0 1 .4 1.027c-.359.094-.771.351-1.069.254-1.137-.368-2.231-.864-3.354-1.279a2.721 2.721 0 0 0-1.141-.227c-.879.084-1.973 0-2.557.487-.566.474-.548 1.6-.88 2.4-1.451 3.516-5.609 5.907-9.7 5.614a3.762 3.762 0 0 1-.39-.052c-1.824-.323-3.608-.629-5.244.733a3.772 3.772 0 0 1-1.887.425 1.03 1.03 0 0 1-.846-.276c-.107-.179.1-.578.221-.855.225-.5.55-.969.726-1.486a2.174 2.174 0 0 0-.432-2.191 7.652 7.652 0 0 1 .942-10.791C4.521 9.3 5.953 8.7 9.586 8.014A8.563 8.563 0 0 1 12.627 2.4c4.816-4.028 12.8-2.823 15.881 2.434A19.224 19.224 0 0 1 29.6 7.545zM3.146 25.006l.179.213a9.339 9.339 0 0 0 1.8-1.121 1.529 1.529 0 0 1 1.756-.336 10.185 10.185 0 0 0 7.835-.639c5.087-2.66 5.543-9 .884-12.247a9.993 9.993 0 0 0-11.748.572C.627 14.192.319 17.955 2.906 21.31a4.918 4.918 0 0 1 .538 2.39 4.2 4.2 0 0 1-.3 1.31M20 16.208c1.034-.2 1.976-.327 2.877-.588a1.385 1.385 0 0 1 1.5.3 13.651 13.651 0 0 0 1.9 1.2c.129-.2.163-.229.161-.254a1.234 1.234 0 0 0-.05-.289 3.749 3.749 0 0 1 .65-3.923 6.335 6.335 0 0 0-.037-8.012 9.778 9.778 0 0 0-14.04-1 6.465 6.465 0 0 0-2.138 4.38 8.4 8.4 0 0 1 2.015.392c2.146 1.028 4.417.789 6.667.8 1.413.009 2.825 0 4.238 0a2.141 2.141 0 0 1 .775.071c.171.069.4.33.375.471a.812.812 0 0 1-.422.536 2.1 2.1 0 0 1-.779.037h-6.823A9.009 9.009 0 0 1 20 16.208" class="cls-1"/>
        <path id="Path_751" d="M28.736 93.989c-1.442 0-2.885.034-4.324-.025-.335-.014-.658-.345-.986-.53.31-.209.617-.6.93-.6q4.422-.07 8.846 0c.317 0 .628.39.942.6-.328.186-.651.519-.986.532-1.472.059-2.948.025-4.422.025" class="cls-1" transform="translate(-18.776 -74.378)"/>
        <path id="Path_752" d="M39.319 75.579c1.117 0 2.236-.035 3.351.024.276.014.535.333.8.511-.249.213-.493.6-.746.609q-3.449.073-6.9 0c-.254 0-.5-.394-.751-.6.264-.181.522-.5.795-.518 1.147-.059 2.3-.025 3.449-.025" class="cls-1" transform="translate(-28.112 -60.568)"/>
        <path id="Path_753" d="M24.994 76.4c-.393.273-.6.523-.812.529-.171.006-.517-.317-.493-.434a.827.827 0 0 1 .475-.573c.178-.039.425.229.83.478" class="cls-1" transform="translate(-18.986 -60.849)"/>
        <path id="Path_754" d="M87.721 29.015c1.116 0 2.233-.034 3.346.024.276.014.536.325.8.5-.272.209-.541.593-.817.6q-3.346.074-6.693 0c-.286-.006-.565-.37-.847-.568.287-.185.567-.513.864-.53 1.112-.064 2.23-.025 3.346-.025" class="cls-1" transform="translate(-66.934 -23.246)"/>
        <path id="Path_755" d="M73.086 29.755c-.356.278-.571.575-.767.563s-.387-.325-.58-.506c.181-.189.345-.5.547-.531s.433.242.8.474" class="cls-1" transform="translate(-57.498 -23.468)"/>
    </g>
</svg>
