<svg xmlns="http://www.w3.org/2000/svg" id="Group_493" width="19.348" height="25.089" viewBox="0 0 19.348 25.089">
    <defs>
        <clipPath id="clip-path">
            <path id="Rectangle_1986" d="M0 0H19.348V25.089H0z" class="cls-1"/>
        </clipPath>
        <style>
            .cls-1{fill:#6b7088}
        </style>
    </defs>
    <g id="Group_371" clip-path="url(#clip-path)">
        <path id="Path_774" d="M19.348 5.35v18.223a2.352 2.352 0 0 1-2.237 1.517c-4.977-.028-9.954-.008-14.932-.015a1.945 1.945 0 0 1-2.162-2.107q-.034-8.477 0-16.955a1.991 1.991 0 0 1 2.2-2.166 6.833 6.833 0 0 1 1.249.009c1.244.208 2.02-.756 3.013-1.163a.763.763 0 0 0 .335-.46A3.452 3.452 0 0 1 9 0h1.336a3.513 3.513 0 0 1 2.187 2.231 1.185 1.185 0 0 0 .53.607c1.08.585 2.123 1.258 3.473 1.022a2.422 2.422 0 0 1 2.826 1.49m-15.4-.529H2.468C1.256 4.83.982 5.1.982 6.286v16.3c0 1.274.242 1.519 1.5 1.519h14.357c1.256 0 1.5-.251 1.5-1.521V6.371c0-.222.072-.507-.036-.655-.24-.327-.538-.766-.877-.833a10.765 10.765 0 0 0-2.057-.038V7.68H3.951zM14.38 6.71a2.243 2.243 0 0 0-1.4-2.864 3.919 3.919 0 0 1-1.434-1.488c-.5-.885-1.026-1.4-1.888-1.374a2.122 2.122 0 0 0-1.883 1.392 3.761 3.761 0 0 1-1.444 1.479A2.213 2.213 0 0 0 4.959 6.71z" class="cls-1"/>
        <path id="Path_775" d="M34.491 97.8v.857H23.016l-.066-.857z" class="cls-1" transform="translate(-19.088 -81.341)"/>
        <path id="Path_776" d="M23.236 64.21v-.843h11.492l.05.843z" class="cls-1" transform="translate(-19.326 -52.703)"/>
        <path id="Path_777" d="M34.538 80.653v.837H23.049l-.061-.837z" class="cls-1" transform="translate(-19.119 -67.08)"/>
        <path id="Path_778" d="M28.746 114.491v.925h-5.668c-.2-.65-.085-.954.655-.937 1.658.039 3.318.012 5.013.012" class="cls-1" transform="translate(-19.121 -95.213)"/>
        <path id="Path_779" d="M54.24 14.686c-.314-.47-.653-.754-.624-.992.031-.258.407-.474.632-.708.234.251.6.475.659.76.041.206-.333.494-.667.94" class="cls-1" transform="translate(-44.592 -10.801)"/>
    </g>
</svg>
