<svg xmlns="http://www.w3.org/2000/svg" width="160" height="26" viewBox="0 0 160 26">
    <defs>
        <style>
            .cls-1{fill:#00509b}
        </style>
    </defs>
    <g id="Group_7270" transform="translate(-28.119 -33.28)">
        <path id="Path_74482" d="M172.74 47.255l-.053.2-2.358 8.72a4.665 4.665 0 0 1-4.374 3.109h-18.811c-1.953 0-3.158-1.392-2.694-3.109l1.083-4h9.881l-1.05 3.886h6.118l2.325-8.6h-7.654l.9-3.308h14c1.947-.01 3.153 1.384 2.687 3.102zm2.936-10.861l-1.554 5.75h-9.88l1.521-5.632h-6.118l-1.032 3.819h-9.88l1.06-3.919a4.71 4.71 0 0 1 4.4-3.125h18.791c1.951-.001 3.157 1.391 2.692 3.107z" class="cls-1" transform="translate(-49.481 -0.002)"/>
        <path id="Path_74483" d="M226.356 47.257l-.053.2-2.358 8.721a4.665 4.665 0 0 1-4.374 3.109l-18.79-.006c-1.958 0-3.179-1.388-2.714-3.109l5.341-19.756a4.708 4.708 0 0 1 4.4-3.125h22.326l-3.773 3.226h-13.1l-2.061 7.626h12.46c1.953 0 3.162 1.394 2.696 3.114zm-9.934.2H210.3l-2.324 8.6h6.124z" class="cls-1" transform="translate(-72.307 -0.002)"/>
        <path id="Path_74484" d="M278.558 47.255l-.053.2-2.358 8.72a4.665 4.665 0 0 1-4.374 3.109h-22.345l.84-3.109 9.913-.117h6.119l2.326-8.6h-16l.188-.7.342-1.265.363-1.343 2.09-7.732a4.711 4.711 0 0 1 4.4-3.125h22.325l-3.773 3.226h-13.1l-2.061 7.624h12.46c1.953 0 3.162 1.394 2.698 3.112z" class="cls-1" transform="translate(-94.214 -0.002)"/>
        <g id="Group_7210" transform="translate(28.119 33.28)">
            <path id="Path_74485" fill="#0099db" d="M50.938 56.078a3.233 3.233 0 0 0 .543 1.348l25.81-13.391 2.247-7.518h6.754l-1.007 3.369 11.291-5.858a3.5 3.5 0 0 0-2.293-.749h-20.8a5.29 5.29 0 0 0-.884.081l.031-.079H61.7l-4.67 11.955-.994-6.55c-.2-1.284-1.468-2.141-3.183-2.141h-2.082a5.783 5.783 0 0 0-4.463 2.139l-4.915 6.55L43.87 33.28H32.938l-4.765 23c-.351 1.688 1.027 3 3.155 3h2.978a8.7 8.7 0 0 0 6.7-3.2l8.229-10.911z" transform="translate(-28.119 -33.28)"/>
            <path id="Path_74486" d="M103.653 42.25l-4.36 14.587h-6.755l3.009-10.066L72.367 59.7a6.444 6.444 0 0 0 2.19.373h2.977a5.881 5.881 0 0 0 4.066-1.692 2.917 2.917 0 0 0 2.954 1.691h20.8c2.16 0 4.326-1.392 4.839-3.111l5.907-19.778a2.2 2.2 0 0 0-.176-1.777z" class="cls-1" transform="translate(-46.956 -34.072)"/>
        </g>
    </g>
</svg>
