<svg xmlns="http://www.w3.org/2000/svg" width="160" height="36" viewBox="0 0 160 36">
    <defs>
        <filter id="Path_74482" width="41.068" height="35.995" x="61.745" y=".003" filterUnits="userSpaceOnUse">
            <feOffset dy="1"/>
            <feGaussianBlur result="blur" stdDeviation="2"/>
            <feFlood flood-opacity=".639"/>
            <feComposite in2="blur" operator="in"/>
            <feComposite in="SourceGraphic"/>
        </filter>
        <filter id="Path_74483" width="41.752" height="35.997" x="90.227" y=".003" filterUnits="userSpaceOnUse">
            <feOffset dy="1"/>
            <feGaussianBlur result="blur-2" stdDeviation="2"/>
            <feFlood flood-opacity=".639"/>
            <feComposite in2="blur-2" operator="in"/>
            <feComposite in="SourceGraphic"/>
        </filter>
        <filter id="Path_74484" width="42.437" height="35.995" x="117.563" y=".003" filterUnits="userSpaceOnUse">
            <feOffset dy="1"/>
            <feGaussianBlur result="blur-3" stdDeviation="2"/>
            <feFlood flood-opacity=".639"/>
            <feComposite in2="blur-3" operator="in"/>
            <feComposite in="SourceGraphic"/>
        </filter>
        <filter id="Path_74485" width="75.323" height="36" x="0" y="0" filterUnits="userSpaceOnUse">
            <feOffset dy="1"/>
            <feGaussianBlur result="blur-4" stdDeviation="2"/>
            <feFlood flood-opacity=".639"/>
            <feComposite in2="blur-4" operator="in"/>
            <feComposite in="SourceGraphic"/>
        </filter>
        <filter id="Path_74486" width="52.553" height="34.769" x="23.505" y="1.231" filterUnits="userSpaceOnUse">
            <feOffset dy="1"/>
            <feGaussianBlur result="blur-5" stdDeviation="2"/>
            <feFlood flood-opacity=".639"/>
            <feComposite in2="blur-5" operator="in"/>
            <feComposite in="SourceGraphic"/>
        </filter>
        <style>
            .cls-1{fill:#fff}
        </style>
    </defs>
    <g id="Group_7270" transform="translate(-22.119 -28.28)">
        <g filter="url(#Path_74482)" transform="matrix(1, 0, 0, 1, 22.12, 28.28)">
            <path id="Path_74482-2" d="M170.611 46.181l-.049.181-2.181 8.05a4.315 4.315 0 0 1-4.046 2.87h-17.4c-1.807 0-2.921-1.285-2.492-2.87l1-3.695h9.14l-.972 3.587h5.659l2.151-7.942h-7.08l.828-3.053h12.946c1.808-.001 2.926 1.285 2.496 2.872zm2.716-10.026l-1.437 5.307h-9.14l1.407-5.2H158.5l-.955 3.525H148.4l.981-3.618a4.356 4.356 0 0 1 4.069-2.885h17.382c1.809.002 2.925 1.287 2.494 2.871z" class="cls-1" transform="translate(-76.61 -28.28)"/>
        </g>
        <g filter="url(#Path_74483)" transform="matrix(1, 0, 0, 1, 22.12, 28.28)">
            <path id="Path_74483-2" d="M224.227 46.182l-.049.181-2.178 8.05a4.314 4.314 0 0 1-4.046 2.87l-17.38-.006c-1.811 0-2.941-1.281-2.51-2.87L203 36.171a4.355 4.355 0 0 1 4.069-2.885h20.651l-3.49 2.977h-12.115l-1.908 7.045h11.526c1.806 0 2.925 1.286 2.494 2.874zm-9.189.181h-5.659l-2.15 7.937h5.659z" class="cls-1" transform="translate(-101.74 -28.28)"/>
        </g>
        <g filter="url(#Path_74484)" transform="matrix(1, 0, 0, 1, 22.12, 28.28)">
            <path id="Path_74484-2" d="M276.373 46.181l-.049.181-2.181 8.05a4.315 4.315 0 0 1-4.046 2.87h-20.669l.777-2.87 9.169-.108h5.659l2.152-7.942h-14.8l.174-.645.316-1.168.336-1.24 1.933-7.137a4.357 4.357 0 0 1 4.069-2.885h20.651l-3.49 2.977H264.26l-1.908 7.045h11.526c1.806-.001 2.922 1.285 2.495 2.872z" class="cls-1" transform="translate(-125.86 -28.28)"/>
        </g>
        <g id="Group_7210">
            <g filter="url(#Path_74485)" transform="translate(28.119 33.28) matrix(1, 0, 0, 1, -6, -5)">
                <path id="Path_74485-2" d="M49.227 54.324a2.981 2.981 0 0 0 .5 1.245L73.6 43.208l2.079-6.939h6.248L81 39.378l10.444-5.408a3.244 3.244 0 0 0-2.121-.691H70.082a4.9 4.9 0 0 0-.818.075l.029-.073H59.177l-4.32 11.036-.92-6.046c-.181-1.185-1.358-1.976-2.945-1.976h-1.92a5.354 5.354 0 0 0-4.128 1.974L40.4 44.314l2.289-11.034H32.577l-4.408 21.234c-.325 1.558.95 2.766 2.919 2.766h2.754a8.051 8.051 0 0 0 6.194-2.956l7.612-10.071z" class="cls-1" transform="translate(-22.12 -28.28)"/>
            </g>
            <g filter="url(#Path_74486)" transform="translate(28.119 33.28) matrix(1, 0, 0, 1, -6, -5)">
                <path id="Path_74486-2" d="M101.307 41.723l-4.033 13.465h-6.249l2.783-9.288-21.441 11.93a5.972 5.972 0 0 0 2.026.345h2.754a5.446 5.446 0 0 0 3.753-1.561 2.7 2.7 0 0 0 2.732 1.561h19.239a4.761 4.761 0 0 0 4.476-2.871l5.469-18.257a2.028 2.028 0 0 0-.163-1.64z" class="cls-1" transform="translate(-42.86 -29.17)"/>
            </g>
        </g>
    </g>
</svg>
