<svg xmlns="http://www.w3.org/2000/svg" id="Group_2947" width="44.914" height="30.337" viewBox="0 0 44.914 30.337">
    <defs>
        <clipPath id="clip-path">
            <path id="Rectangle_2076" d="M0 0H44.914V30.337H0z" class="cls-1"/>
        </clipPath>
        <style>
            .cls-1{fill:#a4a9c3}
        </style>
    </defs>
    <g id="Group_2946" clip-path="url(#clip-path)">
        <path id="Path_2455" d="M134.762 12.056a6.9 6.9 0 0 1-.029-10.407 6.812 6.812 0 1 1 8.789 10.41c.3.027.554.038.806.075a5.709 5.709 0 0 1 5.071 5.748c.033 4.435.012 7.074.011 11.509a1.487 1.487 0 0 1-.048.42.686.686 0 0 1-.743.525.669.669 0 0 1-.689-.59 3.561 3.561 0 0 1-.03-.611V18.097a4.233 4.233 0 0 0-2.614-4.162 5.074 5.074 0 0 0-2.454-.316c-.129.007-.278.175-.368.3-.843 1.213-1.674 2.435-2.512 3.652-.523.76-1.04.759-1.572-.01-.76-1.1-1.546-2.182-2.253-3.314a1.274 1.274 0 0 0-1.293-.662 4.491 4.491 0 0 0-2.908 1.045 4.321 4.321 0 0 0-1.5 3.472c.01 4.262 0 6.728 0 10.99a4.917 4.917 0 0 1-.017.565.7.7 0 0 1-.717.672.711.711 0 0 1-.76-.679 4.108 4.108 0 0 1-.016-.518c0-4.262.039-6.729-.018-10.99a5.841 5.841 0 0 1 5.725-6.058.58.58 0 0 0 .131-.034m.029-8.148a5.21 5.21 0 0 0 .934 6.9 5.273 5.273 0 0 0 7.256-.348 5.139 5.139 0 0 0 .541-6.545 10.682 10.682 0 0 1-8.731-.012m7.671-1.168a5.065 5.065 0 0 0-6.551 0 9.392 9.392 0 0 0 6.551 0m-1.644 10.893h-3.307l1.641 2.391c.119-.155.207-.26.284-.372.449-.653.895-1.308 1.381-2.019" class="cls-1" transform="translate(-116.717)"/>
        <path id="Path_2456" d="M325.449 39.2a5.741 5.741 0 0 1 7.467-8.722 5.826 5.826 0 0 1 .282 8.578c.309.059.6.1.883.17a4.762 4.762 0 0 1 3.719 4.493c.054 3.773.022 5.751.019 9.525a.741.741 0 0 1-.769.824c-.474 0-.749-.315-.749-.885v-9.054a3.329 3.329 0 0 0-2.5-3.405 5.338 5.338 0 0 0-1.353-.123.721.721 0 0 0-.46.317c-.678.964-1.331 1.946-2 2.917-.474.688-1.014.689-1.489 0-.672-.969-1.333-1.945-2.012-2.908a.8.8 0 0 0-.413-.331c-.927-.19-1.117-.6-.624-1.4m.266-6.562a4.128 4.128 0 0 0 .763 5.416 4.215 4.215 0 0 0 5.766-.24c1.381-1.41 1.62-3.906.494-5.16a8.5 8.5 0 0 1-7.023-.016m5.914-1.166a3.951 3.951 0 0 0-4.76 0 7.19 7.19 0 0 0 4.76 0m-1.28 9.143h-2.244l1.123 1.633 1.121-1.633" class="cls-1" transform="translate(-292.917 -26.396)"/>
        <path id="Path_2457" d="M4.633 39.021a5.8 5.8 0 0 1 .135-8.47 5.733 5.733 0 1 1 7.581 8.6c.056.083.122.166.172.258a.715.715 0 0 1-.571 1.109.79.79 0 0 0-.667.423c-.65.965-1.312 1.921-1.978 2.875-.459.658-1 .654-1.462-.009-.68-.982-1.341-1.978-2.037-2.948a.823.823 0 0 0-.563-.305 3.394 3.394 0 0 0-3.729 3.658v8.678a3.622 3.622 0 0 1-.011.471.692.692 0 0 1-.678.66.691.691 0 0 1-.779-.54 1.5 1.5 0 0 1-.043-.419c0-3.617-.013-5.438 0-9.056a4.861 4.861 0 0 1 3.833-4.851c.242-.056.489-.086.792-.137m.414-6.429a4.148 4.148 0 0 0 .745 5.4 4.224 4.224 0 0 0 5.6-.031A4.15 4.15 0 0 0 12.1 32.6a8.518 8.518 0 0 1-7.054-.008m5.917-1.163a3.967 3.967 0 0 0-4.761 0 7.2 7.2 0 0 0 4.761 0M9.7 40.577H7.457l1.12 1.639L9.7 40.577" class="cls-1" transform="translate(0 -26.348)"/>
    </g>
</svg>
