<svg xmlns="http://www.w3.org/2000/svg" id="Group_2959" width="15.399" height="17.988" viewBox="0 0 15.399 17.988">
    <defs>
        <clipPath id="clip-path">
            <path id="Rectangle_2081" d="M0 0H15.399V17.988H0z" class="cls-1"/>
        </clipPath>
        <style>
            .cls-1{fill:#6b7088}
        </style>
    </defs>
    <g id="Group_2958" clip-path="url(#clip-path)">
        <path id="Path_2475" d="M50.318 4.515a4.457 4.457 0 0 1-4.454 4.528 4.51 4.51 0 0 1-4.5-4.577A4.484 4.484 0 0 1 45.871 0a4.419 4.419 0 0 1 4.447 4.515m-4.451 3.279a3.252 3.252 0 0 0 3.289-3.264 3.309 3.309 0 1 0-6.618-.039 3.25 3.25 0 0 0 3.33 3.3" class="cls-1" transform="translate(-38.177 -.001)"/>
        <path id="Path_2476" d="M1.187 142.172H.013c-.238-3.561 2.816-7.111 6.581-7.579a7.739 7.739 0 0 1 8.8 7.552h-1.237a6.526 6.526 0 0 0-2.615-5.063 6.037 6.037 0 0 0-4.071-1.306 6.542 6.542 0 0 0-6.284 6.4" class="cls-1" transform="translate(0 -124.184)"/>
    </g>
</svg>
