<svg xmlns="http://www.w3.org/2000/svg" id="Group_2955" width="28.977" height="16.874" viewBox="0 0 28.977 16.874">
    <defs>
        <clipPath id="clip-path">
            <path id="Rectangle_2079" d="M0 0H28.977V16.874H0z" class="cls-1"/>
        </clipPath>
        <style>
            .cls-1{fill:#6b7088}
        </style>
    </defs>
    <g id="Group_2954" clip-path="url(#clip-path)">
        <path id="Path_2465" d="M8.372 141.7a6.136 6.136 0 0 1 5.894-6 5.661 5.661 0 0 1 3.818 1.225 6.12 6.12 0 0 1 2.453 4.749H21.7a7.258 7.258 0 0 0-8.258-7.084 7.124 7.124 0 0 0-6.171 7.11zm20.5 0a5.636 5.636 0 0 0-2.338-5.472 5.7 5.7 0 0 0-6-.354l.766.85a4.684 4.684 0 0 1 4.672.6 4.809 4.809 0 0 1 1.817 4.372zm-20.5-5.809a5.549 5.549 0 0 0-6.331.606C.446 137.74-.39 140.075.187 141.65h.9a4.741 4.741 0 0 1 6.513-4.934l.764-.825" class="cls-1" transform="translate(0 -124.825)"/>
        <path id="Path_2466" d="M150.436 4.234a4.181 4.181 0 0 1-4.178 4.247 4.23 4.23 0 0 1-4.225-4.293A4.205 4.205 0 0 1 146.266 0a4.145 4.145 0 0 1 4.171 4.234m-4.174 3.075a3.05 3.05 0 0 0 3.084-3.061 3.1 3.1 0 1 0-6.207-.037 3.049 3.049 0 0 0 3.123 3.1" class="cls-1" transform="translate(-131.79)"/>
        <path id="Path_2467" d="M101.788 141.7h-1.1a7.123 7.123 0 0 1 6.173-7.109 7.258 7.258 0 0 1 8.258 7.083h-1.164a6.121 6.121 0 0 0-2.453-4.749 5.662 5.662 0 0 0-3.819-1.225 6.136 6.136 0 0 0-5.894 6" class="cls-1" transform="translate(-93.416 -124.826)"/>
        <path id="Path_2468" d="M275.058 34.082a3.6 3.6 0 0 1 3.6 3.56 3.652 3.652 0 0 1-3.694 3.649 3.584 3.584 0 0 1-3.559-3.738 3.528 3.528 0 0 1 3.649-3.471m2.259 3.6a2.274 2.274 0 0 0-2.322-2.344 2.426 2.426 0 0 0-2.35 2.368A2.378 2.378 0 0 0 274.984 40a2.248 2.248 0 0 0 2.333-2.317" class="cls-1" transform="translate(-251.839 -31.625)"/>
        <path id="Path_2469" d="M36.126 37.678a3.576 3.576 0 0 1-3.608 3.613 3.651 3.651 0 0 1-3.645-3.621 3.592 3.592 0 0 1 3.652-3.589 3.514 3.514 0 0 1 3.6 3.6m-5.909.014A2.253 2.253 0 0 0 32.565 40a2.385 2.385 0 0 0 2.325-2.307 2.425 2.425 0 0 0-2.365-2.354 2.274 2.274 0 0 0-2.309 2.357" class="cls-1" transform="translate(-26.791 -31.624)"/>
        <path id="Path_2470" d="M293.1 150.125h-1.084a4.809 4.809 0 0 0-1.817-4.372 4.684 4.684 0 0 0-4.672-.6l-.766-.85a5.7 5.7 0 0 1 6 .354 5.636 5.636 0 0 1 2.338 5.472" class="cls-1" transform="translate(-264.224 -133.251)"/>
        <path id="Path_2471" d="M8.368 144.01l-.764.825a4.741 4.741 0 0 0-6.517 4.934h-.9c-.577-1.576.26-3.911 1.854-5.153a5.549 5.549 0 0 1 6.331-.606" class="cls-1" transform="translate(0 -132.945)"/>
    </g>
</svg>
