<svg xmlns="http://www.w3.org/2000/svg" id="Group_3070" width="25.769" height="25.995" viewBox="0 0 25.769 25.995">
    <defs>
        <clipPath id="clip-path">
            <path id="Rectangle_2140" d="M0 0H25.769V25.995H0z" class="cls-1"/>
        </clipPath>
        <style>
            .cls-1{fill:#6b7088}
        </style>
    </defs>
    <g id="Group_3070-2" clip-path="url(#clip-path)">
        <path id="Path_4351" d="M25.769 16.794a3.113 3.113 0 0 1-2.569 2.52c-.154.027-.335.337-.35.525-.248 2.978-1.964 4.565-5.718 4.778-.291.016-.579.062-.923.1-.122 1.076-.882 1.349-1.991 1.265-.81-.061-1.631-.008-2.447-.015a1.8 1.8 0 0 1-.671-.067c-1.227-.54-.691-1.556-.76-2.389a1.02 1.02 0 0 1 1.1-1.11c1.172-.053 2.35-.048 3.522-.007.853.03 1.119.593 1.166 1.245 3.592.244 5.653-1.3 5.554-4.132-1.563-.3-1.563-.3-1.563-1.752v-7.443c0-1.355 0-1.355 1.637-1.535a7.33 7.33 0 0 0-3.55-6.2 9.529 9.529 0 0 0-9.58-.667C5.7 3.222 3.779 6.139 4 8.787a5.736 5.736 0 0 0 .727.068c.6-.014.829.276.829.749q.008 4.5 0 9c0 .511-.245.817-.889.789-.521-.022-1.046.013-1.567-.013-1.791-.087-2.958-1.017-3.039-2.6C-.031 15-.007 13.2.055 11.418a2.607 2.607 0 0 1 2.121-2.436 1.034 1.034 0 0 0 .624-.675C3.323 4 6.332 1.03 11.123.144A1.75 1.75 0 0 0 11.467 0h2.743c.049.036.094.1.148.1 4.715.592 8.33 4.268 8.51 8.273.008.188.179.507.327.533a3.152 3.152 0 0 1 2.574 2.516zM4.357 18.3V9.914c-2.545-.273-3.272.288-3.273 2.471v3.535c0 2.068.826 2.675 3.273 2.378m16.957.022c2.511.216 3.183-.275 3.25-2.371.039-1.208.027-2.417.028-3.626 0-2.06-.857-2.7-3.278-2.4zm-6.4 5.1h-3.4v1.5h3.4z" class="cls-1" transform="translate(0 -.001)"/>
    </g>
</svg>
