<svg xmlns="http://www.w3.org/2000/svg" width="42" height="42" viewBox="0 0 42 42">
    <defs>
        <style>
            .cls-2{fill:#fff}
        </style>
    </defs>
    <g id="Group_3450" transform="translate(-314 -1377)">
        <g id="Group_3169" transform="translate(276 1260)">
            <circle id="Ellipse_87" cx="21" cy="21" r="21" fill="#4fa5fe" transform="translate(38 117)"/>
            <g id="Group_3170" transform="translate(26.225 157.889)">
                <g id="Group_3075" transform="translate(22.312 -31.242)">
                    <path id="Path_2502" d="M174.494 140.47a6.117 6.117 0 0 1-2.724-.622 5 5 0 0 1-1.121-.759 1.489 1.489 0 0 1-.25-2.045 3.808 3.808 0 0 1 1.129-1.1 4.817 4.817 0 0 1-.513-1.068c-.067.049-.137.1-.21.14l-.1.059a5.021 5.021 0 0 1-.86.45 1.075 1.075 0 0 1-.893-.013 1.129 1.129 0 0 1-.553-.757 3.222 3.222 0 0 1 .007-1.625 15.226 15.226 0 0 1 1.952-4.84.078.078 0 0 0 .008-.021 26.206 26.206 0 0 1 .264-3.308 7.652 7.652 0 0 1 .657-2.476 7.447 7.447 0 0 1 4.938-4.015 8.135 8.135 0 0 1 7.149 1.26 7.2 7.2 0 0 1 2.61 3.476 14.842 14.842 0 0 1 .831 5.068.32.32 0 0 0 0 .052 12.425 12.425 0 0 1 1.8 4.377 12.776 12.776 0 0 1 .216 1.436 1.218 1.218 0 0 1-1.8 1.391 3.556 3.556 0 0 1-.924-.5l-.473.956c.055.027.11.057.165.089a1.993 1.993 0 0 1 .051 3.514 5.318 5.318 0 0 1-2.189.674 9.639 9.639 0 0 1-3.234-.072 5.774 5.774 0 0 1-1.2-.421 1.556 1.556 0 0 0-1.2-.041l-.309.1a15.218 15.218 0 0 1-1.815.509 7.424 7.424 0 0 1-1.41.14m-3.133-6.8l.177.46c.042.109.082.219.121.324a3.62 3.62 0 0 0 .69 1.314l.315.33-.452.288-.147.094a3.3 3.3 0 0 0-1.034.96.753.753 0 0 0 .117 1.089 4.242 4.242 0 0 0 .951.644 5.692 5.692 0 0 0 3.662.419 14.664 14.664 0 0 0 1.725-.486l.312-.1a2.313 2.313 0 0 1 1.745.074 5.054 5.054 0 0 0 1.044.37 8.935 8.935 0 0 0 2.989.06 4.5 4.5 0 0 0 1.887-.57 1.247 1.247 0 0 0-.043-2.229c-.092-.055-.2-.1-.3-.151l-.152-.071-.339-.165 1.261-2.551.369.382a2.744 2.744 0 0 0 1.033.666c.3.113.548.124.667.032s.165-.325.131-.642a11.811 11.811 0 0 0-.2-1.351 11.678 11.678 0 0 0-1.7-4.135.8.8 0 0 1-.122-.453 14.107 14.107 0 0 0-.786-4.816 6.463 6.463 0 0 0-2.341-3.122 7.417 7.417 0 0 0-6.518-1.146 6.726 6.726 0 0 0-4.463 3.624 6.971 6.971 0 0 0-.585 2.237 25.6 25.6 0 0 0-.258 3.217.8.8 0 0 1-.127.424 14.506 14.506 0 0 0-1.853 4.609 2.5 2.5 0 0 0-.013 1.255.451.451 0 0 0 .172.288.4.4 0 0 0 .29-.022 4.4 4.4 0 0 0 .731-.388l.1-.06a3.929 3.929 0 0 0 .36-.26c.061-.047.124-.1.19-.145zm-.994-5.409z" class="cls-2" transform="translate(-168.113 -117.951)"/>
                    <path id="Path_2503" d="M169.678 135.828a6.318 6.318 0 0 1-2.807-.641 5.19 5.19 0 0 1-1.164-.788 1.681 1.681 0 0 1-.284-2.284 3.828 3.828 0 0 1 1.032-1.054 4.835 4.835 0 0 1-.349-.73l-.022.013-.1.059a5.165 5.165 0 0 1-.892.466 1.257 1.257 0 0 1-1.044-.022 1.31 1.31 0 0 1-.648-.874 3.4 3.4 0 0 1 .005-1.718 15.442 15.442 0 0 1 1.954-4.864 26.679 26.679 0 0 1 .266-3.285 7.825 7.825 0 0 1 .675-2.536 7.627 7.627 0 0 1 5.057-4.113 8.314 8.314 0 0 1 7.306 1.288 7.382 7.382 0 0 1 2.677 3.564 15.019 15.019 0 0 1 .842 5.121 12.646 12.646 0 0 1 1.8 4.4 12.948 12.948 0 0 1 .219 1.457 1.4 1.4 0 0 1-2.053 1.586 3.8 3.8 0 0 1-.789-.4l-.3.6.012.007a2.18 2.18 0 0 1 .054 3.835 5.492 5.492 0 0 1-2.265.7 9.815 9.815 0 0 1-3.3-.075 5.953 5.953 0 0 1-1.237-.434 1.365 1.365 0 0 0-1.068-.033l-.308.1a15.359 15.359 0 0 1-1.838.515 7.642 7.642 0 0 1-1.445.143m-3.391-6.08l.086.231a4.638 4.638 0 0 0 .492 1.028l.106.156-.156.105a3.647 3.647 0 0 0-1.075 1.047 1.3 1.3 0 0 0 .217 1.806 4.812 4.812 0 0 0 1.079.73 5.947 5.947 0 0 0 2.642.6 7.265 7.265 0 0 0 1.374-.136 15.084 15.084 0 0 0 1.792-.5l.31-.1a1.731 1.731 0 0 1 1.339.049 5.591 5.591 0 0 0 1.16.408 9.464 9.464 0 0 0 3.173.069 5.143 5.143 0 0 0 2.114-.648 1.806 1.806 0 0 0-.049-3.192c-.046-.027-.1-.055-.154-.083l-.166-.083.656-1.326.181.137a3.377 3.377 0 0 0 .876.477 1.194 1.194 0 0 0 1.206-.052 1.215 1.215 0 0 0 .345-1.144 12.594 12.594 0 0 0-.212-1.415 12.24 12.24 0 0 0-1.772-4.312l-.023-.034-.007-.04a.506.506 0 0 1-.006-.083 14.66 14.66 0 0 0-.82-5 7.015 7.015 0 0 0-2.543-3.388 7.955 7.955 0 0 0-6.991-1.231 7.267 7.267 0 0 0-4.819 3.918 7.485 7.485 0 0 0-.639 2.417 26.055 26.055 0 0 0-.263 3.285v.036a.262.262 0 0 1-.034.086 15.047 15.047 0 0 0-1.927 4.782 3.04 3.04 0 0 0-.008 1.533.949.949 0 0 0 .458.64.894.894 0 0 0 .742 0 4.882 4.882 0 0 0 .828-.435l.1-.059c.062-.038.126-.081.2-.132zM169.668 135.082a5.566 5.566 0 0 1-2.48-.564 4.433 4.433 0 0 1-.994-.672.937.937 0 0 1-.15-1.328 3.468 3.468 0 0 1 1.091-1.018l.144-.092.263-.168-.157-.165a3.756 3.756 0 0 1-.73-1.378c-.036-.1-.077-.212-.12-.322l-.088-.23-.2.147c-.065.048-.127.1-.187.143a4.066 4.066 0 0 1-.378.272l-.1.06a4.534 4.534 0 0 1-.763.4.545.545 0 0 1-.441.013.6.6 0 0 1-.267-.405 2.676 2.676 0 0 1 .011-1.348A14.685 14.685 0 0 1 166 123.76a.618.618 0 0 0 .1-.322 25.736 25.736 0 0 1 .26-3.241 7.142 7.142 0 0 1 .6-2.3 6.907 6.907 0 0 1 4.582-3.722 7.6 7.6 0 0 1 6.676 1.175 6.647 6.647 0 0 1 2.408 3.211 14.292 14.292 0 0 1 .8 4.879.615.615 0 0 0 .089.348 12.324 12.324 0 0 1 1.933 5.573.879.879 0 0 1-.2.809.894.894 0 0 1-.846 0 2.93 2.93 0 0 1-1.1-.711l-.185-.191-1.06 2.144.169.082.148.069a3.515 3.515 0 0 1 .318.159 1.433 1.433 0 0 1 .045 2.55 4.672 4.672 0 0 1-1.962.6 9.11 9.11 0 0 1-3.051-.063 5.232 5.232 0 0 1-1.082-.382 2.133 2.133 0 0 0-1.61-.066l-.311.1a14.8 14.8 0 0 1-1.748.492 6.851 6.851 0 0 1-1.3.129m-3.049-6.531l.265.69.122.327a3.488 3.488 0 0 0 .649 1.249l.472.494-.648.413-.142.091a3.124 3.124 0 0 0-.977.9.572.572 0 0 0 .084.85 4.053 4.053 0 0 0 .908.615 5.509 5.509 0 0 0 3.544.4 14.522 14.522 0 0 0 1.7-.48l.312-.1a2.492 2.492 0 0 1 1.881.082 4.88 4.88 0 0 0 1 .357 8.761 8.761 0 0 0 2.928.057 4.325 4.325 0 0 0 1.811-.544 1.11 1.11 0 0 0 .507-.564 1.1 1.1 0 0 0-.547-1.344c-.084-.05-.186-.1-.284-.141l-.156-.073-.508-.247 1.462-2.957.554.573a2.558 2.558 0 0 0 .964.62c.314.116.458.082.487.06s.091-.186.06-.474a11.637 11.637 0 0 0-.2-1.33 11.5 11.5 0 0 0-1.671-4.07.976.976 0 0 1-.155-.558 13.926 13.926 0 0 0-.775-4.753 6.279 6.279 0 0 0-2.274-3.034 7.238 7.238 0 0 0-6.36-1.118 6.546 6.546 0 0 0-4.344 3.527 6.8 6.8 0 0 0-.567 2.177 25.444 25.444 0 0 0-.257 3.193.994.994 0 0 1-.156.526 14.326 14.326 0 0 0-1.829 4.551 2.315 2.315 0 0 0-.014 1.162.413.413 0 0 0 .077.17.352.352 0 0 0 .14-.03 4.267 4.267 0 0 0 .7-.372l.1-.06a3.8 3.8 0 0 0 .343-.247c.059-.046.125-.1.194-.148z" class="cls-2" transform="translate(-163.297 -113.122)"/>
                </g>
            </g>
        </g>
    </g>
</svg>
