<svg xmlns="http://www.w3.org/2000/svg" width="32.098" height="32.161" viewBox="0 0 32.098 32.161">
    <defs>
        <clipPath id="clip-path">
            <path id="Rectangle_2092" d="M0 0H32.098V32.161H0z" class="cls-1"/>
        </clipPath>
        <style>
            .cls-1{fill:#6b7088}
        </style>
    </defs>
    <g id="Group_3072" transform="translate(13 -2)">
        <g id="Group_2985" clip-path="url(#clip-path)" transform="translate(-13 2)">
            <path id="Path_2497" d="M111.955 148.947v12.968H92.1a1.554 1.554 0 0 1-.7-1.432c.025-3.589.011-7.178.012-10.767 0-1.136.316-1.45 1.465-1.45 5.857 0 11.715.007 17.572-.012a1.587 1.587 0 0 1 1.506.694M92.79 161.077h17.753c-.157-.209-.256-.351-.366-.486-1.277-1.572-2.565-3.135-3.818-4.726-.151-.191-.11-.533-.158-.8.256.107.6.144.755.332 1.087 1.286 2.135 2.6 3.2 3.912.29.357.583.711.942 1.148v-10.851c-.218.152-.368.251-.511.358l-7.43 5.579c-1.171.877-1.774.875-2.947 0q-3.717-2.787-7.43-5.579c-.153-.115-.323-.207-.5-.321v10.817l3.914-4.818a2.247 2.247 0 0 1 .449-.508c.135-.087.429-.125.515-.042a.659.659 0 0 1 .062.529c-.032.139-.187.25-.288.374l-4.137 5.086m17.624-11.966H93c.206.175.317.281.439.372q3.664 2.74 7.331 5.475c.763.568 1.062.568 1.825 0q3.067-2.285 6.128-4.577c.522-.39 1.042-.783 1.691-1.27" class="cls-1" transform="translate(-85.659 -138.94)"/>
            <path id="Path_2498" d="M109.331 159.29h-20.1l-.048-.032a1.742 1.742 0 0 1-.78-1.589c.018-2.6.016-5.235.014-7.787v-2.979c0-1.24.4-1.638 1.653-1.639h4.694c4.22 0 8.585 0 12.877-.012h.012a1.728 1.728 0 0 1 1.652.78l.03.047zm-19.987-.377h19.61v-12.722a1.4 1.4 0 0 0-1.3-.563h-.013c-4.293.014-8.658.013-12.878.012h-4.698c-1.05 0-1.276.224-1.276 1.262v2.978c0 2.553 0 5.193-.014 7.79a1.363 1.363 0 0 0 .568 1.242m18.764-.46H89.581l4.387-5.393c.036-.045.076-.085.115-.125a.555.555 0 0 0 .136-.173.659.659 0 0 0 0-.341.533.533 0 0 0-.288.055 1.25 1.25 0 0 0-.287.313l-.118.155c-1 1.224-1.99 2.449-3.026 3.724l-1.223 1.506v-11.689l.289.184c.057.036.113.07.168.1.121.073.235.143.346.226q1.764 1.323 3.527 2.648l3.9 2.931c1.108.83 1.616.831 2.721 0 1.558-1.167 3.14-2.356 4.67-3.506l2.76-2.067c.1-.073.2-.142.315-.223l.2-.139.3-.207v11.735l-.334-.407-.33-.4c-.219-.266-.416-.506-.613-.748q-.413-.508-.824-1.018c-.77-.954-1.567-1.94-2.37-2.891a.9.9 0 0 0-.395-.183.863.863 0 0 0 .089.417c.935 1.187 1.905 2.378 2.844 3.53q.487.6.972 1.194c.074.091.145.187.226.3l.144.194zm-17.734-.377h16.983c-.048-.065-.092-.122-.138-.178q-.485-.6-.972-1.194c-.94-1.153-1.912-2.346-2.848-3.535a1.117 1.117 0 0 1-.17-.636 2.466 2.466 0 0 0-.025-.252l-.06-.339.318.133a2.526 2.526 0 0 0 .241.081 1.159 1.159 0 0 1 .585.3c.806.955 1.6 1.942 2.376 2.9l.823 1.018c.194.24.391.478.607.741v-9.962c-.077.053-.144.1-.21.15l-2.759 2.073c-1.53 1.15-3.113 2.339-4.671 3.506-1.244.932-1.926.931-3.173 0q-1.953-1.464-3.9-2.931l-3.526-2.648c-.063-.047-.13-.091-.2-.135v9.949l.554-.682 3.026-3.724c.036-.044.071-.091.108-.141a1.54 1.54 0 0 1 .386-.406.71.71 0 0 1 .748-.02.818.818 0 0 1 .115.707.772.772 0 0 1-.234.351c-.034.035-.066.067-.092.1zm8.5-5.314a1.792 1.792 0 0 1-1.025-.466c-2.5-1.865-5.068-3.783-7.331-5.476-.084-.063-.163-.131-.262-.218l-.186-.161-.39-.332h18.489l-1.047.787c-.391.294-.743.559-1.1.823l-1.108.828c-1.645 1.229-3.345 2.5-5.02 3.748a1.794 1.794 0 0 1-1.025.466m-8.168-6.273l.042.032c2.258 1.693 4.827 3.611 7.329 5.481.695.518.9.518 1.6 0 1.674-1.248 3.375-2.519 5.019-3.748l1.108-.828c.352-.263.7-.528 1.094-.822l.145-.109z" class="cls-1" transform="translate(-82.846 -136.128)"/>
        </g>
    </g>
</svg>
