<svg xmlns="http://www.w3.org/2000/svg" width="21.083" height="16.398" viewBox="0 0 21.083 16.398">
    <path fill="#e6ecf4" d="M19.326 2.25H1.757A1.757 1.757 0 0 0 0 4.007v.586h21.083v-.586a1.757 1.757 0 0 0-1.757-1.757zM0 16.891a1.757 1.757 0 0 0 1.757 1.757h17.569a1.757 1.757 0 0 0 1.757-1.757V5.764H0zM12.884 8.4a.294.294 0 0 1 .293-.293h5.271a.294.294 0 0 1 .293.293v.586a.294.294 0 0 1-.293.293h-5.271a.294.294 0 0 1-.293-.293zm0 2.343a.294.294 0 0 1 .293-.293h5.271a.294.294 0 0 1 .293.293v.586a.294.294 0 0 1-.293.293h-5.271a.294.294 0 0 1-.293-.293zm0 2.343a.294.294 0 0 1 .293-.293h5.271a.294.294 0 0 1 .293.293v.586a.294.294 0 0 1-.293.293h-5.271a.294.294 0 0 1-.293-.293zm-6.442-4.98A2.343 2.343 0 1 1 4.1 10.449a2.345 2.345 0 0 1 2.342-2.343zM2.456 15.58a2.346 2.346 0 0 1 2.229-1.618h.3a3.77 3.77 0 0 0 2.914 0h.3a2.346 2.346 0 0 1 2.229 1.618.576.576 0 0 1-.571.725h-6.83a.578.578 0 0 1-.571-.725z" transform="translate(0 -2.25)"/>
</svg>
