<svg xmlns="http://www.w3.org/2000/svg" width="23.083" height="23.083" viewBox="0 0 23.083 23.083">
    <defs>
        <clipPath id="clip-path">
            <path id="Rectangle_1798" d="M0 0H23.083V23.083H0z" class="cls-1"/>
        </clipPath>
        <style>
            .cls-1{fill:#e6ecf4}
        </style>
    </defs>
    <g id="Group_218" clip-path="url(#clip-path)">
        <path id="Path_117" d="M11.542 0a11.541 11.541 0 1 0 11.541 11.542A11.542 11.542 0 0 0 11.542 0m.108 3.8a3.529 3.529 0 0 1 3.5 3.561 3.621 3.621 0 1 1-7.24 0A3.539 3.539 0 0 1 11.649 3.8M12 19.7a8.791 8.791 0 0 1-4.128-.946 3.06 3.06 0 0 1-1.99-2.678s.848-3.492 5.673-3.492c0 0 5.793 0 5.785 3.662 0 1.681-2.441 3.442-5.34 3.454" class="cls-1"/>
    </g>
</svg>
