<?xml version="1.0" encoding="utf-8"?>
<!-- Generator: Adobe Illustrator 25.0.1, SVG Export Plug-In . SVG Version: 6.00 Build 0)  -->
<svg version="1.1" id="圖層_1" xmlns="http://www.w3.org/2000/svg" xmlns:xlink="http://www.w3.org/1999/xlink" x="0px" y="0px"
	 viewBox="0 0 24.5 24.5" style="enable-background:new 0 0 24.5 24.5;" xml:space="preserve">
<style type="text/css">
	.st0{fill:#E6ECF4;}
</style>
<path class="st0" d="M19.2,8.2h-1.2V5.8c0-3.2-2.5-5.9-5.8-5.9S6.5,2.5,6.4,5.7c0,0.1,0,0.1,0,0.2v2.3H5.2c-1.3,0-2.3,1-2.3,2.3
	v11.7c0,1.3,1,2.3,2.3,2.3h14c1.3,0,2.3-1,2.3-2.3V10.5C21.6,9.2,20.5,8.2,19.2,8.2z M12.2,18.8c-1.3,0-2.3-1-2.3-2.3
	c0-1.3,1-2.3,2.3-2.3s2.3,1,2.3,2.3C14.6,17.7,13.5,18.8,12.2,18.8L12.2,18.8z M15.9,8.2H8.6V5.8c0-2,1.6-3.6,3.6-3.6
	c2,0,3.6,1.6,3.6,3.6c0,0,0,0,0,0V8.2z"/>
</svg>
