<svg xmlns="http://www.w3.org/2000/svg" id="_Icon_Sports-not_Play" width="26.824" height="24" viewBox="0 0 26.824 24">
    <defs>
        <style>
            .cls-2{fill:none;stroke-linecap:round;stroke-linejoin:round}.cls-4,.cls-5{stroke:none}.cls-5{fill:#0fa9fd}
        </style>
    </defs>
    <path id="Rectangle_3118" fill="none" d="M0 0H26.824V24H0z"/>
    <g id="Play" transform="translate(2 5)">
        <g id="Path_73190" class="cls-2">
            <path d="M28.528 10.8a.566.566 0 0 0-.36.132L24.82 13.6a.451.451 0 0 0-.155.351v3.707a.451.451 0 0 0 .155.342l3.348 2.663a.6.6 0 0 0 .36.132h.8a.379.379 0 0 0 .333-.415v-9.165a.382.382 0 0 0-.333-.415z" class="cls-4" transform="translate(-5.666 -8.801)"/>
            <path d="M28.666 11.814l-3 2.387v3.198l3 2.387v-7.972m-.138-1.014h.805c.182 0 .333.185.333.415v9.17c0 .23-.147.415-.333.415h-.805c-.128 0-.252-.049-.36-.132l-3.348-2.663c-.096-.078-.154-.21-.154-.351v-3.708c0-.141.058-.273.154-.35l3.348-2.664c.108-.088.232-.132.36-.132z" class="cls-5" transform="translate(-5.666 -8.801)"/>
        </g>
        <g id="Path_73191" class="cls-2">
            <path d="M17.1 23H5.416a3.017 3.017 0 0 1-3.166-2.811v-8.378A3.011 3.011 0 0 1 5.41 9h11.68a3.011 3.011 0 0 1 3.16 2.811v8.373A3 3 0 0 1 17.1 23z" class="cls-4" transform="translate(-2.25 -9)"/>
            <path d="M17.096 22c.635 0 1.237-.239 1.65-.654.327-.328.506-.739.504-1.162V11.81c0-.982-.99-1.811-2.16-1.811H5.41c-1.17 0-2.16.83-2.16 1.81v8.38c0 .98.992 1.81 2.166 1.81h11.68m0 1H5.416c-1.74 0-3.166-1.269-3.166-2.81v-8.38C2.25 10.264 3.676 9 5.41 9h11.68c1.74 0 3.16 1.269 3.16 2.81v8.374C20.256 21.73 18.836 23 17.096 23z" class="cls-5" transform="translate(-2.25 -9)"/>
        </g>
        <g id="_Icon_Drop" transform="rotate(-90 9 1)">
            <path id="Path_68477" fill="#0fa9fd" d="M2.678.154L.134 3.1a.541.541 0 0 0 .322.9h5.088a.541.541 0 0 0 .322-.9L3.322.154a.413.413 0 0 0-.644 0z" transform="rotate(180 3 2)"/>
        </g>
    </g>
</svg>
