<svg xmlns="http://www.w3.org/2000/svg" xmlns:xlink="http://www.w3.org/1999/xlink" width="26.824" height="24" viewBox="0 0 26.824 24">
    <defs>
        <linearGradient id="qs65k532va" x1=".5" x2=".5" y2="1" gradientUnits="objectBoundingBox">
            <stop offset="0" stop-color="#3fb9fd" stop-opacity="0"/>
            <stop offset="1" stop-color="#3fb9fd"/>
        </linearGradient>
        <linearGradient id="ahv4h5uh2b" x1="-.028" x2="1.337" xlink:href="#qs65k532va"/>
    </defs>
    <path fill="none" d="M0 0H26.824V24H0z"/>
    <g>
        <path fill="url(#qs65k532va)" d="M28.528 10.8a.566.566 0 0 0-.36.132L24.82 13.6a.451.451 0 0 0-.155.351v3.707a.451.451 0 0 0 .155.342l3.348 2.663a.6.6 0 0 0 .36.132h.8a.379.379 0 0 0 .333-.415v-9.165a.382.382 0 0 0-.333-.415z" transform="translate(2 5) translate(-5.666 -8.801)"/>
        <path fill="url(#ahv4h5uh2b)" d="M17.1 23H5.416a3.017 3.017 0 0 1-3.166-2.811v-8.378A3.011 3.011 0 0 1 5.41 9h11.68a3.011 3.011 0 0 1 3.16 2.811v8.373A3 3 0 0 1 17.1 23z" transform="translate(2 5) translate(-2.25 -9)"/>
        <g>
            <path fill="#fff" d="M2.678.154L.134 3.1a.541.541 0 0 0 .322.9h5.088a.541.541 0 0 0 .322-.9L3.322.154a.413.413 0 0 0-.644 0z" transform="translate(2 5) rotate(-90 9 1) rotate(180 3 2)"/>
        </g>
    </g>
</svg>
