<svg xmlns="http://www.w3.org/2000/svg" width="24.1" height="28" viewBox="0 0 24.1 28">
    <defs>
        <linearGradient id="qa7ei3rd3a" x1=".5" x2=".5" y2="1" gradientUnits="objectBoundingBox">
            <stop offset="0" stop-color="#fff" stop-opacity=".4"/>
            <stop offset="1" stop-color="#e9f7ff"/>
        </linearGradient>
    </defs>
    <g fill="none" stroke-linecap="round" stroke-linejoin="round" stroke-miterlimit="10">
        <path d="M913.191 532.47h23.815a14.814 14.814 0 0 1-6.1 14s7.105 4.121 6.1 14h-23.814a14.492 14.492 0 0 1 6.095-14 14.435 14.435 0 0 1-6.096-14z" transform="translate(-913.045 -532.47)"/>
        <path fill="#fff" d="M915.078 534.47c.002 2.737.764 5.198 2.274 7.335 1.36 1.925 2.87 2.89 2.964 2.95.59.344.952.959.98 1.64.027.685-.307 1.33-.87 1.72-2.726 1.886-4.44 4.446-5.099 7.607-.218 1.05-.28 2.001-.28 2.748h20.057c-.017-2.785-.783-5.264-2.284-7.388-1.34-1.895-2.82-2.824-2.92-2.885-.585-.333-.954-.931-.997-1.604-.044-.675.268-1.32.81-1.725 2.737-2.046 4.466-4.67 5.138-7.795.214-.997.283-1.894.29-2.603h-20.063m-1.887-2h23.815s1.599 8.248-6.096 14c0 0 7.105 4.121 6.095 14h-23.813s-1.648-8.638 6.095-14c0 0-7.187-4.281-6.096-14z" transform="translate(-913.045 -532.47)"/>
    </g>
    <path fill="url(#qa7ei3rd3a)" d="M922.79 550.407a4.413 4.413 0 0 1-.545.353l-.036.019c-.047.03-.087.063-.133.093a6.183 6.183 0 0 0-1.569 1.351c-.159.178-.3.36-.442.542l-.036.051a8.664 8.664 0 0 0-.922 1.582 7.1 7.1 0 0 0-.705 2.374c-.017.125-.023.2-.023.2h13.438s-.006-.071-.022-.2a7.123 7.123 0 0 0-.7-2.376 8.724 8.724 0 0 0-.922-1.582l-.037-.051c-.136-.182-.282-.364-.442-.542a6.166 6.166 0 0 0-1.569-1.351c-.046-.03-.086-.063-.133-.093l-.036-.019a4.418 4.418 0 0 1-.545-.353 3.393 3.393 0 0 1-1.448-2.7c0-.1 0-.194-.006-.292v-1.816a3.778 3.778 0 0 1 .834-2.525 3.017 3.017 0 0 1 .377-.317c.158-.106.3-.218.452-.328a7.994 7.994 0 0 0 2.964-2.951h-10.972a8 8 0 0 0 2.965 2.951c.149.11.293.222.451.328a2.944 2.944 0 0 1 .377.317 3.778 3.778 0 0 1 .834 2.525v1.816c0 .1-.007.193-.007.292a3.39 3.39 0 0 1-1.442 2.702z" transform="translate(-913.045 -532.47)"/>
</svg>
