<svg xmlns="http://www.w3.org/2000/svg" width="42" height="42" viewBox="0 0 42 42">
  <g id="Group_3506" data-name="Group 3506" transform="translate(-803 -1507)">
    <circle id="Ellipse_87" data-name="Ellipse 87" cx="21" cy="21" r="21" transform="translate(803 1507)" fill="#4fa5fe"/>
    <g id="R3nzMN" transform="translate(-5069.841 2810.405)">
      <g id="Group_3508" data-name="Group 3508" transform="translate(5878.095 -1287.5)">
        <path id="Path_6618" data-name="Path 6618" d="M6114.853-1276.924c.029-.147.059-.294.1-.476h-4.437c.106-.322.189-.6.295-.871a.23.23,0,0,1,.194-.092c.24.032.312-.1.375-.3.871-2.711,1.751-5.418,2.619-8.129.071-.221.162-.309.4-.3.489.021.979.006,1.5.006-.1.33-.193.621-.314,1.011.192-.121.315-.194.433-.274a3.293,3.293,0,0,1,1.8-.615c.931-.021,1.859-.079,2.832-.124-.115.345-.2.65-.323.938-.032.072-.189.122-.291.127-.581.027-.473-.1-.664.49q-1.087,3.346-2.172,6.692c-.034.1-.061.211-.1.353h.6c-.117.358-.214.674-.327.984a.2.2,0,0,1-.167.086c-.41-.085-.57.14-.639.491Zm-1.721-1.546c.723,0,1.388,0,2.052,0,.067,0,.177-.049.194-.1.206-.607.4-1.219.608-1.871-.722,0-1.4,0-2.071.006a.26.26,0,0,0-.19.143C6113.525-1279.708,6113.339-1279.115,6113.132-1278.471Zm1.685-5.215a.973.973,0,0,0,.147-.026,5.864,5.864,0,0,1,2.143-.589.211.211,0,0,0,.162-.1c.174-.518.337-1.039.519-1.608-.73,0-1.4,0-2.072.006a.237.237,0,0,0-.175.128C6115.3-1285.166,6115.066-1284.449,6114.817-1283.685Zm2.089.414c-.687,0-1.327.008-1.967,0a.3.3,0,0,0-.343.252c-.184.606-.387,1.205-.581,1.808-.036.11-.062.224-.109.4a5.831,5.831,0,0,1,2.324-.76.217.217,0,0,0,.152-.12C6116.557-1282.2,6116.722-1282.714,6116.906-1283.271Z" transform="translate(-6096.216 1287.116)" fill="#fff"/>
        <path id="Path_6619" data-name="Path 6619" d="M5967.574-1276.705a5.846,5.846,0,0,1-.727-.179c-.223-.084-.267-.268-.19-.5.333-1.023.648-2.05.978-3.074q.953-2.969,1.913-5.936c.147-.458.145-.458.621-.459h1.227l-1.285,4.287c.107.007.213.021.318.021,1.076,0,2.152-.01,3.229,0a.343.343,0,0,0,.4-.284c.064-.234.163-.459.264-.738H5970.7l-.035-.086c.2-.142.393-.3.605-.424a3.856,3.856,0,0,1,2.033-.5c.379.007.759.01,1.138-.006a.332.332,0,0,0,.252-.144c.123-.312.215-.636.333-1h-3.642l-.028-.082a4.585,4.585,0,0,1,1.435-.8,8.963,8.963,0,0,1,2.561-.235c.572.011,1.146,0,1.725,0,.008.037.026.068.019.09-.425,1.293-.836,2.591-1.285,3.876a1.743,1.743,0,0,1-1.807,1.207c-1.291.006-2.582.016-3.874.01a.357.357,0,0,0-.416.29c-.292.949-.608,1.891-.907,2.838-.168.534.08.819.647.766.313-.029.626-.055.98-.085-.123.413-.232.783-.342,1.153Z" transform="translate(-5961.177 1286.897)" fill="#fff"/>
        <path id="Path_6620" data-name="Path 6620" d="M6227.095-1234.017c.081-.274.148-.553.251-.818a.311.311,0,0,1,.252-.141,1.571,1.571,0,0,0,1.491-.786c.455-.656.959-1.277,1.442-1.914.071-.094.139-.192.25-.345H6228.4c.094-.289.157-.532.257-.757.026-.058.17-.089.261-.09.7-.007,1.394-.01,2.09,0,.191,0,.292-.044.35-.245.118-.41.269-.81.419-1.255H6229.2c.1-.32.181-.6.285-.875a.269.269,0,0,1,.208-.123q3.212-.009,6.424,0a.552.552,0,0,1,.121.039c-.092.282-.169.566-.283.835-.028.067-.177.115-.271.116-.625.01-1.25.013-1.875,0-.2,0-.316.047-.377.258-.115.4-.259.793-.408,1.239h2.4a6.313,6.313,0,0,1-.225.714.343.343,0,0,1-.266.126c-.676.011-1.353.013-2.029,0a.532.532,0,0,0-.477.207c-.176.223-.375.429-.621.705.389,0,.71.012,1.03,0,.218-.011.311.062.338.281.045.366.118.728.18,1.091.079.459.168.537.643.571.07,0,.139.014.231.023-.106.328-.2.639-.311.947-.02.056-.089.136-.132.135a3.235,3.235,0,0,1-1.566-.179.7.7,0,0,1-.392-.544c-.09-.577-.194-1.151-.293-1.726,0-.018-.021-.033-.058-.092-.235.3-.461.579-.685.863-.259.33-.52.66-.774.995a2.22,2.22,0,0,1-1.2.749Z" transform="translate(-6205.63 1244.209)" fill="#fff"/>
        <path id="Path_6621" data-name="Path 6621" d="M5878.1-1231.89a7,7,0,0,0,.253-.681.285.285,0,0,1,.347-.243c.306.017.615.011.922,0,.077,0,.2-.046.221-.1.16-.461.3-.928.459-1.436h-1.356c.1-.306.178-.585.28-.854.019-.051.128-.1.2-.1,1.792-.005,3.583,0,5.428,0-.1.308-.176.588-.286.854-.025.059-.166.1-.253.1-.583.008-1.169.03-1.751-.007a.476.476,0,0,0-.584.44c-.084.365-.224.716-.35,1.105h2.464c-.1.32-.182.613-.3.89-.028.066-.18.109-.276.111-.645.01-1.291.015-1.936,0-.206,0-.311.047-.372.256-.154.531-.339,1.052-.5,1.58-.115.369-.017.558.371.6a9.858,9.858,0,0,0,1.16-.005c.11,0,.22-.025.364-.043-.112.388-.215.747-.318,1.1h-3.014a.869.869,0,0,0-.134-.062.59.59,0,0,1-.476-.869c.182-.565.37-1.127.551-1.692.085-.266.162-.535.249-.821H5878.1Z" transform="translate(-5878.095 1238.514)" fill="#fff"/>
        <path id="Path_6622" data-name="Path 6622" d="M6338.035-1287.248c-.144.28-.309.551-.426.841a1.483,1.483,0,0,1-1.247.966,14.574,14.574,0,0,1-1.739.015c.085-.266.158-.53.259-.783a.269.269,0,0,1,.211-.113.771.771,0,0,0,.764-.467.955.955,0,0,1,1.138-.6,8.119,8.119,0,0,0,1.041.02Z" transform="translate(-6306.544 1287.414)" fill="#fff"/>
        <path id="Path_6623" data-name="Path 6623" d="M6041.284-1188.72c-.25,1.018-.25,1.028-1.226,1.015-.562-.007-1.123-.043-1.684-.082a.335.335,0,0,1-.34-.387c.028-1.187.048-2.375.073-3.563a.8.8,0,0,1,.026-.131h1.6v.784a5.857,5.857,0,0,0,1.046-.094.688.688,0,0,0,.357-.441.424.424,0,0,1,.525-.355c.251.023.507,0,.762,0-.017,1.005-.425,1.446-1.376,1.5-.378.022-.757.037-1.135.036-.215,0-.286.082-.277.291.012.3-.005.594,0,.891a.526.526,0,0,0,.621.576C6040.588-1188.688,6040.925-1188.7,6041.284-1188.72Z" transform="translate(-6028.197 1197.855)" fill="#fff"/>
        <path id="Path_6624" data-name="Path 6624" d="M5898.636-1287.469l-.415.761h2.531c-.1.332-.176.619-.291.887a.371.371,0,0,1-.289.134c-.931.01-1.864,0-2.8.011a.737.737,0,0,0-.417.131,3.3,3.3,0,0,1-2.459.591c.092-.288.166-.564.272-.827a.284.284,0,0,1,.233-.121,1.067,1.067,0,0,0,1.1-.664c.161-.306.3-.7.565-.853s.677-.046,1.024-.049C5897.994-1287.471,5898.287-1287.469,5898.636-1287.469Z" transform="translate(-5893.492 1287.5)" fill="#fff"/>
        <path id="Path_6625" data-name="Path 6625" d="M6279.328-1286.594h1.948c.03.517-.086,1.17.83,1.017-.1.327-.184.6-.284.865a.238.238,0,0,1-.179.119c-.492.009-.985.027-1.475,0-.636-.038-.813-.248-.833-.886-.01-.328-.02-.655-.028-.983A.864.864,0,0,1,6279.328-1286.594Z" transform="translate(-6254.63 1286.65)" fill="#fff"/>
      </g>
    </g>
  </g>
</svg>
