<svg xmlns="http://www.w3.org/2000/svg" width="42" height="42" viewBox="0 0 42 42">
    <defs>
        <style>
            .cls-2{fill:#fff}
        </style>
    </defs>
    <g id="Group_3453" transform="translate(-367 -1242)">
        <g id="Group_3449" transform="translate(-374 -1)">
            <circle id="Ellipse_157" cx="21" cy="21" r="21" fill="#7672e3" transform="translate(741 1243)"/>
        </g>
        <g id="lVX5um.tif" transform="translate(-5637.636 2093.262)">
            <g id="Group_3452" transform="translate(6014.636 -841.454)">
                <path id="Path_6580" d="M6028.374-819.07h-1.137a1.161 1.161 0 0 0-.145-.039 7.072 7.072 0 0 1-6.053-4.917c-.061-.167-.128-.24-.313-.248a7.867 7.867 0 0 1-2.139-.4 8.583 8.583 0 0 1-5.937-7.736 8.086 8.086 0 0 1 1.9-5.836 8.3 8.3 0 0 1 8.62-2.973 8.523 8.523 0 0 1 6.63 7.805.341.341 0 0 0 .273.36 7.048 7.048 0 0 1 4.723 5.131c.109.419.146.857.216 1.287v.918c-.058.343-.092.693-.178 1.029a7.077 7.077 0 0 1-5.183 5.374 12.8 12.8 0 0 1-1.277.245zm-6.38-7.228a5.855 5.855 0 0 0 5.876 5.916 5.876 5.876 0 0 0 5.836-5.83 5.881 5.881 0 0 0-5.9-5.884 5.86 5.86 0 0 0-5.812 5.796zm-3.476-8.677c-.021.076-.042.137-.056.2a9.372 9.372 0 0 0-.105 3.3c.024.166.075.214.241.213 1.326-.007 2.651 0 3.977-.009a.558.558 0 0 0 .3-.123c.4-.3.788-.62 1.188-.921a.29.29 0 0 0 .154-.281c-.069-.716-.14-1.431-.2-2.148-.016-.185-.089-.235-.274-.234-1.668.008-3.336 0-5 0zm-4.393 3.7h2.936a10.9 10.9 0 0 1 .088-3.667.329.329 0 0 0-.07-.025c-.9 0-1.791 0-2.686-.007-.134 0-.16.077-.176.171-.085.464-.194.927-.242 1.395a6.58 6.58 0 0 0 .15 2.129zm4.753-5.02h4.691c-.017-.056-.026-.1-.042-.136a14.832 14.832 0 0 0-1.921-3.557.51.51 0 0 0-.746 0 14.052 14.052 0 0 0-1.458 2.476c-.179.388-.343.79-.524 1.212zm-4.3 6.344c.478 1.63 3.183 4.031 4.509 4.04-.323-.626-.686-1.25-.973-1.907s-.5-1.347-.752-2.018a.243.243 0 0 0-.187-.11c-.451-.01-.9-.005-1.354-.005zm4.513-9.874a7.377 7.377 0 0 0-4.269 3.51c.039.018.051.029.063.029.83 0 1.659.005 2.489 0 .057 0 .139-.086.164-.149.133-.33.229-.676.38-1 .382-.805.782-1.595 1.173-2.394zm8.545 3.543a7.1 7.1 0 0 0-4.276-3.517c0 .013-.005.03 0 .04a15.975 15.975 0 0 1 1.588 3.366.2.2 0 0 0 .152.106c.838.002 1.675 0 2.536 0zm-6.952 10.295a7.238 7.238 0 0 1 1.031-3.951h-2.988a12.932 12.932 0 0 0 1.958 3.946zm7.853-7.381c-.1-.492-.19-.951-.274-1.411-.027-.15-.1-.2-.249-.194-.829.008-1.658 0-2.487 0-.066 0-.131.011-.178.015l.209 1.922a7.3 7.3 0 0 1 2.979-.337z" class="cls-2" transform="translate(-6012.636 841.454)"/>
                <path id="Path_6581" d="M6321.049-578.492c-.378-.177-.724-.311-1.04-.5a.634.634 0 0 1-.236-.923.646.646 0 0 1 .937-.17 1.489 1.489 0 0 0 1.233.194.779.779 0 0 0 .557-.854.6.6 0 0 0-.4-.453c-.37-.152-.747-.288-1.108-.458a1.838 1.838 0 0 1-1.091-1.093 1.82 1.82 0 0 1 .988-2.184.235.235 0 0 0 .171-.236.651.651 0 0 1 .643-.663.67.67 0 0 1 .666.645.327.327 0 0 0 .156.186c.188.11.4.184.576.3a.635.635 0 0 1 .187.886.635.635 0 0 1-.88.208 1.116 1.116 0 0 0-.871-.18.512.512 0 0 0-.4.436.369.369 0 0 0 .258.427c.331.15.659.307 1 .432a1.925 1.925 0 0 1 1.425 1.788 2.132 2.132 0 0 1-1.276 1.993.261.261 0 0 0-.184.273.653.653 0 0 1-.628.678.662.662 0 0 1-.673-.636c-.007-.043-.01-.094-.01-.096z" class="cls-2" transform="translate(-6306.219 597.022)"/>
            </g>
        </g>
    </g>
</svg>
