<svg xmlns="http://www.w3.org/2000/svg" width="42" height="42" viewBox="0 0 42 42">
    <defs>
        <style>
            .cls-2{fill:#fff}
        </style>
    </defs>
    <g id="Group_3171" transform="translate(-122 -117)">
        <circle id="Ellipse_88" cx="21" cy="21" r="21" fill="#3dcb79" transform="translate(122 117)"/>
        <g id="Group_3172" transform="translate(619.45 -523.158)">
            <path id="Path_2500" d="M127.642 186.036c.116-.559.192-1.129.356-1.673a7.261 7.261 0 0 1 2.043-3.216 11.632 11.632 0 0 1 13.926-1.12 8.062 8.062 0 0 1 3.628 4.98c.067.287.1.581.156.874.5.05 1.01.071 1.507.156a7.9 7.9 0 0 1 6.087 4.141 5.956 5.956 0 0 1-.324 6.246 15.7 15.7 0 0 1-1.147 1.382.768.768 0 0 0-.181.426c-.016 1.026-.01 2.053-.011 3.08v.341c-.136-.066-.234-.112-.331-.16-1.033-.514-2.064-1.034-3.1-1.538a.752.752 0 0 0-.442-.056 9.253 9.253 0 0 1-7.163-1.322 6.967 6.967 0 0 1-2.942-3.942c-.157.018-.318.034-.479.054a12.677 12.677 0 0 1-4.083-.171.655.655 0 0 0-.389.05c-1.079.527-2.152 1.065-3.227 1.6-.1.048-.2.09-.333.153v-1.022c0-.749-.006-1.5.006-2.247a.422.422 0 0 0-.2-.389 7.882 7.882 0 0 1-2.779-3.419 16.82 16.82 0 0 1-.53-1.97l-.05-.183zm11.848 7.42a1.036 1.036 0 0 0 .013-.13 6.359 6.359 0 0 1 2.088-5.03 8.483 8.483 0 0 1 4.307-2.2c.214-.044.429-.078.655-.119a5.89 5.89 0 0 0-.755-2.38 8.163 8.163 0 0 0-4.736-3.661 10.556 10.556 0 0 0-6.73 0 7.978 7.978 0 0 0-4.694 3.626 5.685 5.685 0 0 0 .165 6.144 7.613 7.613 0 0 0 2.375 2.333.39.39 0 0 1 .2.383c-.012.453 0 .906 0 1.359v.636c.761-.377 1.458-.733 2.168-1.065a.862.862 0 0 1 .519-.066 11.579 11.579 0 0 0 4.428.166m13.014 6.291c0-.732.006-1.407 0-2.081a.5.5 0 0 1 .181-.4 11.789 11.789 0 0 0 1.242-1.333 4.788 4.788 0 0 0 .89-3.619 5.584 5.584 0 0 0-2.656-3.942 7.81 7.81 0 0 0-5.372-1.215 7.069 7.069 0 0 0-5.169 2.921 4.849 4.849 0 0 0-.891 3.621 5.547 5.547 0 0 0 2.651 3.944 8.036 8.036 0 0 0 6.512 1.008.727.727 0 0 1 .55.057c.669.349 1.348.679 2.067 1.039" class="cls-2" transform="translate(-618.31 471.219)"/>
            <path id="Rectangle_2093" d="M0 0H1.157V1.145H0z" class="cls-2" transform="translate(-484.145 654.771)"/>
            <path id="Rectangle_2094" d="M0 0H1.148V1.146H0z" class="cls-2" transform="translate(-478.221 654.776)"/>
            <path id="Rectangle_2095" d="M0 0H1.16V1.148H0z" class="cls-2" transform="translate(-468.163 661.873)"/>
            <path id="Rectangle_2096" d="M0 0H1.145V1.142H0z" class="cls-2" transform="translate(-474.068 661.882)"/>
        </g>
    </g>
</svg>
