<svg xmlns="http://www.w3.org/2000/svg" width="42" height="42" viewBox="0 0 42 42">
  <g id="Group_3505" data-name="Group 3505" transform="translate(-734 -1507)">
    <circle id="Ellipse_89" data-name="Ellipse 89" cx="21" cy="21" r="21" transform="translate(734 1507)" fill="#7672e3"/>
    <g id="Group_3507" data-name="Group 3507" transform="translate(-4315.819 2511.329)">
      <path id="Path_6611" data-name="Path 6611" d="M5240.345-982.82H5234.3l2.081-4.624c-.769,0-1.347-.036-1.918.009-.679.054-.9-.231-.746-.981.824,0,1.678.01,2.531-.007.232,0,.628-.035.668-.15.383-1.12,1.283-.682,2.095-.761.033.29.062.545.1.9h9.577v.922a3.449,3.449,0,0,1-.455.061c-2.884,0-5.77.051-8.652-.023a1.5,1.5,0,0,0-1.646,1.065c-.32.781-.7,1.537-1.1,2.4h3.5a11.224,11.224,0,0,0-.01-1.344c-.1-.823.223-1.145,1.042-1.033a8.124,8.124,0,0,0,1,.007v2.411h5.81c.263,1.075.226,1.134-.759,1.137-1.638.006-3.276,0-5.041,0,0,1.08,0,2.088,0,3.1,0,2.115-1.109,3.142-3.305,3-.016-.256-.033-.519-.052-.838,1.112-.083,1.369-.75,1.323-1.714C5240.3-980.419,5240.345-981.561,5240.345-982.82Z" transform="translate(-161.618 0)" fill="#fff"/>
      <path id="Path_6612" data-name="Path 6612" d="M5064.554-948.049v-.819c1.014-.062,1.352-.741,1.388-1.609.042-.987,0-1.976.018-2.964.009-.528-.23-.69-.737-.683-1.487.022-2.975-.006-4.462.014-.639.008-.97-.171-.924-.895.057-.89.014-1.786.014-2.751H5074c0,.976-.028,1.916.01,2.853.025.611-.2.808-.808.8-1.73-.03-3.461-.01-5.332-.01,0,1.1,0,2.14,0,3.177C5067.854-948.808,5066.762-947.841,5064.554-948.049Zm-2.644-8.634v1.4h9.974v-1.4Z" transform="translate(-3.647 -28.714)" fill="#fff"/>
      <path id="Path_6613" data-name="Path 6613" d="M5055.881-986.266c-.214-.833.143-.988.765-.98,1.612.022,3.226.031,4.837-.013a1.6,1.6,0,0,0,.975-.575c.654-.032,1.628-.781,1.932.6,1.864,0,3.722-.021,5.579.024.257.006.506.337.758.518-.291.144-.581.408-.874.412-2.635.032-5.271.018-7.907.018Z" transform="translate(0 -1.171)" fill="#fff"/>
      <path id="Path_6614" data-name="Path 6614" d="M5176.28-907.325l1.892,5.075c-.231,0-.647.123-.92-.022-1-.528-2.752-3.759-2.8-5.053Z" transform="translate(-107.805 -74.541)" fill="#fff"/>
      <path id="Path_6615" data-name="Path 6615" d="M5241.494-907.718c-.251,2.307-2.546,5.312-3.855,5.085q.722-1.722,1.446-3.443a2.48,2.48,0,0,0,.1-.259c.132-.46.151-1.225.415-1.32A5.846,5.846,0,0,1,5241.494-907.718Z" transform="translate(-165.222 -74.14)" fill="#fff"/>
      <path id="Path_6616" data-name="Path 6616" d="M5061.879-907.826c.239,1.747-2.3,5.242-3.783,5.123.475-1.08.942-2.143,1.408-3.207a3.594,3.594,0,0,0,.178-.425C5060.154-907.932,5060.152-907.933,5061.879-907.826Z" transform="translate(-2.069 -74.05)" fill="#fff"/>
      <path id="Path_6617" data-name="Path 6617" d="M5353.713-907.48h1.86l1.854,5.091C5356.19-902.25,5353.9-905.323,5353.713-907.48Z" transform="translate(-270.701 -74.4)" fill="#fff"/>
    </g>
  </g>
</svg>
