<svg xmlns="http://www.w3.org/2000/svg" width="42" height="42" viewBox="0 0 42 42">
  <g id="Group_3204" data-name="Group 3204" transform="translate(-725 -1446)">
    <circle id="Ellipse_89" data-name="Ellipse 89" cx="21" cy="21" r="21" transform="translate(725 1446)" fill="#7672e3"/>
    <g id="ymoRDF" transform="translate(-3925.846 3503.958)">
      <g id="Group_3199" data-name="Group 3199" transform="translate(4656.982 -2047.943)">
        <path id="Path_4450" data-name="Path 4450" d="M4674.933-2040.075h-13.216v-.81h6.991v-2.307h-7.739l-.074-1.614h7.839c0-.727,0-1.406,0-2.084,0-.8.256-1.049,1.056-1.051.951,0,1.9,0,2.9,0v3.125h7.832c-.033.543-.064,1.05-.1,1.6h-7.7v2.313h7.011a29.8,29.8,0,0,1-3.378,6.924c3.416,1.168,6.864,2.147,10.36,2.993v5.019c-.623-.26-1.217-.5-1.8-.755q-5.087-2.261-10.167-4.537a.439.439,0,0,0-.583.1,16.364,16.364,0,0,1-5.237,3.614,11.752,11.752,0,0,1-6.235,1,6.837,6.837,0,0,1-4.952-2.869,4.189,4.189,0,0,1-.067-4.7,6.361,6.361,0,0,1,4.139-2.679,11.952,11.952,0,0,1,5.505.116c1.822.413,3.617.945,5.42,1.441.248.068.376.054.472-.206.5-1.349,1.011-2.693,1.518-4.04C4674.792-2039.673,4674.854-2039.857,4674.933-2040.075Zm-3.126,7.008c-.09-.04-.14-.068-.193-.086-1.577-.556-3.139-1.159-4.735-1.649a14.279,14.279,0,0,0-2.885-.563,9.362,9.362,0,0,0-3.96.8,2.2,2.2,0,0,0-1.117.925,2.537,2.537,0,0,0-.23,2.78,4.532,4.532,0,0,0,1.356,1.41,5.159,5.159,0,0,0,4.091.919,13.149,13.149,0,0,0,3.434-1.206A14.246,14.246,0,0,0,4671.806-2033.068Z" transform="translate(-4656.982 2047.943)" fill="#fff"/>
      </g>
    </g>
  </g>
</svg>
